GeoramaExtraCondensed-BoldItalic.ufo
<glyph name="exclam" format="2">
  <advance width="166.9"/>
  <unicode hex="0021"/>
  <outline>
    <contour>
      <point x="26.400000000000002" y="260.5" type="line"/>
      <point x="131.2" y="260.5" type="line"/>
      <point x="220.2" y="740.0" type="line"/>
      <point x="96.5" y="740.0" type="line"/>
    </contour>
    <contour>
      <point x="-16.5" y="49.9" type="curve" smooth="yes"/>
      <point x="-16.799999999999997" y="11.799999999999999"/>
      <point x="-0.3999999999999999" y="-7.0"/>
      <point x="37.9" y="-7.0" type="curve" smooth="yes"/>
      <point x="102.19999999999999" y="-7.0"/>
      <point x="119.69999999999999" y="59.8"/>
      <point x="120.6" y="110.8" type="curve" smooth="yes"/>
      <point x="120.89999999999999" y="149.2"/>
      <point x="103.89999999999999" y="167.7"/>
      <point x="65.9" y="167.7" type="curve" smooth="yes"/>
      <point x="3.6" y="167.7"/>
      <point x="-15.599999999999998" y="102.3"/>
    </contour>
  </outline>
</glyph>
<glyph name="numbersign" format="2">
  <advance width="369.0"/>
  <unicode hex="0023"/>
  <outline>
    <contour>
      <point x="70.2" y="417.8" type="line"/>
      <point x="110.2" y="417.8" type="line"/>
      <point x="75.6" y="274.4" type="line"/>
      <point x="34.599999999999994" y="274.4" type="line"/>
      <point x="15.899999999999999" y="157.7" type="line"/>
      <point x="51.7" y="157.7" type="line"/>
      <point x="15.899999999999999" y="0.0" type="line"/>
      <point x="101.3" y="0.0" type="line"/>
      <point x="136.8" y="157.7" type="line"/>
      <point x="175.1" y="157.7" type="line"/>
      <point x="139.6" y="0.0" type="line"/>
      <point x="224.0" y="0.0" type="line"/>
      <point x="259.5" y="157.7" type="line"/>
      <point x="304.0" y="157.7" type="line"/>
      <point x="322.4" y="274.4" type="line"/>
      <point x="283.4" y="274.4" type="line"/>
      <point x="318.0" y="417.8" type="line"/>
      <point x="358.0" y="417.8" type="line"/>
      <point x="377.1" y="535.9" type="line"/>
      <point x="341.9" y="535.9" type="line"/>
      <point x="379.5" y="700.0" type="line"/>
      <point x="294.4" y="700.0" type="line"/>
      <point x="256.8" y="535.9" type="line"/>
      <point x="218.5" y="535.9" type="line"/>
      <point x="256.1" y="700.0" type="line"/>
      <point x="171.7" y="700.0" type="line"/>
      <point x="134.1" y="535.9" type="line"/>
      <point x="89.3" y="535.9" type="line"/>
    </contour>
    <contour>
      <point x="194.6" y="417.8" type="line"/>
      <point x="232.9" y="417.8" type="line"/>
      <point x="199.0" y="274.4" type="line"/>
      <point x="160.7" y="274.4" type="line"/>
    </contour>
  </outline>
</glyph>
<glyph name="dollar" format="2">
  <advance width="369.0"/>
  <unicode hex="0024"/>
  <outline>
    <contour>
      <point x="376.59999999999997" y="680.6" type="line"/>
      <point x="360.4" y="691.4000000000001"/>
      <point x="331.8" y="702.0"/>
      <point x="300.0" y="706.8" type="curve"/>
      <point x="315.0" y="803.6" type="line"/>
      <point x="207.79999999999998" y="803.6" type="line"/>
      <point x="190.4" y="697.8000000000001" type="line"/>
      <point x="103.60000000000001" y="672.6"/>
      <point x="64.4" y="586.1999999999999"/>
      <point x="64.4" y="504.80000000000007" type="curve" smooth="yes"/>
      <point x="64.4" y="336.40000000000003"/>
      <point x="201.79999999999998" y="278.59999999999997"/>
      <point x="201.79999999999998" y="193.2" type="curve" smooth="yes"/>
      <point x="201.79999999999998" y="147.2"/>
      <point x="177.6" y="111.79999999999998"/>
      <point x="129.0" y="111.79999999999998" type="curve" smooth="yes"/>
      <point x="97.0" y="111.79999999999998"/>
      <point x="66.6" y="119.39999999999999"/>
      <point x="28.999999999999996" y="137.0" type="curve"/>
      <point x="-12.0" y="24.2" type="line"/>
      <point x="11.799999999999999" y="8.799999999999999"/>
      <point x="42.4" y="-1.6000000000000014"/>
      <point x="70.8" y="-5.8" type="curve"/>
      <point x="55.8" y="-105.0" type="line"/>
      <point x="163.0" y="-105.0" type="line"/>
      <point x="178.0" y="-3.4000000000000004" type="line"/>
      <point x="278.2" y="19.0"/>
      <point x="320.8" y="113.39999999999999"/>
      <point x="320.8" y="195.79999999999998" type="curve" smooth="yes"/>
      <point x="320.8" y="364.2"/>
      <point x="189.39999999999998" y="414.8"/>
      <point x="189.39999999999998" y="502.59999999999997" type="curve" smooth="yes"/>
      <point x="189.39999999999998" y="543.8000000000001"/>
      <point x="213.0" y="582.8000000000001"/>
      <point x="262.79999999999995" y="582.8000000000001" type="curve" smooth="yes"/>
      <point x="280.4" y="582.8000000000001"/>
      <point x="305.40000000000003" y="578.8000000000001"/>
      <point x="335.4" y="564.8" type="curve"/>
    </contour>
  </outline>
</glyph>
<glyph name="ampersand" format="2">
  <advance width="447.2"/>
  <unicode hex="0026"/>
  <outline>
    <contour>
      <point x="183.5" y="-10.0" type="curve" smooth="yes"/>
      <point x="330.79999999999995" y="-10.0"/>
      <point x="429.9" y="155.2"/>
      <point x="375.7" y="294.7" type="curve"/>
      <point x="279.3" y="284.0" type="line"/>
      <point x="334.5" y="202.2"/>
      <point x="267.3" y="106.69999999999999"/>
      <point x="203.0" y="106.69999999999999" type="curve" smooth="yes"/>
      <point x="145.89999999999998" y="106.69999999999999"/>
      <point x="118.8" y="146.0"/>
      <point x="118.8" y="207.0" type="curve" smooth="yes"/>
      <point x="118.8" y="295.1"/>
      <point x="169.9" y="374.8"/>
      <point x="245.2" y="374.8" type="curve" smooth="yes"/>
      <point x="258.0" y="374.8" type="line"/>
      <point x="279.2" y="463.5" type="line"/>
      <point x="263.5" y="466.3" type="line" smooth="yes"/>
      <point x="224.7" y="470.5"/>
      <point x="209.4" y="494.5"/>
      <point x="209.4" y="530.6" type="curve" smooth="yes"/>
      <point x="209.4" y="571.3"/>
      <point x="236.9" y="598.2"/>
      <point x="266.6" y="598.2" type="curve" smooth="yes"/>
      <point x="287.7" y="598.2"/>
      <point x="304.3" y="594.7"/>
      <point x="326.2" y="578.9" type="curve"/>
      <point x="379.3" y="678.9" type="line"/>
      <point x="339.4" y="699.3"/>
      <point x="303.9" y="710.0"/>
      <point x="255.6" y="710.0" type="curve" smooth="yes"/>
      <point x="158.7" y="710.0"/>
      <point x="98.0" y="631.3"/>
      <point x="98.0" y="545.4" type="curve" smooth="yes"/>
      <point x="98.0" y="493.1"/>
      <point x="116.5" y="456.6"/>
      <point x="159.1" y="424.6" type="curve"/>
      <point x="70.7" y="395.8"/>
      <point x="4.600000000000001" y="309.7"/>
      <point x="4.600000000000001" y="178.7" type="curve" smooth="yes"/>
      <point x="4.600000000000001" y="72.0"/>
      <point x="63.9" y="-10.0"/>
    </contour>
    <contour>
      <point x="255.39999999999998" y="221.2" type="line"/>
      <point x="256.9" y="248.7"/>
      <point x="265.1" y="267.2"/>
      <point x="288.7" y="267.2" type="curve" smooth="yes"/>
      <point x="316.7" y="267.2"/>
      <point x="343.2" y="263.6"/>
      <point x="369.7" y="263.6" type="curve" smooth="yes"/>
      <point x="430.1" y="263.6"/>
      <point x="469.2" y="327.5"/>
      <point x="455.8" y="390.2" type="curve"/>
      <point x="381.7" y="392.9" type="line"/>
      <point x="378.2" y="346.4"/>
      <point x="359.2" y="340.1"/>
      <point x="321.2" y="340.1" type="curve" smooth="yes"/>
      <point x="305.6" y="340.1"/>
      <point x="288.2" y="343.7"/>
      <point x="272.0" y="343.7" type="curve" smooth="yes"/>
      <point x="202.2" y="343.7"/>
      <point x="180.9" y="286.5"/>
      <point x="178.2" y="234.1" type="curve"/>
    </contour>
  </outline>
</glyph>
<glyph name="quotesingle" format="2">
  <advance width="164.2"/>
  <unicode hex="0027"/>
  <outline>
    <contour>
      <point x="53.400000000000006" y="427.0" type="line"/>
      <point x="155.3" y="427.0" type="line"/>
      <point x="206.5" y="700.0" type="line"/>
      <point x="91.7" y="700.0" type="line"/>
    </contour>
  </outline>
</glyph>
<glyph name="parenleft" format="2">
  <advance width="215.9"/>
  <unicode hex="0028"/>
  <outline>
    <contour>
      <point x="7.600000000000001" y="22.0" type="curve" smooth="yes"/>
      <point x="7.600000000000001" y="-116.0"/>
      <point x="43.5" y="-201.6"/>
      <point x="123.3" y="-220.0" type="curve"/>
      <point x="146.1" y="-104.60000000000001" type="line"/>
      <point x="120.9" y="-86.80000000000001"/>
      <point x="104.69999999999999" y="-48.0"/>
      <point x="104.69999999999999" y="31.9" type="curve" smooth="yes"/>
      <point x="104.69999999999999" y="154.9"/>
      <point x="167.5" y="612.0"/>
      <point x="263.8" y="633.4" type="curve"/>
      <point x="279.2" y="749.7" type="line"/>
      <point x="76.5" y="725.4"/>
      <point x="7.600000000000001" y="253.2"/>
    </contour>
  </outline>
</glyph>
<glyph name="parenright" format="2">
  <advance width="215.9"/>
  <unicode hex="0029"/>
  <outline>
    <contour>
      <point x="205.6" y="508.0" type="curve" smooth="yes"/>
      <point x="205.6" y="646.0"/>
      <point x="170.0" y="731.6"/>
      <point x="90.2" y="750.0" type="curve"/>
      <point x="68.0" y="633.7" type="line"/>
      <point x="93.8" y="614.1"/>
      <point x="108.5" y="577.4"/>
      <point x="108.5" y="502.0" type="curve" smooth="yes"/>
      <point x="108.5" y="375.4"/>
      <point x="45.4" y="-82.9"/>
      <point x="-50.900000000000006" y="-104.0" type="curve"/>
      <point x="-66.0" y="-220.0" type="line"/>
      <point x="136.1" y="-193.9"/>
      <point x="205.6" y="277.4"/>
    </contour>
  </outline>
</glyph>
<glyph name="asterisk" format="2">
  <advance width="276.8"/>
  <unicode hex="002A"/>
  <outline>
    <contour>
      <point x="107.0" y="418.7" type="line"/>
      <point x="172.1" y="489.7" type="line"/>
      <point x="213.39999999999998" y="419.0" type="line"/>
      <point x="265.5" y="454.2" type="line"/>
      <point x="237.2" y="536.1" type="line"/>
      <point x="318.1" y="576.0" type="line"/>
      <point x="309.2" y="634.7" type="line"/>
      <point x="227.8" y="612.1" type="line"/>
      <point x="235.7" y="706.7" type="line"/>
      <point x="177.7" y="706.7" type="line"/>
      <point x="154.4" y="612.4" type="line"/>
      <point x="82.2" y="635.0" type="line"/>
      <point x="53.9" y="576.6" type="line"/>
      <point x="118.7" y="536.7" type="line"/>
      <point x="65.3" y="454.2" type="line"/>
    </contour>
  </outline>
</glyph>
<glyph name="plus" format="2">
  <advance width="372.9"/>
  <unicode hex="002B"/>
  <outline>
    <contour>
      <point x="111.5" y="135.7" type="line"/>
      <point x="218.0" y="135.7" type="line"/>
      <point x="237.7" y="259.4" type="line"/>
      <point x="329.3" y="259.4" type="line"/>
      <point x="347.7" y="377.1" type="line"/>
      <point x="256.1" y="377.1" type="line"/>
      <point x="275.8" y="501.1" type="line"/>
      <point x="169.3" y="501.1" type="line"/>
      <point x="149.6" y="377.1" type="line"/>
      <point x="57.7" y="377.1" type="line"/>
      <point x="39.3" y="259.4" type="line"/>
      <point x="131.2" y="259.4" type="line"/>
    </contour>
  </outline>
</glyph>
<glyph name="comma" format="2">
  <advance width="160.0"/>
  <unicode hex="002C"/>
  <outline>
    <contour>
      <point x="-7.6" y="87.9" type="line"/>
      <point x="-8.0" y="59.0"/>
      <point x="-10.799999999999999" y="33.3"/>
      <point x="-12.899999999999999" y="19.799999999999997" type="curve" smooth="yes"/>
      <point x="-19.2" y="-35.0"/>
      <point x="-53.9" y="-114.9"/>
      <point x="-83.8" y="-155.1" type="curve"/>
      <point x="-0.8000000000000114" y="-184.8" type="line"/>
      <point x="64.19999999999999" y="-111.9"/>
      <point x="103.39999999999999" y="-23.700000000000003"/>
      <point x="103.39999999999999" y="57.099999999999994" type="curve" smooth="yes"/>
      <point x="103.39999999999999" y="68.8"/>
      <point x="102.69999999999999" y="79.5"/>
      <point x="102.1" y="90.69999999999999" type="curve"/>
    </contour>
  </outline>
</glyph>
<glyph name="hyphen" format="2">
  <advance width="261.6"/>
  <unicode hex="002D"/>
  <outline>
    <contour>
      <point x="22.2" y="239.7" type="line"/>
      <point x="227.5" y="239.7" type="line"/>
      <point x="249.0" y="367.2" type="line"/>
      <point x="43.7" y="367.2" type="line"/>
    </contour>
  </outline>
</glyph>
<glyph name="period" format="2">
  <advance width="160.0"/>
  <unicode hex="002E"/>
  <outline>
    <contour>
      <point x="-18.7" y="52.0" type="curve" smooth="yes"/>
      <point x="-19.0" y="13.2"/>
      <point x="-3.3000000000000007" y="-4.8999999999999995"/>
      <point x="35.699999999999996" y="-4.8999999999999995" type="curve" smooth="yes"/>
      <point x="100.0" y="-4.8999999999999995"/>
      <point x="116.8" y="61.9"/>
      <point x="117.69999999999999" y="114.3" type="curve" smooth="yes"/>
      <point x="118.0" y="152.0"/>
      <point x="101.69999999999999" y="169.79999999999998"/>
      <point x="63.699999999999996" y="169.79999999999998" type="curve" smooth="yes"/>
      <point x="0.6999999999999993" y="169.79999999999998"/>
      <point x="-17.799999999999997" y="104.39999999999999"/>
    </contour>
  </outline>
</glyph>
<glyph name="slash" format="2">
  <advance width="314.6"/>
  <unicode hex="002F"/>
  <outline>
    <contour>
      <point x="-80.7" y="-210.0" type="line"/>
      <point x="21.299999999999997" y="-210.0" type="line"/>
      <point x="392.29999999999995" y="740.0" type="line"/>
      <point x="288.9" y="740.0" type="line"/>
    </contour>
  </outline>
</glyph>
<glyph name="zero" format="2">
  <advance width="369.0"/>
  <unicode hex="0030"/>
  <outline>
    <contour>
      <point x="145.2" y="-10.0" type="curve" smooth="yes"/>
      <point x="320.6" y="-10.0"/>
      <point x="378.0" y="311.4"/>
      <point x="378.0" y="528.6" type="curve" smooth="yes"/>
      <point x="378.0" y="656.6"/>
      <point x="336.59999999999997" y="710.0"/>
      <point x="247.39999999999998" y="710.0" type="curve" smooth="yes"/>
      <point x="76.0" y="710.0"/>
      <point x="14.6" y="389.79999999999995"/>
      <point x="14.6" y="172.6" type="curve" smooth="yes"/>
      <point x="14.6" y="44.599999999999994"/>
      <point x="56.0" y="-10.0"/>
    </contour>
    <contour>
      <point x="160.4" y="115.39999999999999" type="curve" smooth="yes"/>
      <point x="141.0" y="115.39999999999999"/>
      <point x="132.39999999999998" y="128.79999999999998"/>
      <point x="133.0" y="170.2" type="curve" smooth="yes"/>
      <point x="133.6" y="280.40000000000003"/>
      <point x="179.39999999999998" y="584.6"/>
      <point x="234.2" y="584.6" type="curve" smooth="yes"/>
      <point x="252.8" y="584.6"/>
      <point x="261.0" y="571.2"/>
      <point x="260.4" y="531.0" type="curve" smooth="yes"/>
      <point x="259.8" y="424.0"/>
      <point x="212.8" y="115.39999999999999"/>
    </contour>
  </outline>
</glyph>
<glyph name="one" format="2">
  <advance width="369.0"/>
  <unicode hex="0031"/>
  <outline>
    <contour>
      <point x="13.0" y="0.0" type="line"/>
      <point x="287.4" y="0.0" type="line"/>
      <point x="306.5" y="118.0" type="line"/>
      <point x="232.0" y="118.0" type="line"/>
      <point x="325.3" y="700.0" type="line"/>
      <point x="266.0" y="700.0" type="line"/>
      <point x="96.4" y="629.0" type="line"/>
      <point x="99.4" y="495.3" type="line"/>
      <point x="180.6" y="536.2" type="line"/>
      <point x="112.9" y="118.0" type="line"/>
      <point x="31.4" y="118.0" type="line"/>
    </contour>
  </outline>
</glyph>
<glyph name="two" format="2">
  <advance width="369.0"/>
  <unicode hex="0032"/>
  <outline>
    <contour>
      <point x="19.199999999999996" y="96.79999999999998" type="curve"/>
      <point x="5.399999999999999" y="0.0" type="line"/>
      <point x="279.0" y="0.0" type="line"/>
      <point x="296.4" y="105.79999999999998" type="line"/>
      <point x="144.79999999999998" y="105.79999999999998" type="line"/>
      <point x="286.6" y="320.4"/>
      <point x="356.8" y="440.4"/>
      <point x="356.8" y="562.8" type="curve" smooth="yes"/>
      <point x="356.8" y="653.1999999999999"/>
      <point x="315.59999999999997" y="710.0"/>
      <point x="241.2" y="710.0" type="curve" smooth="yes"/>
      <point x="182.39999999999998" y="710.0"/>
      <point x="131.2" y="688.6"/>
      <point x="87.60000000000001" y="653.0" type="curve"/>
      <point x="111.4" y="529.5999999999999" type="line"/>
      <point x="137.0" y="550.2"/>
      <point x="160.2" y="563.8"/>
      <point x="188.0" y="563.8" type="curve" smooth="yes"/>
      <point x="215.4" y="563.8"/>
      <point x="227.60000000000002" y="541.4"/>
      <point x="227.60000000000002" y="512.5999999999999" type="curve" smooth="yes"/>
      <point x="227.6" y="431.6"/>
      <point x="149.0" y="300.4"/>
    </contour>
  </outline>
</glyph>
<glyph name="three" format="2">
  <advance width="369.0"/>
  <unicode hex="0033"/>
  <outline>
    <contour>
      <point x="-14.8" y="36.5" type="line"/>
      <point x="16.599999999999998" y="7.8"/>
      <point x="52.8" y="-10.0"/>
      <point x="111.5" y="-10.0" type="curve" smooth="yes"/>
      <point x="217.6" y="-10.0"/>
      <point x="314.5" y="80.2"/>
      <point x="314.5" y="234.1" type="curve" smooth="yes"/>
      <point x="314.5" y="315.7"/>
      <point x="282.5" y="351.5"/>
      <point x="254.39999999999998" y="369.6" type="curve"/>
      <point x="313.3" y="409.9"/>
      <point x="355.7" y="472.2"/>
      <point x="355.7" y="564.5" type="curve" smooth="yes"/>
      <point x="355.7" y="658.4"/>
      <point x="308.5" y="710.0"/>
      <point x="228.1" y="710.0" type="curve" smooth="yes"/>
      <point x="174.8" y="710.0"/>
      <point x="124.0" y="689.7"/>
      <point x="85.4" y="659.1" type="curve"/>
      <point x="106.9" y="555.9" type="line"/>
      <point x="123.3" y="567.9"/>
      <point x="146.0" y="576.9"/>
      <point x="174.9" y="576.9" type="curve" smooth="yes"/>
      <point x="207.3" y="576.9"/>
      <point x="229.6" y="551.0"/>
      <point x="229.6" y="508.3" type="curve" smooth="yes"/>
      <point x="229.6" y="456.8"/>
      <point x="196.6" y="407.4"/>
      <point x="158.3" y="407.4" type="curve" smooth="yes"/>
      <point x="122.2" y="407.4" type="line"/>
      <point x="105.9" y="308.2" type="line"/>
      <point x="149.6" y="308.2" type="line" smooth="yes"/>
      <point x="182.7" y="308.2"/>
      <point x="199.3" y="280.6"/>
      <point x="199.3" y="240.7" type="curve" smooth="yes"/>
      <point x="199.3" y="170.2"/>
      <point x="166.8" y="117.5"/>
      <point x="111.8" y="117.5" type="curve" smooth="yes"/>
      <point x="85.0" y="117.5"/>
      <point x="66.9" y="125.3"/>
      <point x="44.3" y="143.7" type="curve"/>
    </contour>
  </outline>
</glyph>
<glyph name="four" format="2">
  <advance width="369.0"/>
  <unicode hex="0034"/>
  <outline>
    <contour>
      <point x="2.200000000000001" y="114.30000000000001" type="line"/>
      <point x="144.9" y="114.30000000000001" type="line"/>
      <point x="126.8" y="0.0" type="line"/>
      <point x="251.5" y="0.0" type="line"/>
      <point x="269.6" y="114.30000000000001" type="line"/>
      <point x="317.6" y="114.30000000000001" type="line"/>
      <point x="334.6" y="223.2" type="line"/>
      <point x="287.3" y="223.2" type="line"/>
      <point x="363.6" y="699.7" type="line"/>
      <point x="222.5" y="701.2" type="line"/>
      <point x="17.4" y="222.3" type="line"/>
    </contour>
    <contour>
      <point x="89.9" y="223.2" type="line"/>
      <point x="216.7" y="521.8" type="line"/>
      <point x="168.2" y="223.2" type="line"/>
    </contour>
  </outline>
</glyph>
<glyph name="five" format="2">
  <advance width="369.0"/>
  <unicode hex="0035"/>
  <outline>
    <contour>
      <point x="-11.8" y="31.7" type="line"/>
      <point x="18.2" y="4.2"/>
      <point x="54.7" y="-10.0"/>
      <point x="111.9" y="-10.0" type="curve" smooth="yes"/>
      <point x="263.7" y="-10.0"/>
      <point x="326.5" y="143.3"/>
      <point x="326.5" y="272.7" type="curve" smooth="yes"/>
      <point x="326.5" y="369.8"/>
      <point x="286.5" y="412.6"/>
      <point x="223.89999999999998" y="416.8" type="curve" smooth="yes"/>
      <point x="193.89999999999998" y="418.2" type="line"/>
      <point x="229.39999999999998" y="572.9" type="line"/>
      <point x="358.8" y="572.9" type="line"/>
      <point x="377.9" y="700.0" type="line"/>
      <point x="152.8" y="700.0" type="line"/>
      <point x="63.0" y="316.1" type="line"/>
      <point x="69.2" y="303.7" type="line"/>
      <point x="140.0" y="303.7" type="line" smooth="yes"/>
      <point x="181.6" y="303.7"/>
      <point x="199.0" y="282.3"/>
      <point x="199.0" y="234.7" type="curve" smooth="yes"/>
      <point x="199.0" y="190.0"/>
      <point x="177.0" y="118.19999999999999"/>
      <point x="107.5" y="118.19999999999999" type="curve" smooth="yes"/>
      <point x="73.69999999999999" y="118.19999999999999"/>
      <point x="51.199999999999996" y="129.8"/>
      <point x="33.199999999999996" y="143.8" type="curve"/>
    </contour>
  </outline>
</glyph>
<glyph name="six" format="2">
  <advance width="369.0"/>
  <unicode hex="0036"/>
  <note>
14
</note>
  <outline>
    <contour>
      <point x="155.39999999999998" y="-10.0" type="curve" smooth="yes"/>
      <point x="273.59999999999997" y="-10.0"/>
      <point x="343.2" y="125.39999999999999"/>
      <point x="343.2" y="311.2" type="curve" smooth="yes"/>
      <point x="343.2" y="407.59999999999997"/>
      <point x="299.6" y="444.6"/>
      <point x="249.0" y="444.6" type="curve" smooth="yes"/>
      <point x="209.0" y="444.6"/>
      <point x="180.59999999999997" y="428.6"/>
      <point x="149.8" y="390.59999999999997" type="curve"/>
      <point x="137.8" y="272.0" type="line"/>
      <point x="153.8" y="312.4"/>
      <point x="172.2" y="337.4"/>
      <point x="193.39999999999998" y="337.4" type="curve" smooth="yes"/>
      <point x="214.6" y="337.4"/>
      <point x="223.39999999999998" y="318.40000000000003"/>
      <point x="223.39999999999998" y="274.59999999999997" type="curve" smooth="yes"/>
      <point x="223.39999999999998" y="196.6"/>
      <point x="195.6" y="104.6"/>
      <point x="163.39999999999998" y="104.6" type="curve" smooth="yes"/>
      <point x="146.0" y="104.6"/>
      <point x="137.2" y="120.6"/>
      <point x="137.2" y="153.20000000000002" type="curve" smooth="yes"/>
      <point x="137.2" y="233.00000000000003"/>
      <point x="153.0" y="322.8"/>
      <point x="177.0" y="442.0" type="curve" smooth="yes"/>
      <point x="196.39999999999998" y="536.4000000000001"/>
      <point x="229.39999999999998" y="588.4000000000001"/>
      <point x="294.2" y="588.4000000000001" type="curve" smooth="yes"/>
      <point x="317.59999999999997" y="588.4000000000001"/>
      <point x="335.0" y="578.0"/>
      <point x="351.79999999999995" y="565.8" type="curve"/>
      <point x="404.0" y="673.6" type="line"/>
      <point x="386.0" y="690.8000000000001"/>
      <point x="344.2" y="710.0"/>
      <point x="294.59999999999997" y="710.0" type="curve" smooth="yes"/>
      <point x="109.0" y="710.0"/>
      <point x="21.2" y="451.2"/>
      <point x="21.2" y="171.2" type="curve" smooth="yes"/>
      <point x="21.2" y="38.8"/>
      <point x="67.6" y="-10.0"/>
    </contour>
  </outline>
</glyph>
<glyph name="seven" format="2">
  <advance width="369.0"/>
  <unicode hex="0037"/>
  <note>
9
</note>
  <outline>
    <contour>
      <point x="46.3" y="0.0" type="curve"/>
      <point x="173.1" y="0.0" type="line"/>
      <point x="193.89999999999998" y="121.3"/>
      <point x="218.6" y="209.7"/>
      <point x="291.7" y="381.7" type="curve" smooth="yes"/>
      <point x="387.1" y="605.3" type="line"/>
      <point x="402.0" y="700.0" type="line"/>
      <point x="101.9" y="700.0" type="line"/>
      <point x="82.1" y="575.7" type="line"/>
      <point x="255.5" y="575.7" type="line"/>
      <point x="170.4" y="393.1" type="line" smooth="yes"/>
      <point x="102.6" y="247.7"/>
      <point x="68.3" y="136.5"/>
    </contour>
  </outline>
</glyph>
<glyph name="eight" format="2">
  <advance width="369.0"/>
  <unicode hex="0038"/>
  <outline>
    <contour>
      <point x="157.6" y="-10.0" type="curve" smooth="yes"/>
      <point x="268.59999999999997" y="-10.0"/>
      <point x="335.79999999999995" y="65.00000000000001"/>
      <point x="335.79999999999995" y="202.4" type="curve" smooth="yes"/>
      <point x="335.79999999999995" y="376.2"/>
      <point x="183.4" y="413.4"/>
      <point x="183.4" y="528.4" type="curve" smooth="yes"/>
      <point x="183.4" y="566.5999999999999"/>
      <point x="199.0" y="594.0"/>
      <point x="230.8" y="594.0" type="curve" smooth="yes"/>
      <point x="255.8" y="594.0"/>
      <point x="267.0" y="573.0"/>
      <point x="267.0" y="536.6" type="curve" smooth="yes"/>
      <point x="267.0" y="482.0"/>
      <point x="235.8" y="443.6"/>
      <point x="204.8" y="417.0" type="curve"/>
      <point x="258.4" y="356.8" type="line"/>
      <point x="325.6" y="402.0"/>
      <point x="378.4" y="473.8"/>
      <point x="378.4" y="568.1999999999999" type="curve" smooth="yes"/>
      <point x="378.4" y="646.0"/>
      <point x="339.2" y="710.0"/>
      <point x="235.6" y="710.0" type="curve" smooth="yes"/>
      <point x="117.60000000000001" y="710.0"/>
      <point x="65.8" y="626.1999999999999"/>
      <point x="65.8" y="517.6" type="curve" smooth="yes"/>
      <point x="65.8" y="332.40000000000003"/>
      <point x="217.0" y="307.8"/>
      <point x="217.0" y="185.6" type="curve" smooth="yes"/>
      <point x="217.0" y="133.0"/>
      <point x="197.0" y="101.4"/>
      <point x="163.39999999999998" y="101.4" type="curve" smooth="yes"/>
      <point x="135.2" y="101.4"/>
      <point x="121.19999999999999" y="122.6"/>
      <point x="121.19999999999999" y="160.2" type="curve" smooth="yes"/>
      <point x="121.19999999999999" y="229.6"/>
      <point x="150.0" y="276.0"/>
      <point x="188.6" y="299.40000000000003" type="curve"/>
      <point x="131.6" y="369.0" type="line"/>
      <point x="48.6" y="334.2"/>
      <point x="0.39999999999999947" y="240.20000000000002"/>
      <point x="0.39999999999999947" y="144.0" type="curve" smooth="yes"/>
      <point x="0.39999999999999947" y="53.599999999999994"/>
      <point x="42.0" y="-10.0"/>
    </contour>
  </outline>
</glyph>
<glyph name="nine" format="2">
  <advance width="369.0"/>
  <unicode hex="0039"/>
  <outline>
    <contour>
      <point x="239.39999999999998" y="710.0" type="curve" smooth="yes"/>
      <point x="121.2" y="710.0"/>
      <point x="51.0" y="574.6"/>
      <point x="51.0" y="388.8" type="curve" smooth="yes"/>
      <point x="51.0" y="292.40000000000003"/>
      <point x="92.8" y="256.0"/>
      <point x="142.79999999999998" y="256.0" type="curve" smooth="yes"/>
      <point x="183.4" y="256.0"/>
      <point x="214.20000000000002" y="269.6"/>
      <point x="244.4" y="315.40000000000003" type="curve"/>
      <point x="256.4" y="428.6" type="line"/>
      <point x="241.0" y="388.2"/>
      <point x="222.0" y="363.2"/>
      <point x="200.79999999999998" y="363.2" type="curve" smooth="yes"/>
      <point x="180.2" y="363.2"/>
      <point x="171.39999999999998" y="381.59999999999997"/>
      <point x="171.39999999999998" y="425.40000000000003" type="curve" smooth="yes"/>
      <point x="171.39999999999998" y="504.0"/>
      <point x="199.2" y="595.4000000000001"/>
      <point x="230.39999999999998" y="595.4000000000001" type="curve" smooth="yes"/>
      <point x="246.39999999999998" y="595.4000000000001"/>
      <point x="256.6" y="579.0"/>
      <point x="256.6" y="548.1999999999999" type="curve" smooth="yes"/>
      <point x="256.6" y="480.59999999999997"/>
      <point x="241.8" y="377.8"/>
      <point x="217.20000000000002" y="258.0" type="curve" smooth="yes"/>
      <point x="198.39999999999998" y="163.6"/>
      <point x="167.2" y="111.19999999999999"/>
      <point x="103.6" y="111.19999999999999" type="curve" smooth="yes"/>
      <point x="80.8" y="111.19999999999999"/>
      <point x="59.8" y="122.0"/>
      <point x="42.39999999999999" y="137.8" type="curve"/>
      <point x="-9.8" y="29.400000000000002" type="line"/>
      <point x="9.8" y="9.2"/>
      <point x="55.599999999999994" y="-10.0"/>
      <point x="108.39999999999999" y="-10.0" type="curve" smooth="yes"/>
      <point x="286.4" y="-10.0"/>
      <point x="372.59999999999997" y="248.79999999999998"/>
      <point x="372.59999999999997" y="529.4000000000001" type="curve" smooth="yes"/>
      <point x="372.59999999999997" y="661.8"/>
      <point x="326.59999999999997" y="710.0"/>
    </contour>
  </outline>
</glyph>
<glyph name="less" format="2">
  <advance width="369.7"/>
  <unicode hex="003C"/>
  <outline>
    <contour>
      <point x="316.1" y="102.3" type="line"/>
      <point x="332.4" y="208.3" type="line"/>
      <point x="139.6" y="305.1" type="line"/>
      <point x="363.5" y="402.9" type="line"/>
      <point x="379.8" y="508.8" type="line"/>
      <point x="40.8" y="364.6" type="line"/>
      <point x="22.1" y="246.8" type="line"/>
    </contour>
  </outline>
</glyph>
<glyph name="equal" format="2">
  <advance width="343.8"/>
  <unicode hex="003D"/>
  <outline>
    <contour>
      <point x="298.1" y="255.8" type="line"/>
      <point x="40.3" y="255.8" type="line"/>
      <point x="23.3" y="137.8" type="line"/>
      <point x="281.1" y="137.8" type="line"/>
    </contour>
    <contour>
      <point x="329.4" y="474.0" type="line"/>
      <point x="72.3" y="474.0" type="line"/>
      <point x="54.6" y="356.0" type="line"/>
      <point x="312.4" y="356.0" type="line"/>
    </contour>
  </outline>
</glyph>
<glyph name="greater" format="2">
  <advance width="369.7"/>
  <unicode hex="003E"/>
  <outline>
    <contour>
      <point x="338.4" y="245.9" type="line"/>
      <point x="357.1" y="363.7" type="line"/>
      <point x="63.5" y="508.2" type="line"/>
      <point x="47.2" y="402.9" type="line"/>
      <point x="241.0" y="305.4" type="line"/>
      <point x="16.4" y="208.6" type="line"/>
      <point x="-0.1999999999999993" y="101.7" type="line"/>
    </contour>
  </outline>
</glyph>
<glyph name="question" format="2">
  <advance width="313.59999999999997"/>
  <unicode hex="003F"/>
  <outline>
    <contour>
      <point x="82.80000000000001" y="260.8" type="line"/>
      <point x="188.0" y="260.8" type="line"/>
      <point x="200.0" y="335.0" type="line"/>
      <point x="285.8" y="393.40000000000003"/>
      <point x="349.0" y="479.4"/>
      <point x="349.0" y="594.1999999999999" type="curve" smooth="yes"/>
      <point x="349.0" y="693.8000000000001"/>
      <point x="301.0" y="750.0"/>
      <point x="215.20000000000002" y="750.0" type="curve" smooth="yes"/>
      <point x="164.8" y="750.0"/>
      <point x="112.6" y="730.4"/>
      <point x="74.2" y="695.6" type="curve"/>
      <point x="101.4" y="577.2" type="line"/>
      <point x="126.4" y="599.4000000000001"/>
      <point x="146.4" y="611.6"/>
      <point x="167.39999999999998" y="611.6" type="curve" smooth="yes"/>
      <point x="195.20000000000002" y="611.6"/>
      <point x="212.8" y="594.6"/>
      <point x="212.8" y="556.0" type="curve" smooth="yes"/>
      <point x="212.8" y="483.4"/>
      <point x="163.6" y="436.8"/>
      <point x="101.8" y="392.6" type="curve"/>
    </contour>
    <contour>
      <point x="39.199999999999996" y="48.8" type="curve" smooth="yes"/>
      <point x="39.2" y="10.8"/>
      <point x="54.599999999999994" y="-7.0"/>
      <point x="92.2" y="-7.0" type="curve" smooth="yes"/>
      <point x="156.8" y="-7.0"/>
      <point x="175.2" y="57.0"/>
      <point x="175.2" y="109.8" type="curve" smooth="yes"/>
      <point x="175.2" y="149.2"/>
      <point x="159.6" y="167.39999999999998"/>
      <point x="122.6" y="167.39999999999998" type="curve" smooth="yes"/>
      <point x="58.199999999999996" y="167.39999999999998"/>
      <point x="39.2" y="102.6"/>
    </contour>
  </outline>
</glyph>
<glyph name="at" format="2">
  <advance width="649.4"/>
  <unicode hex="0040"/>
  <outline>
    <contour>
      <point x="273.59999999999997" y="-124.0" type="curve" smooth="yes"/>
      <point x="317.59999999999997" y="-124.0"/>
      <point x="385.0" y="-105.6"/>
      <point x="421.79999999999995" y="-76.6" type="curve"/>
      <point x="405.4" y="-27.6" type="line"/>
      <point x="364.8" y="-51.0"/>
      <point x="319.6" y="-64.20000000000002"/>
      <point x="274.6" y="-64.20000000000002" type="curve" smooth="yes"/>
      <point x="162.0" y="-64.20000000000002"/>
      <point x="77.4" y="0.1999999999999993"/>
      <point x="77.4" y="171.2" type="curve" smooth="yes"/>
      <point x="77.4" y="393.2"/>
      <point x="192.8" y="651.0"/>
      <point x="390.8" y="651.0" type="curve" smooth="yes"/>
      <point x="518.8000000000001" y="651.0"/>
      <point x="584.4" y="584.8"/>
      <point x="584.4" y="432.4" type="curve" smooth="yes"/>
      <point x="584.4" y="324.2"/>
      <point x="555.4" y="132.8"/>
      <point x="477.79999999999995" y="132.8" type="curve" smooth="yes"/>
      <point x="436.20000000000005" y="132.8"/>
      <point x="436.0" y="176.8"/>
      <point x="447.2" y="222.0" type="curve" smooth="yes"/>
      <point x="522.2" y="523.6" type="line"/>
      <point x="480.4" y="545.4"/>
      <point x="437.8" y="558.1999999999999"/>
      <point x="382.2" y="558.1999999999999" type="curve" smooth="yes"/>
      <point x="227.4" y="558.1999999999999"/>
      <point x="151.0" y="313.6"/>
      <point x="151.0" y="160.0" type="curve" smooth="yes"/>
      <point x="151.0" y="85.6"/>
      <point x="183.4" y="49.2"/>
      <point x="234.59999999999997" y="49.2" type="curve" smooth="yes"/>
      <point x="278.6" y="49.2"/>
      <point x="313.8" y="81.6"/>
      <point x="345.0" y="126.2" type="curve"/>
      <point x="360.8" y="85.0"/>
      <point x="386.4" y="46.4"/>
      <point x="450.79999999999995" y="46.4" type="curve" smooth="yes"/>
      <point x="586.0" y="46.4"/>
      <point x="647.6" y="270.20000000000005"/>
      <point x="647.6" y="444.40000000000003" type="curve" smooth="yes"/>
      <point x="647.6" y="619.4"/>
      <point x="543.5999999999999" y="710.0"/>
      <point x="403.4" y="710.0" type="curve" smooth="yes"/>
      <point x="152.39999999999998" y="710.0"/>
      <point x="12.8" y="434.4"/>
      <point x="12.8" y="155.8" type="curve" smooth="yes"/>
      <point x="12.8" y="-22.600000000000005"/>
      <point x="107.6" y="-124.0"/>
    </contour>
    <contour>
      <point x="296.0" y="169.8" type="curve" smooth="yes"/>
      <point x="284.0" y="169.8"/>
      <point x="276.79999999999995" y="180.4"/>
      <point x="276.79999999999995" y="199.2" type="curve" smooth="yes"/>
      <point x="276.79999999999995" y="271.6"/>
      <point x="332.79999999999995" y="462.4"/>
      <point x="373.79999999999995" y="462.4" type="curve" smooth="yes"/>
      <point x="382.2" y="462.4"/>
      <point x="389.79999999999995" y="460.40000000000003"/>
      <point x="396.8" y="456.2" type="curve"/>
      <point x="338.4" y="221.4" type="line" smooth="yes"/>
      <point x="327.2" y="188.8"/>
      <point x="310.2" y="169.8"/>
    </contour>
  </outline>
</glyph>
<glyph name="A" format="2">
  <advance width="373.3"/>
  <unicode hex="0041"/>
  <anchor x="142.1" y="0.0" name="bottom"/>
  <anchor x="321.9" y="0.0" name="ogonek"/>
  <anchor x="247.2" y="700.0" name="top"/>
  <outline>
    <contour>
      <point x="-36.6" y="0.0" type="line"/>
      <point x="86.69999999999999" y="0.0" type="line"/>
      <point x="122.8" y="133.5" type="line"/>
      <point x="203.5" y="133.5" type="line"/>
      <point x="197.2" y="0.0" type="line"/>
      <point x="321.9" y="0.0" type="line"/>
      <point x="342.2" y="703.0" type="line"/>
      <point x="155.8" y="703.0" type="line"/>
    </contour>
    <contour>
      <point x="149.8" y="251.2" type="line"/>
      <point x="233.6" y="597.4" type="line"/>
      <point x="214.7" y="251.2" type="line"/>
    </contour>
  </outline>
</glyph>
<glyph name="B" format="2">
  <advance width="355.9"/>
  <unicode hex="0042"/>
  <outline>
    <contour>
      <point x="-13.899999999999999" y="1.6999999999999993" type="line"/>
      <point x="41.0" y="-6.9"/>
      <point x="70.1" y="-10.0"/>
      <point x="124.39999999999999" y="-10.0" type="curve" smooth="yes"/>
      <point x="282.1" y="-10.0"/>
      <point x="336.5" y="127.3"/>
      <point x="336.5" y="252.8" type="curve" smooth="yes"/>
      <point x="336.5" y="314.4"/>
      <point x="317.2" y="359.1"/>
      <point x="284.2" y="378.4" type="curve"/>
      <point x="346.1" y="416.4"/>
      <point x="372.6" y="498.5"/>
      <point x="372.6" y="569.6" type="curve" smooth="yes"/>
      <point x="372.6" y="655.1"/>
      <point x="328.6" y="710.0"/>
      <point x="230.5" y="710.0" type="curve" smooth="yes"/>
      <point x="205.5" y="710.0"/>
      <point x="157.5" y="707.3"/>
      <point x="95.3" y="697.7" type="curve"/>
    </contour>
    <contour>
      <point x="168.39999999999998" y="406.0" type="line"/>
      <point x="197.7" y="593.5" type="line"/>
      <point x="206.7" y="595.8"/>
      <point x="214.7" y="597.5"/>
      <point x="223.5" y="597.5" type="curve" smooth="yes"/>
      <point x="247.1" y="597.5"/>
      <point x="259.8" y="581.8"/>
      <point x="259.8" y="537.8" type="curve" smooth="yes"/>
      <point x="259.8" y="466.9"/>
      <point x="231.2" y="406.0"/>
      <point x="188.7" y="406.0" type="curve" smooth="yes"/>
    </contour>
    <contour>
      <point x="151.39999999999998" y="297.4" type="line"/>
      <point x="179.1" y="297.4" type="line" smooth="yes"/>
      <point x="203.2" y="297.4"/>
      <point x="218.8" y="276.3"/>
      <point x="218.8" y="235.8" type="curve" smooth="yes"/>
      <point x="218.8" y="160.7"/>
      <point x="194.0" y="102.8"/>
      <point x="144.3" y="102.8" type="curve" smooth="yes"/>
      <point x="138.3" y="102.8"/>
      <point x="131.2" y="103.1"/>
      <point x="120.8" y="105.8" type="curve"/>
    </contour>
  </outline>
</glyph>
<glyph name="C" format="2">
  <advance width="306.2"/>
  <unicode hex="0043"/>
  <anchor x="154.5" y="0.0" name="bottom"/>
  <anchor x="267.1" y="700.0" name="top"/>
  <outline>
    <contour>
      <point x="183.2" y="-10.0" type="curve" smooth="yes"/>
      <point x="213.9" y="-10.0"/>
      <point x="238.9" y="-7.0"/>
      <point x="261.7" y="2.1999999999999993" type="curve"/>
      <point x="257.4" y="113.0" type="line"/>
      <point x="243.7" y="109.0"/>
      <point x="226.3" y="106.3"/>
      <point x="212.89999999999998" y="106.3" type="curve" smooth="yes"/>
      <point x="163.6" y="106.3"/>
      <point x="138.39999999999998" y="133.0"/>
      <point x="138.39999999999998" y="223.0" type="curve" smooth="yes"/>
      <point x="138.39999999999998" y="420.5"/>
      <point x="191.8" y="593.7"/>
      <point x="280.4" y="593.7" type="curve" smooth="yes"/>
      <point x="297.1" y="593.7"/>
      <point x="308.9" y="590.7"/>
      <point x="327.5" y="583.3" type="curve"/>
      <point x="366.0" y="688.1" type="line"/>
      <point x="342.9" y="702.8"/>
      <point x="308.2" y="710.0"/>
      <point x="273.6" y="710.0" type="curve" smooth="yes"/>
      <point x="117.2" y="710.0"/>
      <point x="17.200000000000003" y="503.0"/>
      <point x="17.200000000000003" y="200.3" type="curve" smooth="yes"/>
      <point x="17.200000000000003" y="56.7"/>
      <point x="76.2" y="-10.0"/>
    </contour>
  </outline>
</glyph>
<glyph name="D" format="2">
  <advance width="372.9"/>
  <unicode hex="0044"/>
  <anchor x="136.5" y="0.0" name="bottom"/>
  <anchor x="198.1153" y="350.0" name="center"/>
  <anchor x="233.1" y="700.0" name="top"/>
  <outline>
    <contour>
      <point x="119.1" y="-10.0" type="curve" smooth="yes"/>
      <point x="290.2" y="-10.0"/>
      <point x="376.1" y="198.4"/>
      <point x="376.1" y="477.7" type="curve" smooth="yes"/>
      <point x="376.1" y="645.3"/>
      <point x="320.2" y="710.0"/>
      <point x="206.6" y="710.0" type="curve" smooth="yes"/>
      <point x="169.6" y="710.0"/>
      <point x="137.7" y="707.6"/>
      <point x="95.3" y="700.7" type="curve"/>
      <point x="-15.299999999999999" y="1.6999999999999993" type="line"/>
      <point x="25.4" y="-6.2"/>
      <point x="70.9" y="-10.0"/>
    </contour>
    <contour>
      <point x="137.89999999999998" y="99.39999999999999" type="curve" smooth="yes"/>
      <point x="130.5" y="99.39999999999999"/>
      <point x="124.69999999999999" y="100.39999999999999"/>
      <point x="119.1" y="101.69999999999999" type="curve"/>
      <point x="197.0" y="591.3" type="line"/>
      <point x="203.7" y="592.3"/>
      <point x="208.5" y="593.0"/>
      <point x="214.3" y="593.0" type="curve" smooth="yes"/>
      <point x="246.9" y="593.0"/>
      <point x="257.0" y="563.4"/>
      <point x="257.0" y="478.5" type="curve" smooth="yes"/>
      <point x="257.0" y="312.3"/>
      <point x="199.7" y="99.39999999999999"/>
    </contour>
  </outline>
</glyph>
<glyph name="E" format="2">
  <advance width="302.5"/>
  <unicode hex="0045"/>
  <anchor x="118.0" y="0.0" name="bottom"/>
  <anchor x="248.2" y="0.0" name="ogonek"/>
  <anchor x="225.8" y="700.0" name="top"/>
  <anchor x="86.6191" y="700.0" name="topleft"/>
  <outline>
    <contour>
      <point x="-15.0" y="0.0" type="line"/>
      <point x="248.2" y="0.0" type="line"/>
      <point x="266.6" y="116.3" type="line"/>
      <point x="121.8" y="116.3" type="line"/>
      <point x="150.3" y="298.0" type="line"/>
      <point x="266.5" y="298.0" type="line"/>
      <point x="284.9" y="407.3" type="line"/>
      <point x="168.0" y="407.3" type="line"/>
      <point x="195.0" y="580.2" type="line"/>
      <point x="330.8" y="580.2" type="line"/>
      <point x="350.9" y="700.0" type="line"/>
      <point x="95.0" y="700.0" type="line"/>
    </contour>
  </outline>
</glyph>
<glyph name="F" format="2">
  <advance width="292.1"/>
  <unicode hex="0046"/>
  <outline>
    <contour>
      <point x="-15.7" y="0.0" type="line"/>
      <point x="103.1" y="0.0" type="line"/>
      <point x="144.39999999999998" y="257.6" type="line"/>
      <point x="253.8" y="257.6" type="line"/>
      <point x="272.9" y="377.4" type="line"/>
      <point x="162.8" y="377.4" type="line"/>
      <point x="195.0" y="580.2" type="line"/>
      <point x="329.7" y="580.2" type="line"/>
      <point x="349.5" y="700.0" type="line"/>
      <point x="95.0" y="700.0" type="line"/>
    </contour>
  </outline>
</glyph>
<glyph name="G" format="2">
  <advance width="348.3"/>
  <unicode hex="0047"/>
  <anchor x="177.1" y="0.0" name="bottom"/>
  <anchor x="271.4" y="700.0" name="top"/>
  <outline>
    <contour>
      <point x="181.2" y="-10.0" type="curve" smooth="yes"/>
      <point x="215.39999999999998" y="-10.0"/>
      <point x="260.0" y="-2.1000000000000005"/>
      <point x="288.8" y="20.099999999999998" type="curve"/>
      <point x="347.7" y="392.2" type="line"/>
      <point x="196.9" y="392.2" type="line"/>
      <point x="180.6" y="287.8" type="line"/>
      <point x="225.6" y="287.8" type="line"/>
      <point x="196.2" y="103.69999999999999" type="line"/>
      <point x="192.7" y="101.69999999999999"/>
      <point x="183.4" y="100.69999999999999"/>
      <point x="177.2" y="100.69999999999999" type="curve" smooth="yes"/>
      <point x="146.8" y="100.69999999999999"/>
      <point x="132.1" y="124.6"/>
      <point x="132.1" y="207.6" type="curve" smooth="yes"/>
      <point x="132.1" y="400.9"/>
      <point x="184.1" y="593.0"/>
      <point x="275.5" y="593.0" type="curve" smooth="yes"/>
      <point x="303.4" y="593.0"/>
      <point x="326.4" y="583.7"/>
      <point x="344.3" y="577.0" type="curve"/>
      <point x="381.4" y="686.7" type="line"/>
      <point x="350.2" y="702.9"/>
      <point x="311.0" y="710.0"/>
      <point x="272.9" y="710.0" type="curve" smooth="yes"/>
      <point x="86.1" y="710.0"/>
      <point x="16.5" y="432.3"/>
      <point x="16.5" y="201.0" type="curve" smooth="yes"/>
      <point x="16.5" y="59.5"/>
      <point x="76.9" y="-10.0"/>
    </contour>
  </outline>
</glyph>
<glyph name="H" format="2">
  <advance width="372.7"/>
  <unicode hex="0048"/>
  <anchor x="142.81079999999997" y="0.0" name="bottom"/>
  <anchor x="198.4153" y="350.0" name="center"/>
  <anchor x="253.7191" y="700.0" name="top"/>
  <anchor x="86.6191" y="700.0" name="topleft"/>
  <outline>
    <contour>
      <point x="-15.7" y="0.0" type="line"/>
      <point x="103.69999999999999" y="0.0" type="line"/>
      <point x="144.1" y="257.4" type="line"/>
      <point x="222.0" y="257.4" type="line"/>
      <point x="182.3" y="0.0" type="line"/>
      <point x="300.7" y="0.0" type="line"/>
      <point x="411.7" y="700.0" type="line"/>
      <point x="292.6" y="700.0" type="line"/>
      <point x="240.4" y="371.6" type="line"/>
      <point x="162.2" y="371.6" type="line"/>
      <point x="214.39999999999998" y="700.0" type="line"/>
      <point x="95.0" y="700.0" type="line"/>
    </contour>
  </outline>
</glyph>
<glyph name="I" format="2">
  <advance width="175.39999999999998"/>
  <unicode hex="0049"/>
  <anchor x="44.010799999999996" y="0.0" name="bottom"/>
  <anchor x="105.51959999999998" y="7.0" name="ogonek"/>
  <anchor x="154.9191" y="700.0" name="top"/>
  <anchor x="86.6191" y="700.0" name="topleft"/>
  <outline>
    <contour>
      <point x="-15.7" y="0.0" type="line"/>
      <point x="103.39999999999999" y="0.0" type="line"/>
      <point x="214.39999999999998" y="700.0" type="line"/>
      <point x="95.0" y="700.0" type="line"/>
    </contour>
  </outline>
</glyph>
<glyph name="J" format="2">
  <advance width="259.4"/>
  <unicode hex="004A"/>
  <anchor x="71.8108" y="0.0" name="bottom"/>
  <anchor x="200.4" y="700.0" name="top"/>
  <outline>
    <contour>
      <point x="-39.0" y="15.899999999999999" type="line"/>
      <point x="-15.4" y="1.799999999999999"/>
      <point x="15.0" y="-10.0"/>
      <point x="59.099999999999994" y="-10.0" type="curve" smooth="yes"/>
      <point x="145.4" y="-10.0"/>
      <point x="198.1" y="54.9"/>
      <point x="216.5" y="168.9" type="curve" smooth="yes"/>
      <point x="300.7" y="700.0" type="line"/>
      <point x="97.1" y="700.0" type="line"/>
      <point x="79.4" y="589.3" type="line"/>
      <point x="163.9" y="589.3" type="line"/>
      <point x="104.8" y="219.1" type="line" smooth="yes"/>
      <point x="91.7" y="137.8"/>
      <point x="72.0" y="118.89999999999999"/>
      <point x="34.5" y="118.89999999999999" type="curve" smooth="yes"/>
      <point x="24.0" y="118.89999999999999"/>
      <point x="6.899999999999999" y="123.3"/>
      <point x="-5.300000000000001" y="128.3" type="curve"/>
    </contour>
  </outline>
</glyph>
<glyph name="K" format="2">
  <advance width="374.79999999999995"/>
  <unicode hex="004B"/>
  <anchor x="162.2" y="0.0" name="bottom"/>
  <anchor x="253.2" y="700.0" name="top"/>
  <outline>
    <contour>
      <point x="-16.0" y="0.0" type="line"/>
      <point x="103.4" y="0.0" type="line"/>
      <point x="214.4" y="700.0" type="line"/>
      <point x="95.0" y="700.0" type="line"/>
    </contour>
    <contour>
      <point x="281.4" y="-10.0" type="curve" smooth="yes"/>
      <point x="297.59999999999997" y="-10.0"/>
      <point x="320.8" y="-3.4"/>
      <point x="328.59999999999997" y="0.5999999999999996" type="curve"/>
      <point x="341.59999999999997" y="151.39999999999998" type="line"/>
      <point x="338.2" y="151.4"/>
      <point x="334.2" y="150.8"/>
      <point x="330.2" y="150.8" type="curve" smooth="yes"/>
      <point x="311.79999999999995" y="150.8"/>
      <point x="288.59999999999997" y="162.39999999999998"/>
      <point x="266.2" y="216.6" type="curve" smooth="yes"/>
      <point x="159.0" y="476.4" type="line"/>
      <point x="127.80000000000001" y="279.4" type="line"/>
      <point x="202.0" y="74.2" type="line" smooth="yes"/>
      <point x="224.0" y="13.0"/>
      <point x="242.8" y="-10.0"/>
    </contour>
    <contour>
      <point x="219.59999999999997" y="275.0" type="line"/>
      <point x="311.4" y="379.8"/>
      <point x="390.79999999999995" y="514.1999999999999"/>
      <point x="427.0" y="672.1999999999999" type="curve"/>
      <point x="321.8" y="703.0" type="line"/>
      <point x="285.20000000000005" y="567.0"/>
      <point x="228.79999999999998" y="449.79999999999995"/>
      <point x="175.0" y="385.2" type="curve"/>
    </contour>
  </outline>
</glyph>
<glyph name="L" format="2">
  <advance width="282.9"/>
  <unicode hex="004C"/>
  <anchor x="116.3" y="0.0" name="bottom"/>
  <anchor x="149.9153" y="350.0" name="center"/>
  <anchor x="154.4" y="700.0" name="top"/>
  <anchor x="254.8" y="700.0" name="topright"/>
  <outline>
    <contour>
      <point x="-16.0" y="0.0" type="line"/>
      <point x="230.1" y="0.0" type="line"/>
      <point x="248.5" y="116.3" type="line"/>
      <point x="121.5" y="116.3" type="line"/>
      <point x="214.1" y="700.0" type="line"/>
      <point x="95.0" y="700.0" type="line"/>
    </contour>
  </outline>
</glyph>
<glyph name="M" format="2">
  <advance width="445.1"/>
  <unicode hex="004D"/>
  <outline>
    <contour>
      <point x="-15.7" y="0.0" type="line"/>
      <point x="92.19999999999999" y="0.0" type="line"/>
      <point x="164.1" y="460.6" type="line"/>
      <point x="175.5" y="174.10000000000002" type="line"/>
      <point x="233.2" y="174.10000000000002" type="line"/>
      <point x="337.0" y="457.0" type="line"/>
      <point x="264.5" y="0.0" type="line"/>
      <point x="373.1" y="0.0" type="line"/>
      <point x="484.1" y="700.0" type="line"/>
      <point x="350.3" y="700.0" type="line"/>
      <point x="235.3" y="385.3" type="line"/>
      <point x="219.7" y="700.0" type="line"/>
      <point x="95.0" y="700.0" type="line"/>
    </contour>
  </outline>
</glyph>
<glyph name="N" format="2">
  <advance width="383.7"/>
  <unicode hex="004E"/>
  <anchor x="155.1" y="0.0" name="bottom"/>
  <anchor x="259.2" y="700.0" name="top"/>
  <outline>
    <contour>
      <point x="-15.7" y="0.0" type="line"/>
      <point x="91.5" y="0.0" type="line"/>
      <point x="155.0" y="397.8" type="line"/>
      <point x="191.0" y="0.0" type="line"/>
      <point x="311.7" y="0.0" type="line"/>
      <point x="422.7" y="700.0" type="line"/>
      <point x="315.5" y="700.0" type="line"/>
      <point x="247.4" y="278.6" type="line"/>
      <point x="216.3" y="700.0" type="line"/>
      <point x="95.0" y="700.0" type="line"/>
    </contour>
  </outline>
</glyph>
<glyph name="O" format="2">
  <advance width="381.59999999999997"/>
  <unicode hex="004F"/>
  <note>
8
</note>
  <anchor x="147.6" y="0.0" name="bottom"/>
  <anchor x="202.6" y="350.0" name="center"/>
  <anchor x="208.99999999999997" y="2.4" name="ogonek"/>
  <anchor x="259.0" y="700.0" name="top"/>
  <anchor x="88.6" y="700.0" name="topleft"/>
  <anchor x="342.0" y="700.0" name="topright"/>
  <outline>
    <contour>
      <point x="157.0" y="-10.0" type="curve" smooth="yes"/>
      <point x="338.19999999999993" y="-10.0"/>
      <point x="390.8" y="325.8"/>
      <point x="390.8" y="525.6" type="curve" smooth="yes"/>
      <point x="390.8" y="656.6"/>
      <point x="348.79999999999995" y="710.0"/>
      <point x="248.6" y="710.0" type="curve" smooth="yes"/>
      <point x="67.4" y="710.0"/>
      <point x="14.800000000000002" y="374.2"/>
      <point x="14.800000000000002" y="174.4" type="curve" smooth="yes"/>
      <point x="14.800000000000002" y="43.39999999999999"/>
      <point x="56.8" y="-10.0"/>
    </contour>
    <contour>
      <point x="164.8" y="114.8" type="curve" smooth="yes"/>
      <point x="144.6" y="114.8"/>
      <point x="134.8" y="125.8"/>
      <point x="134.8" y="170.0" type="curve" smooth="yes"/>
      <point x="134.8" y="269.6"/>
      <point x="180.79999999999998" y="585.2"/>
      <point x="240.8" y="585.2" type="curve" smooth="yes"/>
      <point x="261.0" y="585.2"/>
      <point x="270.8" y="574.2"/>
      <point x="270.8" y="530.0" type="curve" smooth="yes"/>
      <point x="270.8" y="430.4"/>
      <point x="224.79999999999998" y="114.8"/>
    </contour>
  </outline>
</glyph>
<glyph name="P" format="2">
  <advance width="357.4"/>
  <unicode hex="0050"/>
  <outline>
    <contour>
      <point x="-15.0" y="0.0" type="line"/>
      <point x="104.1" y="0.0" type="line"/>
      <point x="135.7" y="198.4" type="line"/>
      <point x="154.0" y="195.3"/>
      <point x="159.2" y="195.3"/>
      <point x="184.1" y="195.3" type="curve" smooth="yes"/>
      <point x="297.3" y="195.3"/>
      <point x="380.7" y="343.5"/>
      <point x="380.7" y="540.4" type="curve" smooth="yes"/>
      <point x="380.7" y="656.7"/>
      <point x="337.4" y="710.0"/>
      <point x="239.5" y="710.0" type="curve" smooth="yes"/>
      <point x="202.3" y="710.0"/>
      <point x="144.2" y="707.3"/>
      <point x="96.0" y="702.6" type="curve"/>
    </contour>
    <contour>
      <point x="198.39999999999998" y="592.5" type="line"/>
      <point x="206.5" y="594.8"/>
      <point x="214.6" y="595.8"/>
      <point x="223.2" y="595.8" type="curve" smooth="yes"/>
      <point x="252.3" y="595.8"/>
      <point x="264.4" y="575.4"/>
      <point x="264.4" y="520.7" type="curve" smooth="yes"/>
      <point x="264.4" y="418.7"/>
      <point x="222.7" y="309.5"/>
      <point x="177.1" y="309.5" type="curve" smooth="yes"/>
      <point x="169.39999999999998" y="309.5"/>
      <point x="162.1" y="309.8"/>
      <point x="153.39999999999998" y="311.5" type="curve"/>
    </contour>
  </outline>
</glyph>
<glyph name="Q" format="2">
  <advance width="380.7"/>
  <unicode hex="0051"/>
  <note>
14
</note>
  <outline>
    <contour>
      <point x="262.3" y="-166.7" type="curve" smooth="yes"/>
      <point x="278.1" y="-166.7"/>
      <point x="295.1" y="-165.0"/>
      <point x="309.7" y="-160.4" type="curve"/>
      <point x="322.5" y="-51.7" type="line"/>
      <point x="312.6" y="-55.0"/>
      <point x="299.7" y="-57.0"/>
      <point x="286.7" y="-57.0" type="curve" smooth="yes"/>
      <point x="245.39999999999998" y="-57.0"/>
      <point x="216.6" y="-37.900000000000006"/>
      <point x="216.2" y="13.299999999999999" type="curve"/>
      <point x="121.2" y="12.7" type="line"/>
      <point x="117.4" y="-127.8"/>
      <point x="194.4" y="-166.7"/>
    </contour>
    <component base="O"/>
  </outline>
</glyph>
<glyph name="R" format="2">
  <advance width="366.59999999999997"/>
  <unicode hex="0052"/>
  <anchor x="155.4" y="0.0" name="bottom"/>
  <anchor x="225.0" y="700.0" name="top"/>
  <outline>
    <contour>
      <point x="-16.0" y="0.0" type="line"/>
      <point x="103.4" y="0.0" type="line"/>
      <point x="140.2" y="234.60000000000002" type="line"/>
      <point x="145.39999999999998" y="234.60000000000002"/>
      <point x="150.8" y="234.0"/>
      <point x="170.4" y="234.0" type="curve"/>
      <point x="169.20000000000002" y="239.60000000000002" type="line"/>
      <point x="291.2" y="239.60000000000002"/>
      <point x="383.4" y="356.8"/>
      <point x="383.4" y="529.8" type="curve" smooth="yes"/>
      <point x="383.4" y="647.4000000000001"/>
      <point x="326.2" y="710.0"/>
      <point x="227.2" y="710.0" type="curve" smooth="yes"/>
      <point x="176.0" y="710.0"/>
      <point x="137.20000000000002" y="706.1999999999999"/>
      <point x="95.6" y="700.8" type="curve"/>
    </contour>
    <contour>
      <point x="272.2" y="-10.0" type="curve" smooth="yes"/>
      <point x="283.40000000000003" y="-10.0"/>
      <point x="308.2" y="-5.6000000000000005"/>
      <point x="317.2" y="-0.40000000000000036" type="curve"/>
      <point x="329.59999999999997" y="131.0" type="line"/>
      <point x="326.0" y="130.4"/>
      <point x="323.0" y="130.4"/>
      <point x="320.59999999999997" y="130.4" type="curve" smooth="yes"/>
      <point x="290.2" y="130.39999999999998"/>
      <point x="272.59999999999997" y="156.2"/>
      <point x="253.4" y="293.2" type="curve"/>
      <point x="155.6" y="264.4" type="line"/>
      <point x="195.6" y="3.2000000000000006"/>
      <point x="222.0" y="-10.0"/>
    </contour>
    <contour>
      <point x="177.6" y="340.2" type="curve" smooth="yes"/>
      <point x="170.6" y="340.2"/>
      <point x="163.2" y="341.20000000000005"/>
      <point x="156.79999999999998" y="342.20000000000005" type="curve"/>
      <point x="198.0" y="594.1999999999999" type="line"/>
      <point x="208.0" y="596.8"/>
      <point x="216.79999999999998" y="597.8"/>
      <point x="224.2" y="597.8" type="curve" smooth="yes"/>
      <point x="252.39999999999998" y="597.8"/>
      <point x="264.6" y="573.0"/>
      <point x="264.6" y="530.4" type="curve" smooth="yes"/>
      <point x="264.6" y="424.0"/>
      <point x="222.6" y="340.2"/>
    </contour>
  </outline>
</glyph>
<glyph name="S" format="2">
  <advance width="330.9"/>
  <unicode hex="0053"/>
  <anchor x="124.3" y="0.0" name="bottom"/>
  <anchor x="242.1" y="700.0" name="top"/>
  <outline>
    <contour>
      <point x="360.8" y="680.6" type="line"/>
      <point x="335.3" y="698.0"/>
      <point x="293.3" y="710.0"/>
      <point x="243.0" y="710.0" type="curve" smooth="yes"/>
      <point x="129.1" y="710.0"/>
      <point x="49.7" y="628.6"/>
      <point x="49.7" y="497.8" type="curve" smooth="yes"/>
      <point x="49.7" y="347.1"/>
      <point x="185.3" y="280.0"/>
      <point x="185.3" y="191.5" type="curve" smooth="yes"/>
      <point x="185.3" y="143.2"/>
      <point x="155.8" y="106.6"/>
      <point x="104.5" y="106.6" type="curve" smooth="yes"/>
      <point x="74.1" y="106.6"/>
      <point x="50.199999999999996" y="114.1"/>
      <point x="11.5" y="131.1" type="curve"/>
      <point x="-27.5" y="24.2" type="line"/>
      <point x="5.699999999999999" y="1.5999999999999996"/>
      <point x="54.0" y="-10.0"/>
      <point x="110.3" y="-10.0" type="curve" smooth="yes"/>
      <point x="223.5" y="-10.0"/>
      <point x="304.7" y="75.9"/>
      <point x="304.7" y="195.8" type="curve" smooth="yes"/>
      <point x="304.7" y="349.0"/>
      <point x="173.3" y="417.6"/>
      <point x="173.3" y="505.4" type="curve" smooth="yes"/>
      <point x="173.3" y="564.5"/>
      <point x="205.8" y="594.0"/>
      <point x="253.3" y="594.0" type="curve" smooth="yes"/>
      <point x="276.3" y="594.0"/>
      <point x="300.9" y="589.6"/>
      <point x="324.2" y="577.8" type="curve"/>
    </contour>
  </outline>
</glyph>
<glyph name="T" format="2">
  <advance width="318.6"/>
  <unicode hex="0054"/>
  <anchor x="115.61079999999998" y="0.0" name="bottom"/>
  <anchor x="171.21529999999998" y="350.0" name="center"/>
  <anchor x="226.51909999999998" y="700.0" name="top"/>
  <outline>
    <contour>
      <point x="360.8" y="587.9" type="line"/>
      <point x="379.2" y="700.0" type="line"/>
      <point x="74.1" y="700.0" type="line"/>
      <point x="55.7" y="587.9" type="line"/>
      <point x="148.9" y="587.9" type="line"/>
      <point x="55.6" y="0.0" type="line"/>
      <point x="174.7" y="0.0" type="line"/>
      <point x="268.0" y="587.9" type="line"/>
    </contour>
  </outline>
</glyph>
<glyph name="U" format="2">
  <advance width="365.0"/>
  <unicode hex="0055"/>
  <anchor x="138.81079999999997" y="0.0" name="bottom"/>
  <anchor x="194.8" y="0.0" name="ogonek"/>
  <anchor x="249.1191" y="700.0" name="top"/>
  <anchor x="385.3" y="700.0" name="topright"/>
  <outline>
    <contour>
      <point x="135.1" y="-10.0" type="curve" smooth="yes"/>
      <point x="244.6" y="-10.0"/>
      <point x="302.4" y="49.3"/>
      <point x="324.0" y="183.6" type="curve" smooth="yes"/>
      <point x="406.3" y="700.0" type="line"/>
      <point x="286.9" y="700.0" type="line"/>
      <point x="201.1" y="157.0" type="line" smooth="yes"/>
      <point x="195.8" y="119.89999999999999"/>
      <point x="181.7" y="102.8"/>
      <point x="155.5" y="102.8" type="curve" smooth="yes"/>
      <point x="130.89999999999998" y="102.8"/>
      <point x="120.3" y="120.39999999999999"/>
      <point x="125.69999999999999" y="151.0" type="curve" smooth="yes"/>
      <point x="212.5" y="700.0" type="line"/>
      <point x="93.4" y="700.0" type="line"/>
      <point x="10.5" y="176.1" type="line" smooth="yes"/>
      <point x="6.4" y="151.1"/>
      <point x="5.0" y="137.2"/>
      <point x="5.0" y="120.8" type="curve" smooth="yes"/>
      <point x="5.0" y="33.1"/>
      <point x="48.2" y="-10.0"/>
    </contour>
  </outline>
</glyph>
<glyph name="V" format="2">
  <advance width="377.0"/>
  <unicode hex="0056"/>
  <outline>
    <contour>
      <point x="220.39999999999998" y="0.0" type="line"/>
      <point x="361.3" y="352.8"/>
      <point x="409.7" y="492.2"/>
      <point x="429.29999999999995" y="671.9" type="curve" smooth="yes"/>
      <point x="430.0" y="681.7"/>
      <point x="430.4" y="689.9"/>
      <point x="429.5" y="700.0" type="curve"/>
      <point x="296.7" y="700.0" type="line"/>
      <point x="297.3" y="692.3"/>
      <point x="297.6" y="685.8"/>
      <point x="297.6" y="679.0" type="curve" smooth="yes"/>
      <point x="288.5" y="526.7"/>
      <point x="255.1" y="413.1"/>
      <point x="166.7" y="130.2" type="curve"/>
      <point x="208.39999999999998" y="700.0" type="line"/>
      <point x="68.7" y="700.0" type="line"/>
      <point x="57.0" y="0.0" type="line"/>
    </contour>
  </outline>
</glyph>
<glyph name="W" format="2">
  <advance width="565.8"/>
  <unicode hex="0057"/>
  <anchor x="236.2" y="0.0" name="bottom"/>
  <anchor x="351.6" y="700.0" name="top"/>
  <outline>
    <contour>
      <point x="427.4" y="-0.6000000000000001" type="line"/>
      <point x="577.6" y="456.59999999999997"/>
      <point x="611.8" y="574.4000000000001"/>
      <point x="617.4" y="676.0" type="curve" smooth="yes"/>
      <point x="617.4" y="684.4"/>
      <point x="617.4" y="691.6"/>
      <point x="616.1999999999999" y="700.0" type="curve"/>
      <point x="488.0" y="700.0" type="line"/>
      <point x="488.6" y="692.1999999999999"/>
      <point x="489.2" y="685.4"/>
      <point x="489.2" y="678.6" type="curve" smooth="yes"/>
      <point x="484.6" y="545.0"/>
      <point x="459.79999999999995" y="473.59999999999997"/>
      <point x="370.6" y="156.0" type="curve"/>
      <point x="408.59999999999997" y="645.8000000000001" type="line"/>
      <point x="282.79999999999995" y="645.8000000000001" type="line"/>
      <point x="249.4" y="487.6"/>
      <point x="199.8" y="291.4"/>
      <point x="157.8" y="157.39999999999998" type="curve"/>
      <point x="200.6" y="700.0" type="line"/>
      <point x="69.6" y="700.0" type="line"/>
      <point x="44.599999999999994" y="-0.6000000000000001" type="line"/>
      <point x="182.2" y="-0.6000000000000001" type="line"/>
      <point x="238.2" y="162.20000000000002"/>
      <point x="281.2" y="305.0"/>
      <point x="311.6" y="423.4000000000001" type="curve"/>
      <point x="281.20000000000005" y="-0.6000000000000001" type="line"/>
    </contour>
  </outline>
</glyph>
<glyph name="X" format="2">
  <advance width="387.2"/>
  <unicode hex="0058"/>
  <outline>
    <contour>
      <point x="217.2" y="-1.7999999999999998" type="line"/>
      <point x="348.6" y="-0.6000000000000001" type="line"/>
      <point x="296.4" y="332.0" type="line"/>
      <point x="376.8" y="527.8"/>
      <point x="430.79999999999995" y="620.1999999999999"/>
      <point x="430.79999999999995" y="700.0" type="curve"/>
      <point x="303.0" y="700.0" type="line"/>
      <point x="303.0" y="619.4"/>
      <point x="263.8" y="543.0"/>
      <point x="221.0" y="435.79999999999995" type="curve"/>
      <point x="193.8" y="702.4" type="line"/>
      <point x="67.8" y="701.2" type="line"/>
      <point x="111.2" y="364.40000000000003" type="line"/>
      <point x="38.00000000000001" y="204.4"/>
      <point x="-22.8" y="100.60000000000001"/>
      <point x="-22.799999999999997" y="0.0" type="curve"/>
      <point x="108.6" y="0.0" type="line"/>
      <point x="108.6" y="85.80000000000001"/>
      <point x="137.6" y="149.2"/>
      <point x="186.6" y="263.0" type="curve"/>
    </contour>
  </outline>
</glyph>
<glyph name="Y" format="2">
  <advance width="363.4"/>
  <unicode hex="0059"/>
  <anchor x="139.0" y="0.0" name="bottom"/>
  <anchor x="249.7" y="700.0" name="top"/>
  <anchor x="92.3" y="700.0" name="topleft"/>
  <outline>
    <contour>
      <point x="74.4" y="0.0" type="line"/>
      <point x="191.39999999999998" y="0.0" type="line"/>
      <point x="230.5" y="240.10000000000002" type="line"/>
      <point x="309.3" y="376.2"/>
      <point x="369.5" y="505.9"/>
      <point x="420.7" y="665.1" type="curve" smooth="yes"/>
      <point x="423.7" y="676.6"/>
      <point x="427.1" y="688.8"/>
      <point x="429.79999999999995" y="700.3" type="curve"/>
      <point x="292.8" y="701.5" type="line"/>
      <point x="291.5" y="691.0"/>
      <point x="289.5" y="679.8"/>
      <point x="287.2" y="669.3" type="curve" smooth="yes"/>
      <point x="263.6" y="559.8"/>
      <point x="235.7" y="458.2"/>
      <point x="194.0" y="362.2" type="curve"/>
      <point x="207.1" y="701.2" type="line"/>
      <point x="68.0" y="700.3" type="line"/>
      <point x="112.9" y="240.10000000000002" type="line"/>
    </contour>
  </outline>
</glyph>
<glyph name="Z" format="2">
  <advance width="328.2"/>
  <unicode hex="005A"/>
  <anchor x="121.80000000000001" y="0.0" name="bottom"/>
  <anchor x="175.39999999999998" y="350.0" name="center"/>
  <anchor x="232.20000000000002" y="700.0" name="top"/>
  <outline>
    <contour>
      <point x="-32.4" y="0.0" type="line"/>
      <point x="272.6" y="0.0" type="line"/>
      <point x="292.0" y="114.19999999999999" type="line"/>
      <point x="106.99999999999999" y="114.19999999999999" type="line"/>
      <point x="362.59999999999997" y="581.0" type="line"/>
      <point x="381.4" y="700.0" type="line"/>
      <point x="91.0" y="700.0" type="line"/>
      <point x="72.2" y="585.8000000000001" type="line"/>
      <point x="242.6" y="585.8000000000001" type="line"/>
      <point x="-14.000000000000002" y="115.79999999999998" type="line"/>
    </contour>
  </outline>
</glyph>
<glyph name="bracketleft" format="2">
  <advance width="215.9"/>
  <unicode hex="005B"/>
  <outline>
    <contour>
      <point x="64.6" y="-101.0" type="line"/>
      <point x="183.0" y="631.0" type="line"/>
      <point x="263.8" y="631.0" type="line"/>
      <point x="282.2" y="740.0" type="line"/>
      <point x="102.3" y="740.0" type="line"/>
      <point x="-52.599999999999994" y="-210.0" type="line"/>
      <point x="126.3" y="-210.0" type="line"/>
      <point x="145.39999999999998" y="-101.0" type="line"/>
    </contour>
  </outline>
</glyph>
<glyph name="backslash" format="2">
  <advance width="310.6"/>
  <unicode hex="005C"/>
  <outline>
    <contour>
      <point x="172.5" y="740.0" type="line"/>
      <point x="71.9" y="740.0" type="line"/>
      <point x="176.5" y="-210.0" type="line"/>
      <point x="276.4" y="-210.0" type="line"/>
    </contour>
  </outline>
</glyph>
<glyph name="bracketright" format="2">
  <advance width="215.9"/>
  <unicode hex="005D"/>
  <outline>
    <contour>
      <point x="-50.6" y="-101.0" type="line"/>
      <point x="-69.0" y="-210.0" type="line"/>
      <point x="109.6" y="-210.0" type="line"/>
      <point x="265.5" y="740.0" type="line"/>
      <point x="85.9" y="740.0" type="line"/>
      <point x="66.8" y="631.0" type="line"/>
      <point x="147.6" y="631.0" type="line"/>
      <point x="28.5" y="-101.0" type="line"/>
    </contour>
  </outline>
</glyph>
<glyph name="asciicircum" format="2">
  <advance width="373.3"/>
  <unicode hex="005E"/>
  <outline>
    <contour>
      <point x="42.4" y="253.1" type="line"/>
      <point x="126.5" y="253.1" type="line"/>
      <point x="232.6" y="567.6" type="line"/>
      <point x="241.1" y="253.1" type="line"/>
      <point x="324.5" y="253.1" type="line"/>
      <point x="306.5" y="703.0" type="line"/>
      <point x="194.8" y="703.0" type="line"/>
    </contour>
  </outline>
</glyph>
<glyph name="underscore" format="2">
  <advance width="550.8"/>
  <unicode hex="005F"/>
  <outline>
    <contour>
      <point x="-73.4" y="-187.1" type="line"/>
      <point x="476.0" y="-187.1" type="line"/>
      <point x="497.2" y="-63.5" type="line"/>
      <point x="-52.2" y="-63.5" type="line"/>
    </contour>
  </outline>
</glyph>
<glyph name="a" format="2">
  <advance width="357.0"/>
  <unicode hex="0061"/>
  <note>
15
</note>
  <anchor x="142.9" y="0.0" name="bottom"/>
  <anchor x="318.8" y="9.799999999999999" name="ogonek"/>
  <anchor x="223.4" y="544.0" name="top"/>
  <outline>
    <contour>
      <point x="250.8" y="-10.0" type="curve" smooth="yes"/>
      <point x="276.0" y="-10.0"/>
      <point x="303.3" y="-1.8000000000000007"/>
      <point x="318.8" y="9.799999999999999" type="curve"/>
      <point x="332.7" y="114.8" type="line"/>
      <point x="327.0" y="112.6"/>
      <point x="321.5" y="111.69999999999999"/>
      <point x="317.1" y="111.69999999999999" type="curve" smooth="yes"/>
      <point x="306.29999999999995" y="111.69999999999999"/>
      <point x="303.1" y="116.89999999999999"/>
      <point x="303.1" y="128.7" type="curve" smooth="yes"/>
      <point x="303.1" y="134.6"/>
      <point x="306.4" y="154.5"/>
      <point x="365.4" y="524.0" type="curve"/>
      <point x="327.3" y="540.3"/>
      <point x="281.7" y="554.0"/>
      <point x="231.2" y="554.0" type="curve" smooth="yes"/>
      <point x="96.9" y="554.0"/>
      <point x="8.600000000000001" y="407.5"/>
      <point x="8.600000000000001" y="146.9" type="curve" smooth="yes"/>
      <point x="8.600000000000001" y="47.8"/>
      <point x="44.1" y="-10.0"/>
      <point x="104.2" y="-10.0" type="curve" smooth="yes"/>
      <point x="136.9" y="-10.0"/>
      <point x="161.2" y="2.8"/>
      <point x="183.2" y="28.099999999999998" type="curve"/>
      <point x="197.7" y="1.4"/>
      <point x="217.0" y="-10.0"/>
    </contour>
    <contour>
      <point x="182.3" y="119.69999999999999" type="line"/>
      <point x="175.7" y="114.69999999999999"/>
      <point x="167.3" y="111.6"/>
      <point x="159.2" y="111.6" type="curve" smooth="yes"/>
      <point x="144.2" y="111.6"/>
      <point x="134.7" y="129.0"/>
      <point x="134.7" y="164.3" type="curve" smooth="yes"/>
      <point x="134.7" y="319.4"/>
      <point x="173.6" y="440.4"/>
      <point x="216.9" y="440.4" type="curve" smooth="yes"/>
      <point x="222.5" y="440.4"/>
      <point x="227.6" y="439.5"/>
      <point x="232.4" y="437.0" type="curve"/>
    </contour>
  </outline>
</glyph>
<glyph name="b" format="2">
  <advance width="351.1"/>
  <unicode hex="0062"/>
  <note>
12
</note>
  <outline>
    <contour>
      <point x="220.5" y="740.0" type="line"/>
      <point x="101.4" y="740.0" type="line"/>
      <point x="-13.2" y="14.5" type="line"/>
      <point x="12.3" y="2.3999999999999986"/>
      <point x="51.0" y="-10.0"/>
      <point x="108.1" y="-10.0" type="curve" smooth="yes"/>
      <point x="278.4" y="-10.0"/>
      <point x="344.3" y="189.3"/>
      <point x="342.9" y="385.2" type="curve" smooth="yes"/>
      <point x="342.2" y="502.6"/>
      <point x="309.8" y="554.0"/>
      <point x="250.1" y="554.0" type="curve" smooth="yes"/>
      <point x="229.1" y="554.0"/>
      <point x="208.3" y="547.0"/>
      <point x="187.6" y="531.4" type="curve"/>
    </contour>
    <contour>
      <point x="194.9" y="431.7" type="curve" smooth="yes"/>
      <point x="214.3" y="431.7"/>
      <point x="221.0" y="407.5"/>
      <point x="221.0" y="378.0" type="curve" smooth="yes"/>
      <point x="221.0" y="235.0"/>
      <point x="184.0" y="101.8"/>
      <point x="136.89999999999998" y="101.8" type="curve" smooth="yes"/>
      <point x="131.6" y="101.8"/>
      <point x="125.6" y="102.69999999999999"/>
      <point x="120.5" y="105.19999999999999" type="curve"/>
      <point x="170.6" y="423.6" type="line"/>
      <point x="177.2" y="428.3"/>
      <point x="188.4" y="431.7"/>
    </contour>
  </outline>
</glyph>
<glyph name="c" format="2">
  <advance width="285.2"/>
  <unicode hex="0063"/>
  <note>
10
</note>
  <anchor x="128.6" y="0.0" name="bottom"/>
  <anchor x="219.79999999999998" y="544.0" name="top"/>
  <outline>
    <contour>
      <point x="149.39999999999998" y="-10.0" type="curve" smooth="yes"/>
      <point x="180.39999999999998" y="-10.0"/>
      <point x="218.60000000000002" y="-2.4"/>
      <point x="242.6" y="7.4" type="curve"/>
      <point x="228.8" y="120.79999999999998" type="line"/>
      <point x="215.39999999999998" y="118.19999999999999"/>
      <point x="199.79999999999998" y="116.6"/>
      <point x="183.79999999999998" y="116.6" type="curve" smooth="yes"/>
      <point x="148.2" y="116.6"/>
      <point x="134.4" y="150.2"/>
      <point x="134.4" y="200.2" type="curve" smooth="yes"/>
      <point x="134.4" y="314.2"/>
      <point x="173.2" y="427.40000000000003"/>
      <point x="233.0" y="427.40000000000003" type="curve" smooth="yes"/>
      <point x="249.59999999999997" y="427.40000000000003"/>
      <point x="262.0" y="425.4"/>
      <point x="279.0" y="419.00000000000006" type="curve"/>
      <point x="321.0" y="540.0" type="line"/>
      <point x="297.8" y="549.1999999999999"/>
      <point x="268.4" y="554.0"/>
      <point x="234.6" y="554.0" type="curve" smooth="yes"/>
      <point x="82.8" y="554.0"/>
      <point x="9.4" y="387.8"/>
      <point x="9.4" y="165.0" type="curve" smooth="yes"/>
      <point x="9.4" y="55.0"/>
      <point x="60.199999999999996" y="-10.0"/>
    </contour>
  </outline>
</glyph>
<glyph name="d" format="2">
  <advance width="354.6"/>
  <unicode hex="0064"/>
  <note>
17
</note>
  <anchor x="153.5" y="0.0" name="bottom"/>
  <anchor x="179.5" y="303.5" name="center"/>
  <anchor x="236.6" y="740.0" name="top"/>
  <anchor x="429.1" y="740.0" name="topright"/>
  <outline>
    <contour>
      <point x="248.1" y="-10.0" type="curve" smooth="yes"/>
      <point x="271.3" y="-10.0"/>
      <point x="299.3" y="-2.8000000000000007"/>
      <point x="316.1" y="9.799999999999999" type="curve"/>
      <point x="330.0" y="114.8" type="line"/>
      <point x="324.2" y="112.89999999999999"/>
      <point x="318.8" y="111.69999999999999"/>
      <point x="314.1" y="111.69999999999999" type="curve" smooth="yes"/>
      <point x="303.9" y="111.69999999999999"/>
      <point x="301.1" y="116.6"/>
      <point x="301.1" y="125.89999999999999" type="curve" smooth="yes"/>
      <point x="301.1" y="140.89999999999998"/>
      <point x="366.1" y="544.7"/>
      <point x="397.0" y="740.0" type="curve"/>
      <point x="278.6" y="740.0" type="line"/>
      <point x="246.3" y="540.4" type="line"/>
      <point x="229.6" y="549.6"/>
      <point x="213.1" y="554.0"/>
      <point x="194.6" y="554.0" type="curve" smooth="yes"/>
      <point x="91.0" y="554.0"/>
      <point x="9.4" y="392.2"/>
      <point x="9.4" y="158.7" type="curve" smooth="yes"/>
      <point x="9.4" y="44.6"/>
      <point x="42.8" y="-10.0"/>
      <point x="104.7" y="-10.0" type="curve" smooth="yes"/>
      <point x="136.8" y="-10.0"/>
      <point x="163.0" y="8.3"/>
      <point x="180.5" y="29.299999999999997" type="curve"/>
      <point x="195.3" y="1.7999999999999998"/>
      <point x="214.0" y="-10.0"/>
    </contour>
    <contour>
      <point x="156.5" y="111.89999999999999" type="curve" smooth="yes"/>
      <point x="139.8" y="111.89999999999999"/>
      <point x="131.7" y="131.6"/>
      <point x="131.7" y="158.2" type="curve" smooth="yes"/>
      <point x="131.7" y="293.4"/>
      <point x="164.5" y="440.4"/>
      <point x="214.4" y="440.4" type="curve" smooth="yes"/>
      <point x="219.7" y="440.4"/>
      <point x="223.4" y="439.5"/>
      <point x="230.0" y="437.3" type="curve"/>
      <point x="179.9" y="120.6" type="line"/>
      <point x="173.3" y="115.0"/>
      <point x="165.1" y="111.89999999999999"/>
    </contour>
  </outline>
</glyph>
<glyph name="e" format="2">
  <advance width="325.2"/>
  <unicode hex="0065"/>
  <note>
14 points
</note>
  <anchor x="155.79999999999998" y="0.0" name="bottom"/>
  <anchor x="224.0" y="-0.7999999999999998" name="ogonek"/>
  <anchor x="221.6" y="543.8" name="top"/>
  <outline>
    <contour>
      <point x="100.6" y="284.79999999999995" type="curve"/>
      <point x="77.8" y="197.6" type="line"/>
      <point x="114.0" y="197.6"/>
      <point x="150.0" y="205.4"/>
      <point x="182.59999999999997" y="218.20000000000002" type="curve" smooth="yes"/>
      <point x="274.2" y="254.20000000000005"/>
      <point x="339.2" y="337.40000000000003"/>
      <point x="339.2" y="439.20000000000005" type="curve" smooth="yes"/>
      <point x="339.2" y="506.0"/>
      <point x="303.6" y="553.2"/>
      <point x="226.0" y="553.2" type="curve" smooth="yes"/>
      <point x="83.0" y="553.2"/>
      <point x="10.4" y="381.6"/>
      <point x="10.4" y="184.20000000000002" type="curve" smooth="yes"/>
      <point x="10.4" y="59.6"/>
      <point x="61.8" y="-10.0"/>
      <point x="158.79999999999998" y="-10.0" type="curve" smooth="yes"/>
      <point x="197.0" y="-10.0"/>
      <point x="242.99999999999997" y="-0.6000000000000001"/>
      <point x="279.4" y="21.0" type="curve"/>
      <point x="259.0" y="136.2" type="line"/>
      <point x="227.39999999999998" y="120.79999999999998"/>
      <point x="199.79999999999998" y="114.8"/>
      <point x="175.39999999999998" y="114.8" type="curve" smooth="yes"/>
      <point x="143.0" y="114.8"/>
      <point x="123.6" y="134.0"/>
      <point x="124.39999999999999" y="210.20000000000002" type="curve" smooth="yes"/>
      <point x="126.0" y="351.79999999999995"/>
      <point x="166.0" y="441.8"/>
      <point x="208.8" y="441.4" type="curve" smooth="yes"/>
      <point x="221.60000000000002" y="441.4"/>
      <point x="229.4" y="434.0"/>
      <point x="229.4" y="411.6" type="curve" smooth="yes"/>
      <point x="229.0" y="367.4"/>
      <point x="202.6" y="323.2"/>
      <point x="160.4" y="299.59999999999997" type="curve" smooth="yes"/>
      <point x="144.2" y="290.6"/>
      <point x="119.0" y="284.8"/>
    </contour>
  </outline>
</glyph>
<glyph name="f" format="2">
  <advance width="225.8"/>
  <unicode hex="0066"/>
  <outline>
    <contour>
      <point x="-45.400000000000006" y="-220.0" type="curve" smooth="yes"/>
      <point x="53.0" y="-220.0"/>
      <point x="100.1" y="-155.8"/>
      <point x="121.39999999999999" y="-21.300000000000004" type="curve" smooth="yes"/>
      <point x="188.89999999999998" y="404.8" type="line"/>
      <point x="242.9" y="404.8" type="line"/>
      <point x="260.6" y="515.5" type="line"/>
      <point x="206.6" y="515.5" type="line"/>
      <point x="219.89999999999998" y="601.8"/>
      <point x="237.1" y="627.4"/>
      <point x="269.7" y="627.4" type="curve" smooth="yes"/>
      <point x="280.6" y="627.4"/>
      <point x="293.5" y="624.4"/>
      <point x="306.2" y="620.0" type="curve"/>
      <point x="341.9" y="727.6" type="line"/>
      <point x="316.8" y="740.3"/>
      <point x="291.6" y="750.0"/>
      <point x="253.0" y="750.0" type="curve" smooth="yes"/>
      <point x="169.7" y="750.0"/>
      <point x="111.2" y="676.3"/>
      <point x="87.5" y="515.5" type="curve"/>
      <point x="42.8" y="508.8" type="line"/>
      <point x="25.4" y="404.8" type="line"/>
      <point x="69.8" y="404.8" type="line"/>
      <point x="3.3000000000000007" y="-18.400000000000006" type="line" smooth="yes"/>
      <point x="-5.5" y="-72.4"/>
      <point x="-22.6" y="-97.30000000000001"/>
      <point x="-53.3" y="-97.30000000000001" type="curve" smooth="yes"/>
      <point x="-62.400000000000006" y="-97.30000000000001"/>
      <point x="-72.7" y="-96.7"/>
      <point x="-87.30000000000001" y="-91.7" type="curve"/>
      <point x="-121.4" y="-205.3" type="line"/>
      <point x="-95.5" y="-215.2"/>
      <point x="-70.7" y="-220.0"/>
    </contour>
  </outline>
</glyph>
<glyph name="g" format="2">
  <advance width="353.4"/>
  <unicode hex="0067"/>
  <note>
16
</note>
  <anchor x="95.6" y="-217.0" name="bottom"/>
  <anchor x="221.6" y="544.0" name="top"/>
  <outline>
    <contour>
      <point x="-24.0" y="-190.20000000000002" type="line"/>
      <point x="19.0" y="-210.6"/>
      <point x="64.4" y="-220.0"/>
      <point x="94.99999999999999" y="-220.0" type="curve" smooth="yes"/>
      <point x="196.39999999999998" y="-220.0"/>
      <point x="255.0" y="-159.20000000000002"/>
      <point x="277.6" y="-17.800000000000004" type="curve" smooth="yes"/>
      <point x="366.6" y="532.0" type="line"/>
      <point x="340.4" y="543.8000000000001"/>
      <point x="290.2" y="554.0"/>
      <point x="245.0" y="554.0" type="curve" smooth="yes"/>
      <point x="84.2" y="554.0"/>
      <point x="8.799999999999999" y="389.4"/>
      <point x="8.799999999999999" y="153.79999999999998" type="curve" smooth="yes"/>
      <point x="8.799999999999999" y="66.8"/>
      <point x="36.4" y="7.399999999999997"/>
      <point x="98.8" y="7.399999999999997" type="curve" smooth="yes"/>
      <point x="117.8" y="7.399999999999997"/>
      <point x="143.39999999999998" y="13.399999999999997"/>
      <point x="167.0" y="28.4" type="curve"/>
      <point x="161.2" y="-19.000000000000007" type="line" smooth="yes"/>
      <point x="153.2" y="-81.19999999999999"/>
      <point x="129.0" y="-100.0"/>
      <point x="98.6" y="-100.0" type="curve" smooth="yes"/>
      <point x="77.6" y="-100.0"/>
      <point x="37.6" y="-90.6"/>
      <point x="12.799999999999999" y="-80.39999999999999" type="curve"/>
    </contour>
    <contour>
      <point x="232.6" y="442.20000000000005" type="curve"/>
      <point x="182.2" y="125.2" type="line"/>
      <point x="176.2" y="120.19999999999999"/>
      <point x="166.2" y="116.79999999999998"/>
      <point x="159.4" y="116.79999999999998" type="curve" smooth="yes"/>
      <point x="143.0" y="116.79999999999998"/>
      <point x="133.6" y="133.0"/>
      <point x="133.6" y="161.4" type="curve" smooth="yes"/>
      <point x="133.6" y="295.40000000000003"/>
      <point x="167.8" y="445.6"/>
      <point x="216.6" y="445.6" type="curve" smooth="yes"/>
      <point x="221.0" y="445.6"/>
      <point x="226.6" y="444.40000000000003"/>
    </contour>
  </outline>
</glyph>
<glyph name="h" format="2">
  <advance width="353.8"/>
  <unicode hex="0068"/>
  <note>
16
</note>
  <anchor x="133.4" y="0.0" name="bottom"/>
  <anchor x="191.5" y="370.0" name="center"/>
  <anchor x="250.0" y="740.0" name="top"/>
  <outline>
    <contour>
      <point x="298.5" y="126.89999999999999" type="curve" smooth="yes"/>
      <point x="298.5" y="141.8"/>
      <point x="351.9" y="442.2"/>
      <point x="351.9" y="469.6" type="curve" smooth="yes"/>
      <point x="351.9" y="522.6"/>
      <point x="326.8" y="554.0"/>
      <point x="275.8" y="554.0" type="curve" smooth="yes"/>
      <point x="244.5" y="554.0"/>
      <point x="217.7" y="544.0"/>
      <point x="184.8" y="519.1" type="curve"/>
      <point x="220.5" y="740.0" type="line"/>
      <point x="101.4" y="740.0" type="line"/>
      <point x="-16.299999999999997" y="0.0" type="line"/>
      <point x="102.8" y="0.0" type="line"/>
      <point x="170.3" y="420.4" type="line"/>
      <point x="180.5" y="428.4"/>
      <point x="194.2" y="433.1"/>
      <point x="203.4" y="433.1" type="curve" smooth="yes"/>
      <point x="220.0" y="433.1"/>
      <point x="224.8" y="423.1"/>
      <point x="224.8" y="409.9" type="curve" smooth="yes"/>
      <point x="224.8" y="392.2"/>
      <point x="172.7" y="102.8"/>
      <point x="172.7" y="65.1" type="curve" smooth="yes"/>
      <point x="172.7" y="24.0"/>
      <point x="201.9" y="-10.0"/>
      <point x="249.9" y="-10.0" type="curve" smooth="yes"/>
      <point x="272.5" y="-10.0"/>
      <point x="295.1" y="-2.7"/>
      <point x="314.0" y="9.899999999999999" type="curve"/>
      <point x="328.2" y="115.19999999999999" type="line"/>
      <point x="322.5" y="113.0"/>
      <point x="317.6" y="112.69999999999999"/>
      <point x="314.4" y="112.69999999999999" type="curve" smooth="yes"/>
      <point x="303.8" y="112.69999999999999"/>
      <point x="298.5" y="116.8"/>
    </contour>
  </outline>
</glyph>
<glyph name="i" format="2">
  <advance width="175.2"/>
  <unicode hex="0069"/>
  <note>
Ajuster pts sur points
8
</note>
  <anchor x="43.8" y="0.0" name="bottom"/>
  <anchor x="103.5" y="0.0" name="ogonek"/>
  <anchor x="129.9" y="544.0" name="top"/>
  <outline>
    <contour>
      <point x="-15.299999999999997" y="0.0" type="line"/>
      <point x="103.5" y="0.0" type="line"/>
      <point x="189.6" y="544.0" type="line"/>
      <point x="70.5" y="544.0" type="line"/>
    </contour>
    <contour>
      <point x="166.9" y="766.0" type="curve" smooth="yes"/>
      <point x="106.7" y="766.0"/>
      <point x="85.0" y="714.3"/>
      <point x="84.1" y="658.8" type="curve" smooth="yes"/>
      <point x="83.8" y="619.3"/>
      <point x="103.5" y="601.1"/>
      <point x="139.6" y="601.1" type="curve" smooth="yes"/>
      <point x="200.5" y="601.1"/>
      <point x="221.5" y="654.2"/>
      <point x="222.39999999999998" y="709.0" type="curve" smooth="yes"/>
      <point x="222.7" y="748.5"/>
      <point x="202.3" y="766.0"/>
    </contour>
  </outline>
</glyph>
<glyph name="j" format="2">
  <advance width="178.6"/>
  <unicode hex="006A"/>
  <note>
idem /i
12
</note>
  <outline>
    <contour>
      <point x="170.3" y="766.0" type="curve" smooth="yes"/>
      <point x="110.1" y="766.0"/>
      <point x="88.4" y="714.3"/>
      <point x="87.5" y="658.8" type="curve" smooth="yes"/>
      <point x="87.2" y="619.3"/>
      <point x="107.6" y="601.1"/>
      <point x="143.7" y="601.1" type="curve" smooth="yes"/>
      <point x="203.9" y="601.1"/>
      <point x="224.89999999999998" y="654.2"/>
      <point x="225.8" y="709.0" type="curve" smooth="yes"/>
      <point x="226.1" y="748.5"/>
      <point x="205.7" y="766.0"/>
    </contour>
    <contour>
      <point x="193.7" y="544.0" type="line"/>
      <point x="73.9" y="544.0" type="line"/>
      <point x="-15.2" y="-14.200000000000003" type="line" smooth="yes"/>
      <point x="-24.0" y="-68.2"/>
      <point x="-40.4" y="-97.30000000000001"/>
      <point x="-71.1" y="-97.30000000000001" type="curve" smooth="yes"/>
      <point x="-81.2" y="-97.30000000000001"/>
      <point x="-91.5" y="-96.7"/>
      <point x="-105.4" y="-91.7" type="curve"/>
      <point x="-136.0" y="-206.7" type="line"/>
      <point x="-110.1" y="-216.6"/>
      <point x="-80.4" y="-220.0"/>
      <point x="-58.6" y="-220.0" type="curve" smooth="yes"/>
      <point x="40.099999999999994" y="-220.0"/>
      <point x="81.6" y="-156.8"/>
      <point x="103.6" y="-17.800000000000004" type="curve" smooth="yes"/>
    </contour>
  </outline>
</glyph>
<glyph name="k" format="2">
  <advance width="339.79999999999995"/>
  <unicode hex="006B"/>
  <anchor x="145.8" y="0.0" name="bottom"/>
  <anchor x="161.39999999999998" y="740.0" name="top"/>
  <outline>
    <contour>
      <point x="-15.6" y="0.0" type="line"/>
      <point x="103.8" y="0.0" type="line"/>
      <point x="220.8" y="740.0" type="line"/>
      <point x="101.39999999999999" y="740.0" type="line"/>
    </contour>
    <contour>
      <point x="258.0" y="-10.0" type="curve" smooth="yes"/>
      <point x="271.0" y="-10.0"/>
      <point x="284.0" y="-8.6"/>
      <point x="298.40000000000003" y="-2.8000000000000003" type="curve"/>
      <point x="316.8" y="131.2" type="line"/>
      <point x="309.8" y="130.6"/>
      <point x="304.4" y="131.0"/>
      <point x="299.4" y="132.0" type="curve" smooth="yes"/>
      <point x="276.2" y="136.6"/>
      <point x="257.79999999999995" y="155.6"/>
      <point x="215.8" y="245.2" type="curve" smooth="yes"/>
      <point x="152.0" y="381.79999999999995" type="line"/>
      <point x="122.0" y="210.0" type="line"/>
      <point x="165.0" y="98.60000000000001" type="line" smooth="yes"/>
      <point x="193.6" y="25.400000000000002"/>
      <point x="217.39999999999998" y="-10.0"/>
    </contour>
    <contour>
      <point x="206.2" y="232.4" type="line"/>
      <point x="281.4" y="312.0"/>
      <point x="347.79999999999995" y="432.0"/>
      <point x="376.2" y="541.4000000000001" type="curve"/>
      <point x="261.8" y="554.0" type="line"/>
      <point x="237.4" y="444.79999999999995"/>
      <point x="197.79999999999998" y="380.59999999999997"/>
      <point x="150.2" y="322.4" type="curve"/>
    </contour>
  </outline>
</glyph>
<glyph name="l" format="2">
  <advance width="179.8"/>
  <unicode hex="006C"/>
  <anchor x="68.4" y="0.0" name="bottom"/>
  <anchor x="106.3" y="370.0" name="center"/>
  <anchor x="160.8" y="740.0" name="top"/>
  <anchor x="252.6" y="740.0" name="topright"/>
  <outline>
    <contour>
      <point x="101.4" y="740.0" type="line"/>
      <point x="0.10000000000000142" y="99.6" type="line" smooth="yes"/>
      <point x="-1.5999999999999996" y="88.8"/>
      <point x="-2.5999999999999996" y="76.6"/>
      <point x="-2.5999999999999996" y="67.5" type="curve" smooth="yes"/>
      <point x="-2.5999999999999996" y="20.099999999999998"/>
      <point x="21.7" y="-10.0"/>
      <point x="72.7" y="-10.0" type="curve" smooth="yes"/>
      <point x="95.9" y="-10.0"/>
      <point x="125.19999999999999" y="-2.1000000000000005"/>
      <point x="141.7" y="9.899999999999999" type="curve"/>
      <point x="155.89999999999998" y="115.19999999999999" type="line"/>
      <point x="149.3" y="113.0"/>
      <point x="143.2" y="112.39999999999999"/>
      <point x="139.39999999999998" y="112.39999999999999" type="curve" smooth="yes"/>
      <point x="128.5" y="112.39999999999999"/>
      <point x="124.6" y="118.0"/>
      <point x="124.6" y="129.3" type="curve" smooth="yes"/>
      <point x="124.6" y="136.1"/>
      <point x="126.19999999999999" y="145.2"/>
      <point x="128.1" y="157.89999999999998" type="curve" smooth="yes"/>
      <point x="220.5" y="740.0" type="line"/>
    </contour>
  </outline>
</glyph>
<glyph name="m" format="2">
  <advance width="525.8"/>
  <unicode hex="006D"/>
  <note>
24&gt;23 points
un point de trop dans la jointure avec 2e jambage
</note>
  <outline>
    <contour>
      <point x="419.8" y="-10.0" type="curve" smooth="yes"/>
      <point x="442.4" y="-10.0"/>
      <point x="469.2" y="-2.7"/>
      <point x="486.0" y="9.899999999999999" type="curve"/>
      <point x="500.2" y="115.19999999999999" type="line"/>
      <point x="494.5" y="113.0"/>
      <point x="489.6" y="112.69999999999999"/>
      <point x="486.4" y="112.69999999999999" type="curve" smooth="yes"/>
      <point x="475.79999999999995" y="112.69999999999999"/>
      <point x="470.2" y="118.89999999999999"/>
      <point x="470.2" y="131.1" type="curve" smooth="yes"/>
      <point x="470.2" y="158.6"/>
      <point x="523.6" y="447.1"/>
      <point x="523.6" y="473.8" type="curve" smooth="yes"/>
      <point x="523.6" y="521.2"/>
      <point x="499.5" y="554.0"/>
      <point x="447.79999999999995" y="554.0" type="curve" smooth="yes"/>
      <point x="419.1" y="554.0"/>
      <point x="382.6" y="545.3"/>
      <point x="341.8" y="511.1" type="curve"/>
      <point x="331.8" y="538.5"/>
      <point x="308.3" y="554.0"/>
      <point x="274.5" y="554.0" type="curve" smooth="yes"/>
      <point x="244.1" y="554.0"/>
      <point x="210.39999999999998" y="544.4"/>
      <point x="173.7" y="514.6" type="curve"/>
      <point x="178.8" y="544.0" type="line"/>
      <point x="70.2" y="544.0" type="line"/>
      <point x="-15.899999999999999" y="0.0" type="line"/>
      <point x="103.19999999999999" y="0.0" type="line"/>
      <point x="170.0" y="420.7" type="line"/>
      <point x="179.5" y="428.0"/>
      <point x="192.5" y="433.1"/>
      <point x="203.6" y="433.1" type="curve" smooth="yes"/>
      <point x="217.8" y="433.1"/>
      <point x="223.4" y="424.0"/>
      <point x="223.4" y="411.1" type="curve" smooth="yes"/>
      <point x="223.4" y="396.0"/>
      <point x="176.3" y="113.39999999999999"/>
      <point x="157.4" y="0.0" type="curve"/>
      <point x="276.1" y="0.0" type="line"/>
      <point x="290.1" y="84.69999999999999"/>
      <point x="325.3" y="304.5"/>
      <point x="339.3" y="398.8" type="curve" smooth="yes"/>
      <point x="340.0" y="405.2"/>
      <point x="341.1" y="414.4"/>
      <point x="341.5" y="419.8" type="curve"/>
      <point x="351.7" y="427.8"/>
      <point x="364.3" y="433.1"/>
      <point x="375.9" y="433.1" type="curve" smooth="yes"/>
      <point x="390.7" y="433.1"/>
      <point x="395.8" y="423.1"/>
      <point x="395.8" y="409.9" type="curve" smooth="yes"/>
      <point x="395.8" y="391.3"/>
      <point x="343.7" y="109.1"/>
      <point x="343.7" y="67.19999999999999" type="curve" smooth="yes"/>
      <point x="343.7" y="19.799999999999997"/>
      <point x="371.8" y="-10.0"/>
    </contour>
  </outline>
</glyph>
<glyph name="n" format="2">
  <advance width="353.2"/>
  <unicode hex="006E"/>
  <note>
16
</note>
  <anchor x="143.5" y="0.0" name="bottom"/>
  <anchor x="216.3" y="544.0" name="top"/>
  <outline>
    <contour>
      <point x="70.2" y="544.0" type="line"/>
      <point x="-15.899999999999999" y="0.0" type="line"/>
      <point x="103.19999999999999" y="0.0" type="line"/>
      <point x="170.7" y="420.4" type="line"/>
      <point x="180.9" y="428.4"/>
      <point x="193.6" y="433.4"/>
      <point x="203.5" y="433.4" type="curve" smooth="yes"/>
      <point x="220.1" y="433.4"/>
      <point x="225.2" y="423.1"/>
      <point x="225.2" y="409.9" type="curve" smooth="yes"/>
      <point x="225.2" y="384.5"/>
      <point x="173.1" y="109.1"/>
      <point x="173.1" y="61.599999999999994" type="curve" smooth="yes"/>
      <point x="173.1" y="24.7"/>
      <point x="200.6" y="-10.0"/>
      <point x="248.6" y="-10.0" type="curve" smooth="yes"/>
      <point x="271.2" y="-10.0"/>
      <point x="296.6" y="-2.7"/>
      <point x="313.4" y="9.899999999999999" type="curve"/>
      <point x="327.6" y="115.19999999999999" type="line"/>
      <point x="321.9" y="113.0"/>
      <point x="317.0" y="112.69999999999999"/>
      <point x="313.8" y="112.69999999999999" type="curve" smooth="yes"/>
      <point x="303.2" y="112.69999999999999"/>
      <point x="298.2" y="116.8"/>
      <point x="298.2" y="126.89999999999999" type="curve" smooth="yes"/>
      <point x="298.2" y="141.8"/>
      <point x="352.3" y="442.2"/>
      <point x="352.3" y="469.6" type="curve" smooth="yes"/>
      <point x="352.3" y="522.6"/>
      <point x="326.9" y="554.0"/>
      <point x="275.9" y="554.0" type="curve" smooth="yes"/>
      <point x="244.6" y="554.0"/>
      <point x="209.39999999999998" y="544.1"/>
      <point x="173.0" y="514.3" type="curve"/>
      <point x="177.39999999999998" y="544.0" type="line"/>
    </contour>
  </outline>
</glyph>
<glyph name="o" format="2">
  <advance width="348.0"/>
  <unicode hex="006F"/>
  <note>
8
</note>
  <anchor x="130.7776" y="0.0" name="bottom"/>
  <anchor x="174.0" y="272.0" name="center"/>
  <anchor x="191.6" y="0.0" name="ogonek"/>
  <anchor x="209.6" y="544.0" name="top"/>
  <anchor x="284.6" y="534.0" name="topright"/>
  <outline>
    <contour>
      <point x="140.2" y="-9.6" type="curve" smooth="yes"/>
      <point x="286.6" y="-9.6"/>
      <point x="339.2" y="222.80000000000004"/>
      <point x="339.2" y="407.2" type="curve" smooth="yes"/>
      <point x="339.2" y="509.0"/>
      <point x="302.59999999999997" y="554.0"/>
      <point x="206.6" y="554.0" type="curve" smooth="yes"/>
      <point x="60.2" y="554.0"/>
      <point x="7.6" y="321.59999999999997"/>
      <point x="7.6" y="137.0" type="curve" smooth="yes"/>
      <point x="7.6" y="36.0"/>
      <point x="44.8" y="-9.6"/>
    </contour>
    <contour>
      <point x="146.2" y="106.0" type="curve" smooth="yes"/>
      <point x="132.8" y="106.0"/>
      <point x="123.6" y="111.6"/>
      <point x="123.6" y="142.2" type="curve" smooth="yes"/>
      <point x="123.6" y="193.20000000000002"/>
      <point x="155.8" y="438.40000000000003"/>
      <point x="201.2" y="438.40000000000003" type="curve" smooth="yes"/>
      <point x="214.6" y="438.40000000000003"/>
      <point x="223.79999999999998" y="433.40000000000003"/>
      <point x="223.79999999999998" y="402.8" type="curve" smooth="yes"/>
      <point x="223.79999999999998" y="351.2"/>
      <point x="191.6" y="106.0"/>
    </contour>
  </outline>
</glyph>
<glyph name="p" format="2">
  <advance width="351.8"/>
  <unicode hex="0070"/>
  <note>
14 point
</note>
  <outline>
    <contour>
      <point x="-48.599999999999994" y="-210.0" type="line"/>
      <point x="69.5" y="-210.0" type="line"/>
      <point x="102.5" y="-3.0" type="line"/>
      <point x="114.39999999999999" y="-5.9"/>
      <point x="128.8" y="-8.6"/>
      <point x="150.8" y="-8.6" type="curve" smooth="yes"/>
      <point x="278.4" y="-8.6"/>
      <point x="342.9" y="185.7"/>
      <point x="342.9" y="381.7" type="curve" smooth="yes"/>
      <point x="342.9" y="498.8"/>
      <point x="314.3" y="554.0"/>
      <point x="253.6" y="554.0" type="curve" smooth="yes"/>
      <point x="218.6" y="554.0"/>
      <point x="196.39999999999998" y="535.8"/>
      <point x="182.7" y="522.3" type="curve"/>
      <point x="178.6" y="547.0" type="line"/>
      <point x="70.8" y="547.0" type="line"/>
    </contour>
    <contour>
      <point x="136.89999999999998" y="101.8" type="curve" smooth="yes"/>
      <point x="131.6" y="101.8"/>
      <point x="125.6" y="102.39999999999999"/>
      <point x="120.19999999999999" y="104.89999999999999" type="curve"/>
      <point x="170.6" y="424.3" type="line"/>
      <point x="176.5" y="428.0"/>
      <point x="187.0" y="431.7"/>
      <point x="194.9" y="431.7" type="curve" smooth="yes"/>
      <point x="211.1" y="431.7"/>
      <point x="221.0" y="417.0"/>
      <point x="221.0" y="371.0" type="curve" smooth="yes"/>
      <point x="221.0" y="244.7"/>
      <point x="184.9" y="101.8"/>
    </contour>
  </outline>
</glyph>
<glyph name="q" format="2">
  <advance width="352.9"/>
  <unicode hex="0071"/>
  <note>
12
</note>
  <outline>
    <contour>
      <point x="365.8" y="529.5" type="line"/>
      <point x="337.4" y="541.0"/>
      <point x="287.3" y="554.0"/>
      <point x="233.0" y="554.0" type="curve" smooth="yes"/>
      <point x="81.4" y="554.0"/>
      <point x="8.0" y="367.7"/>
      <point x="8.0" y="146.1" type="curve" smooth="yes"/>
      <point x="8.0" y="41.099999999999994"/>
      <point x="43.5" y="-10.0"/>
      <point x="105.2" y="-10.0" type="curve" smooth="yes"/>
      <point x="127.4" y="-10.0"/>
      <point x="149.3" y="0.0"/>
      <point x="164.0" y="12.8" type="curve"/>
      <point x="128.4" y="-210.0" type="line"/>
      <point x="246.7" y="-210.0" type="line"/>
    </contour>
    <contour>
      <point x="231.4" y="437.3" type="curve"/>
      <point x="181.0" y="120.3" type="line"/>
      <point x="174.4" y="114.69999999999999"/>
      <point x="164.7" y="111.6"/>
      <point x="157.89999999999998" y="111.6" type="curve" smooth="yes"/>
      <point x="140.3" y="111.6"/>
      <point x="132.8" y="134.0"/>
      <point x="132.8" y="156.2" type="curve" smooth="yes"/>
      <point x="132.8" y="271.2"/>
      <point x="160.0" y="440.4"/>
      <point x="215.1" y="440.4" type="curve" smooth="yes"/>
      <point x="219.5" y="440.4"/>
      <point x="225.1" y="439.5"/>
    </contour>
  </outline>
</glyph>
<glyph name="r" format="2">
  <advance width="241.6"/>
  <unicode hex="0072"/>
  <anchor x="42.8" y="0.0" name="bottom"/>
  <anchor x="195.5" y="544.0" name="top"/>
  <outline>
    <contour>
      <point x="177.39999999999998" y="544.0" type="line"/>
      <point x="70.2" y="544.0" type="line"/>
      <point x="-15.899999999999999" y="0.0" type="line"/>
      <point x="101.1" y="0.0" type="line"/>
      <point x="163.89999999999998" y="390.2" type="line"/>
      <point x="184.0" y="407.6"/>
      <point x="199.8" y="413.5"/>
      <point x="217.7" y="413.5" type="curve" smooth="yes"/>
      <point x="225.5" y="413.5"/>
      <point x="240.0" y="412.2"/>
      <point x="251.3" y="408.2" type="curve"/>
      <point x="291.2" y="545.6" type="line"/>
      <point x="277.1" y="552.7"/>
      <point x="265.5" y="554.0"/>
      <point x="251.5" y="554.0" type="curve" smooth="yes"/>
      <point x="227.1" y="554.0"/>
      <point x="200.7" y="538.4"/>
      <point x="170.7" y="502.6" type="curve"/>
    </contour>
  </outline>
</glyph>
<glyph name="s" format="2">
  <advance width="297.4"/>
  <unicode hex="0073"/>
  <anchor x="104.80000000000001" y="0.0" name="bottom"/>
  <anchor x="203.0" y="544.0" name="top"/>
  <outline>
    <contour>
      <point x="-27.2" y="18.599999999999998" type="line"/>
      <point x="6.199999999999999" y="0.5999999999999996"/>
      <point x="43.8" y="-10.0"/>
      <point x="101.39999999999999" y="-10.0" type="curve" smooth="yes"/>
      <point x="206.6" y="-10.0"/>
      <point x="274.2" y="55.0"/>
      <point x="274.2" y="178.20000000000002" type="curve" smooth="yes"/>
      <point x="274.2" y="323.4"/>
      <point x="144.2" y="326.4"/>
      <point x="144.2" y="388.8" type="curve" smooth="yes"/>
      <point x="144.2" y="417.0"/>
      <point x="162.2" y="435.2"/>
      <point x="196.79999999999998" y="435.2" type="curve" smooth="yes"/>
      <point x="223.0" y="435.2"/>
      <point x="254.39999999999998" y="427.20000000000005"/>
      <point x="281.0" y="416.0" type="curve"/>
      <point x="314.2" y="530.6" type="line"/>
      <point x="291.0" y="543.8"/>
      <point x="249.39999999999998" y="554.0"/>
      <point x="203.6" y="554.0" type="curve" smooth="yes"/>
      <point x="82.2" y="554.0"/>
      <point x="28.600000000000005" y="468.2"/>
      <point x="28.600000000000005" y="373.2" type="curve" smooth="yes"/>
      <point x="28.600000000000005" y="223.79999999999998"/>
      <point x="159.0" y="220.0"/>
      <point x="159.0" y="157.20000000000002" type="curve" smooth="yes"/>
      <point x="159.0" y="129.6"/>
      <point x="140.79999999999998" y="105.6"/>
      <point x="103.39999999999999" y="105.6" type="curve" smooth="yes"/>
      <point x="73.6" y="105.6"/>
      <point x="35.8" y="114.79999999999998"/>
      <point x="9.799999999999999" y="127.99999999999999" type="curve"/>
    </contour>
  </outline>
</glyph>
<glyph name="t" format="2">
  <advance width="224.6"/>
  <unicode hex="0074"/>
  <anchor x="95.7" y="0.0" name="bottom"/>
  <anchor x="108.8" y="292.4" name="center"/>
  <anchor x="167.7" y="657.3" name="top"/>
  <anchor x="278.8" y="757.5" name="topright"/>
  <outline>
    <contour>
      <point x="193.5" y="114.1" type="line"/>
      <point x="184.3" y="111.8"/>
      <point x="177.2" y="110.5"/>
      <point x="170.7" y="110.5" type="curve" smooth="yes"/>
      <point x="146.6" y="110.5"/>
      <point x="138.3" y="125.0"/>
      <point x="138.3" y="148.2" type="curve" smooth="yes"/>
      <point x="138.3" y="156.7"/>
      <point x="139.6" y="166.2"/>
      <point x="140.89999999999998" y="177.3" type="curve" smooth="yes"/>
      <point x="182.5" y="433.3" type="line"/>
      <point x="247.4" y="433.3" type="line"/>
      <point x="266.5" y="544.0" type="line"/>
      <point x="201.6" y="544.0" type="line"/>
      <point x="219.1" y="657.3" type="line"/>
      <point x="116.9" y="657.3" type="line"/>
      <point x="83.2" y="544.0" type="line"/>
      <point x="44.1" y="538.0" type="line"/>
      <point x="26.0" y="434.0" type="line"/>
      <point x="64.1" y="434.0" type="line"/>
      <point x="20.4" y="162.6" type="line" smooth="yes"/>
      <point x="16.0" y="135.8"/>
      <point x="12.200000000000001" y="100.2"/>
      <point x="12.200000000000001" y="79.9" type="curve" smooth="yes"/>
      <point x="12.200000000000001" y="9.9"/>
      <point x="55.2" y="-10.0"/>
      <point x="99.1" y="-10.0" type="curve" smooth="yes"/>
      <point x="130.0" y="-10.0"/>
      <point x="158.0" y="-3.8000000000000007"/>
      <point x="181.0" y="9.6" type="curve"/>
    </contour>
  </outline>
</glyph>
<glyph name="u" format="2">
  <advance width="351.8"/>
  <unicode hex="0075"/>
  <note>
15
</note>
  <anchor x="136.3" y="0.0" name="bottom"/>
  <anchor x="312.7" y="10.5" name="ogonek"/>
  <anchor x="217.7892" y="544.0" name="top"/>
  <anchor x="342.1" y="544.0" name="topright"/>
  <outline>
    <contour>
      <point x="80.4" y="-10.0" type="curve" smooth="yes"/>
      <point x="116.5" y="-10.0"/>
      <point x="142.5" y="4.8999999999999995"/>
      <point x="176.4" y="38.2" type="curve"/>
      <point x="185.0" y="10.2"/>
      <point x="211.6" y="-10.0"/>
      <point x="246.7" y="-10.0" type="curve" smooth="yes"/>
      <point x="268.7" y="-10.0"/>
      <point x="296.5" y="-1.8000000000000007"/>
      <point x="312.7" y="10.5" type="curve"/>
      <point x="326.6" y="114.8" type="line"/>
      <point x="320.9" y="112.6"/>
      <point x="314.5" y="111.69999999999999"/>
      <point x="311.0" y="111.69999999999999" type="curve" smooth="yes"/>
      <point x="301.0" y="111.69999999999999"/>
      <point x="297.7" y="118.19999999999999"/>
      <point x="297.7" y="129.2" type="curve" smooth="yes"/>
      <point x="297.7" y="136.0"/>
      <point x="299.3" y="147.89999999999998"/>
      <point x="363.1" y="544.0" type="curve"/>
      <point x="246.1" y="544.0" type="line"/>
      <point x="178.2" y="123.39999999999999" type="line"/>
      <point x="165.9" y="113.6"/>
      <point x="155.7" y="109.19999999999999"/>
      <point x="143.89999999999998" y="109.19999999999999" type="curve" smooth="yes"/>
      <point x="129.6" y="109.19999999999999"/>
      <point x="122.0" y="120.69999999999999"/>
      <point x="123.39999999999999" y="135.8" type="curve" smooth="yes"/>
      <point x="136.0" y="221.2"/>
      <point x="152.39999999999998" y="323.79999999999995"/>
      <point x="187.0" y="544.0" type="curve"/>
      <point x="69.3" y="544.0" type="line"/>
      <point x="23.4" y="254.6"/>
      <point x="-2.0" y="131.2"/>
      <point x="-2.0" y="73.8" type="curve" smooth="yes"/>
      <point x="-2.0" y="25.6"/>
      <point x="26.200000000000003" y="-10.0"/>
    </contour>
  </outline>
</glyph>
<glyph name="v" format="2">
  <advance width="333.8"/>
  <unicode hex="0076"/>
  <outline>
    <contour>
      <point x="197.5" y="-1.2000000000000002" type="line"/>
      <point x="286.4" y="233.8"/>
      <point x="356.3" y="385.6"/>
      <point x="359.8" y="544.0" type="curve"/>
      <point x="237.2" y="544.0" type="line"/>
      <point x="236.3" y="415.4"/>
      <point x="203.0" y="322.1"/>
      <point x="138.3" y="125.1" type="curve"/>
      <point x="167.39999999999998" y="544.0" type="line"/>
      <point x="41.3" y="544.0" type="line"/>
      <point x="42.5" y="-1.2000000000000002" type="line"/>
    </contour>
  </outline>
</glyph>
<glyph name="w" format="2">
  <advance width="535.7"/>
  <unicode hex="0077"/>
  <note>
15
</note>
  <anchor x="227.7" y="0.0" name="bottom"/>
  <anchor x="295.5" y="544.0" name="top"/>
  <outline>
    <contour>
      <point x="407.5" y="0.0" type="line"/>
      <point x="501.9" y="266.3"/>
      <point x="556.3" y="393.5"/>
      <point x="559.7" y="544.0" type="curve"/>
      <point x="439.2" y="544.0" type="line"/>
      <point x="432.4" y="416.1"/>
      <point x="406.5" y="321.1"/>
      <point x="353.9" y="132.6" type="curve"/>
      <point x="372.1" y="526.3" type="line"/>
      <point x="238.1" y="526.3" type="line"/>
      <point x="206.6" y="394.3"/>
      <point x="175.4" y="263.0"/>
      <point x="143.9" y="131.0" type="curve"/>
      <point x="166.0" y="544.0" type="line"/>
      <point x="39.5" y="544.0" type="line"/>
      <point x="46.7" y="0.0" type="line"/>
      <point x="196.8" y="0.0" type="line"/>
      <point x="222.7" y="113.5"/>
      <point x="248.2" y="227.3"/>
      <point x="274.1" y="340.8" type="curve"/>
      <point x="264.4" y="0.0" type="line"/>
    </contour>
  </outline>
</glyph>
<glyph name="x" format="2">
  <advance width="363.6"/>
  <unicode hex="0078"/>
  <outline>
    <contour>
      <point x="256.7" y="544.0" type="line"/>
      <point x="256.7" y="476.9"/>
      <point x="236.5" y="423.0"/>
      <point x="190.2" y="338.3" type="curve"/>
      <point x="183.1" y="545.2" type="line"/>
      <point x="50.6" y="544.0" type="line"/>
      <point x="82.1" y="274.7" type="line"/>
      <point x="27.1" y="181.7"/>
      <point x="-16.9" y="92.0"/>
      <point x="-24.6" y="0.0" type="curve"/>
      <point x="105.8" y="0.0" type="line"/>
      <point x="111.0" y="68.8"/>
      <point x="135.8" y="137.7"/>
      <point x="173.6" y="207.6" type="curve"/>
      <point x="185.3" y="-0.6000000000000001" type="line"/>
      <point x="319.9" y="0.30000000000000004" type="line"/>
      <point x="281.7" y="271.5" type="line"/>
      <point x="354.2" y="385.5"/>
      <point x="383.5" y="497.4"/>
      <point x="383.5" y="544.0" type="curve"/>
    </contour>
  </outline>
</glyph>
<glyph name="y" format="2">
  <advance width="333.79999999999995"/>
  <unicode hex="0079"/>
  <anchor x="192.39999999999998" y="-126.00000000000001" name="bottom"/>
  <anchor x="201.2" y="544.0" name="top"/>
  <outline>
    <contour>
      <point x="240.79999999999998" y="547.0" type="line"/>
      <point x="229.6" y="387.6"/>
      <point x="192.39999999999998" y="265.40000000000003"/>
      <point x="144.6" y="124.79999999999998" type="curve"/>
      <point x="160.79999999999998" y="547.0" type="line"/>
      <point x="38.6" y="546.4" type="line"/>
      <point x="42.199999999999996" y="0.0" type="line"/>
      <point x="84.8" y="0.0" type="line"/>
      <point x="61.8" y="-63.6"/>
      <point x="31.0" y="-127.0"/>
      <point x="-14.0" y="-210.0" type="curve"/>
      <point x="107.19999999999999" y="-213.0" type="line"/>
      <point x="247.60000000000002" y="92.19999999999999"/>
      <point x="335.4" y="299.0"/>
      <point x="362.79999999999995" y="545.8000000000001" type="curve"/>
    </contour>
  </outline>
</glyph>
<glyph name="z" format="2">
  <advance width="312.3"/>
  <unicode hex="007A"/>
  <anchor x="123.19999999999999" y="0.0" name="bottom"/>
  <anchor x="153.9" y="275.0" name="center"/>
  <anchor x="200.6" y="544.0" name="top"/>
  <outline>
    <contour>
      <point x="-23.0" y="0.0" type="line"/>
      <point x="260.1" y="0.0" type="line"/>
      <point x="277.8" y="114.89999999999999" type="line"/>
      <point x="121.49999999999999" y="114.89999999999999" type="line"/>
      <point x="313.6" y="432.2" type="line"/>
      <point x="335.9" y="544.0" type="line"/>
      <point x="63.8" y="544.0" type="line"/>
      <point x="45.400000000000006" y="427.7" type="line"/>
      <point x="189.3" y="427.7" type="line"/>
      <point x="-7.0" y="103.39999999999999" type="line"/>
    </contour>
  </outline>
</glyph>
<glyph name="braceleft" format="2">
  <advance width="222.8"/>
  <unicode hex="007B"/>
  <outline>
    <contour>
      <point x="-9.2" y="-98.4" type="curve" smooth="yes"/>
      <point x="-9.2" y="-175.4"/>
      <point x="26.0" y="-210.0"/>
      <point x="73.9" y="-210.0" type="curve" smooth="yes"/>
      <point x="127.6" y="-210.0" type="line"/>
      <point x="146.7" y="-100.4" type="line"/>
      <point x="125.9" y="-100.4" type="line" smooth="yes"/>
      <point x="106.89999999999999" y="-100.4"/>
      <point x="98.39999999999999" y="-84.60000000000001"/>
      <point x="98.39999999999999" y="-58.2" type="curve" smooth="yes"/>
      <point x="98.39999999999999" y="26.4"/>
      <point x="155.2" y="97.7"/>
      <point x="155.2" y="178.2" type="curve" smooth="yes"/>
      <point x="155.2" y="213.0"/>
      <point x="146.9" y="245.4"/>
      <point x="122.4" y="267.7" type="curve"/>
      <point x="173.2" y="300.4"/>
      <point x="196.6" y="368.5"/>
      <point x="196.6" y="429.7" type="curve" smooth="yes"/>
      <point x="196.6" y="462.8"/>
      <point x="193.9" y="488.3"/>
      <point x="193.9" y="526.5" type="curve" smooth="yes"/>
      <point x="193.9" y="571.2"/>
      <point x="204.7" y="630.4"/>
      <point x="246.3" y="630.4" type="curve" smooth="yes"/>
      <point x="264.5" y="630.4" type="line"/>
      <point x="282.2" y="740.0" type="line"/>
      <point x="230.0" y="740.0" type="line" smooth="yes"/>
      <point x="123.9" y="740.0"/>
      <point x="90.5" y="624.5"/>
      <point x="90.5" y="516.8" type="curve" smooth="yes"/>
      <point x="90.5" y="474.8"/>
      <point x="95.3" y="448.7"/>
      <point x="95.3" y="415.7" type="curve" smooth="yes"/>
      <point x="95.3" y="377.4"/>
      <point x="89.8" y="325.6"/>
      <point x="55.2" y="325.6" type="curve" smooth="yes"/>
      <point x="41.5" y="325.6" type="line"/>
      <point x="23.1" y="210.0" type="line"/>
      <point x="36.2" y="210.0" type="line" smooth="yes"/>
      <point x="53.0" y="210.0"/>
      <point x="57.7" y="197.8"/>
      <point x="57.7" y="178.4" type="curve" smooth="yes"/>
      <point x="57.7" y="101.5"/>
      <point x="-9.2" y="11.4"/>
    </contour>
  </outline>
</glyph>
<glyph name="bar" format="2">
  <advance width="145.2"/>
  <unicode hex="007C"/>
  <outline>
    <contour>
      <point x="206.3" y="790.7" type="line"/>
      <point x="102.2" y="790.7" type="line"/>
      <point x="-56.8" y="-210.0" type="line"/>
      <point x="47.99999999999999" y="-210.0" type="line"/>
    </contour>
  </outline>
</glyph>
<glyph name="braceright" format="2">
  <advance width="222.8"/>
  <unicode hex="007D"/>
  <outline>
    <contour>
      <point x="229.0" y="628.4" type="curve" smooth="yes"/>
      <point x="229.0" y="706.1"/>
      <point x="193.1" y="740.7"/>
      <point x="145.2" y="740.7" type="curve" smooth="yes"/>
      <point x="91.5" y="740.7" type="line"/>
      <point x="72.4" y="631.1" type="line"/>
      <point x="86.2" y="631.1" type="line" smooth="yes"/>
      <point x="105.9" y="631.1"/>
      <point x="115.1" y="614.6"/>
      <point x="115.1" y="588.2" type="curve" smooth="yes"/>
      <point x="115.1" y="502.2"/>
      <point x="58.3" y="447.6"/>
      <point x="58.3" y="352.4" type="curve" smooth="yes"/>
      <point x="58.3" y="319.7"/>
      <point x="65.9" y="287.3"/>
      <point x="91.8" y="265.7" type="curve"/>
      <point x="41.0" y="232.3"/>
      <point x="16.900000000000002" y="165.6"/>
      <point x="16.900000000000002" y="103.7" type="curve" smooth="yes"/>
      <point x="16.900000000000002" y="70.6"/>
      <point x="19.6" y="42.4"/>
      <point x="19.6" y="5.599999999999994" type="curve" smooth="yes"/>
      <point x="19.6" y="-39.10000000000001"/>
      <point x="9.5" y="-99.7"/>
      <point x="-32.1" y="-99.7" type="curve" smooth="yes"/>
      <point x="-44.7" y="-99.7" type="line"/>
      <point x="-62.4" y="-210.0" type="line"/>
      <point x="-10.900000000000002" y="-210.0" type="line" smooth="yes"/>
      <point x="95.19999999999999" y="-210.0"/>
      <point x="128.6" y="-85.4"/>
      <point x="128.6" y="-0.10000000000000142" type="curve" smooth="yes"/>
      <point x="128.6" y="60.8"/>
      <point x="123.8" y="92.4"/>
      <point x="123.8" y="120.5" type="curve" smooth="yes"/>
      <point x="123.8" y="157.4"/>
      <point x="130.7" y="207.8"/>
      <point x="163.9" y="207.8" type="curve" smooth="yes"/>
      <point x="177.6" y="207.8" type="line"/>
      <point x="196.0" y="322.7" type="line"/>
      <point x="182.9" y="322.7" type="line" smooth="yes"/>
      <point x="166.1" y="322.7"/>
      <point x="161.39999999999998" y="334.9"/>
      <point x="161.39999999999998" y="354.3" type="curve" smooth="yes"/>
      <point x="161.39999999999998" y="431.9"/>
      <point x="229.0" y="508.8"/>
    </contour>
  </outline>
</glyph>
<glyph name="asciitilde" format="2">
  <advance width="375.8"/>
  <unicode hex="007E"/>
  <outline>
    <contour>
      <point x="317.8" y="241.5" type="curve"/>
      <point x="335.8" y="358.2" type="line"/>
      <point x="311.2" y="333.6"/>
      <point x="290.2" y="324.7"/>
      <point x="267.0" y="324.7" type="curve" smooth="yes"/>
      <point x="209.8" y="324.7"/>
      <point x="202.0" y="405.8"/>
      <point x="142.2" y="405.8" type="curve" smooth="yes"/>
      <point x="109.7" y="405.8"/>
      <point x="77.8" y="385.6"/>
      <point x="68.9" y="373.8" type="curve"/>
      <point x="50.9" y="257.1" type="line"/>
      <point x="60.400000000000006" y="269.8"/>
      <point x="92.3" y="290.6"/>
      <point x="123.9" y="290.6" type="curve" smooth="yes"/>
      <point x="181.0" y="290.6"/>
      <point x="189.1" y="209.5"/>
      <point x="249.0" y="209.5" type="curve" smooth="yes"/>
      <point x="273.1" y="209.5"/>
      <point x="293.8" y="217.8"/>
    </contour>
  </outline>
</glyph>
<glyph name="cent" format="2">
  <advance width="369.0"/>
  <unicode hex="00A2"/>
  <outline>
    <contour>
      <point x="99.0" y="-105.7" type="line"/>
      <point x="205.89999999999998" y="-105.7" type="line"/>
      <point x="221.6" y="-4.4" type="line"/>
      <point x="242.5" y="-1.3000000000000007"/>
      <point x="262.0" y="3.5"/>
      <point x="274.6" y="10.6" type="curve"/>
      <point x="273.7" y="138.6" type="line"/>
      <point x="257.6" y="134.3"/>
      <point x="238.6" y="129.5"/>
      <point x="224.39999999999998" y="129.5" type="curve" smooth="yes"/>
      <point x="191.8" y="129.5"/>
      <point x="183.1" y="160.0"/>
      <point x="183.1" y="200.89999999999998" type="curve" smooth="yes"/>
      <point x="183.1" y="301.3"/>
      <point x="209.0" y="413.2"/>
      <point x="270.1" y="413.2" type="curve" smooth="yes"/>
      <point x="283.9" y="413.2"/>
      <point x="298.0" y="410.9"/>
      <point x="310.3" y="406.2" type="curve"/>
      <point x="351.6" y="539.7" type="line"/>
      <point x="340.6" y="544.1"/>
      <point x="326.7" y="547.8"/>
      <point x="311.1" y="550.2" type="curve"/>
      <point x="327.1" y="648.3" type="line"/>
      <point x="220.2" y="648.3" type="line"/>
      <point x="202.8" y="540.4" type="line"/>
      <point x="98.5" y="489.6"/>
      <point x="54.9" y="299.6"/>
      <point x="54.9" y="146.5" type="curve" smooth="yes"/>
      <point x="54.9" y="62.099999999999994"/>
      <point x="79.3" y="20.099999999999998"/>
      <point x="115.1" y="2.1999999999999993" type="curve"/>
    </contour>
  </outline>
</glyph>
<glyph name="sterling" format="2">
  <advance width="369.0"/>
  <unicode hex="00A3"/>
  <outline>
    <contour>
      <point x="13.4" y="0.0" type="line"/>
      <point x="275.6" y="0.0" type="line"/>
      <point x="294.0" y="118.0" type="line"/>
      <point x="171.4" y="118.0" type="line"/>
      <point x="210.4" y="170.0"/>
      <point x="238.2" y="223.6"/>
      <point x="238.2" y="300.6" type="curve" smooth="yes"/>
      <point x="238.2" y="349.2"/>
      <point x="226.4" y="402.40000000000003"/>
      <point x="226.4" y="449.2" type="curve" smooth="yes"/>
      <point x="226.4" y="540.6"/>
      <point x="263.2" y="579.0"/>
      <point x="305.4" y="579.0" type="curve" smooth="yes"/>
      <point x="319.79999999999995" y="579.0"/>
      <point x="333.0" y="576.8"/>
      <point x="348.59999999999997" y="568.6" type="curve"/>
      <point x="385.59999999999997" y="681.8000000000001" type="line"/>
      <point x="361.79999999999995" y="700.1999999999999"/>
      <point x="325.59999999999997" y="710.0"/>
      <point x="294.0" y="710.0" type="curve" smooth="yes"/>
      <point x="166.6" y="710.0"/>
      <point x="110.39999999999999" y="589.6"/>
      <point x="110.39999999999999" y="466.4" type="curve" smooth="yes"/>
      <point x="110.39999999999999" y="394.8"/>
      <point x="128.20000000000002" y="345.0"/>
      <point x="128.20000000000002" y="284.8" type="curve" smooth="yes"/>
      <point x="128.20000000000002" y="200.79999999999998"/>
      <point x="78.2" y="136.8"/>
      <point x="26.0" y="88.6" type="curve"/>
    </contour>
    <contour>
      <point x="58.6" y="320.8" type="line"/>
      <point x="307.8" y="320.8" type="line"/>
      <point x="318.79999999999995" y="396.2" type="line"/>
      <point x="70.2" y="396.2" type="line"/>
    </contour>
  </outline>
</glyph>
<glyph name="currency" format="2">
  <advance width="380.2"/>
  <unicode hex="00A4"/>
  <outline>
    <contour>
      <point x="70.69999999999999" y="102.5" type="line"/>
      <point x="132.5" y="161.4" type="line"/>
      <point x="143.2" y="154.0"/>
      <point x="157.0" y="150.7"/>
      <point x="173.0" y="150.7" type="curve" smooth="yes"/>
      <point x="187.6" y="150.7"/>
      <point x="201.9" y="154.0"/>
      <point x="214.7" y="160.7" type="curve"/>
      <point x="258.8" y="102.5" type="line"/>
      <point x="346.2" y="185.8" type="line"/>
      <point x="308.1" y="236.3" type="line"/>
      <point x="320.4" y="254.5"/>
      <point x="328.6" y="276.3"/>
      <point x="330.0" y="299.0" type="curve" smooth="yes"/>
      <point x="331.4" y="314.6"/>
      <point x="329.6" y="330.0"/>
      <point x="325.6" y="344.5" type="curve"/>
      <point x="379.7" y="395.0" type="line"/>
      <point x="318.3" y="478.3" type="line"/>
      <point x="257.9" y="422.2" type="line"/>
      <point x="246.9" y="428.9"/>
      <point x="233.1" y="433.2"/>
      <point x="217.8" y="433.2" type="curve" smooth="yes"/>
      <point x="201.1" y="433.2"/>
      <point x="185.4" y="428.2"/>
      <point x="171.2" y="421.5" type="curve"/>
      <point x="130.2" y="478.3" type="line"/>
      <point x="42.0" y="395.0" type="line"/>
      <point x="81.30000000000001" y="341.3" type="line"/>
      <point x="70.4" y="324.9"/>
      <point x="63.2" y="305.5"/>
      <point x="61.8" y="284.9" type="curve" smooth="yes"/>
      <point x="60.4" y="269.0"/>
      <point x="61.5" y="253.3"/>
      <point x="65.5" y="239.5" type="curve"/>
      <point x="8.5" y="185.8" type="line"/>
    </contour>
    <contour>
      <point x="187.5" y="237.2" type="curve" smooth="yes"/>
      <point x="160.6" y="237.2"/>
      <point x="144.2" y="256.2"/>
      <point x="146.3" y="285.1" type="curve" smooth="yes"/>
      <point x="148.4" y="318.6"/>
      <point x="174.1" y="346.0"/>
      <point x="204.3" y="346.0" type="curve" smooth="yes"/>
      <point x="231.5" y="346.0"/>
      <point x="246.9" y="324.9"/>
      <point x="244.8" y="297.1" type="curve" smooth="yes"/>
      <point x="242.7" y="262.5"/>
      <point x="218.0" y="237.2"/>
    </contour>
  </outline>
</glyph>
<glyph name="yen" format="2">
  <advance width="369.0"/>
  <unicode hex="00A5"/>
  <outline>
    <contour>
      <point x="55.0" y="303.6" type="line"/>
      <point x="130.0" y="303.6" type="line"/>
      <point x="122.8" y="257.8" type="line"/>
      <point x="48.4" y="257.8" type="line"/>
      <point x="36.2" y="183.0" type="line"/>
      <point x="111.2" y="183.0" type="line"/>
      <point x="82.0" y="0.0" type="line"/>
      <point x="200.8" y="0.0" type="line"/>
      <point x="230.39999999999998" y="183.0" type="line"/>
      <point x="306.2" y="183.0" type="line"/>
      <point x="317.79999999999995" y="257.8" type="line"/>
      <point x="241.60000000000002" y="257.8" type="line"/>
      <point x="248.79999999999998" y="303.6" type="line"/>
      <point x="325.4" y="303.6" type="line"/>
      <point x="337.0" y="378.40000000000003" type="line"/>
      <point x="261.4" y="378.40000000000003" type="line"/>
      <point x="414.79999999999995" y="701.0" type="line"/>
      <point x="286.2" y="702.4" type="line"/>
      <point x="216.39999999999998" y="469.79999999999995" type="line"/>
      <point x="217.79999999999998" y="700.6" type="line"/>
      <point x="89.2" y="700.0" type="line"/>
      <point x="142.0" y="378.40000000000003" type="line"/>
      <point x="66.60000000000001" y="378.40000000000003" type="line"/>
    </contour>
  </outline>
</glyph>
<glyph name="brokenbar" format="2">
  <advance width="149.0"/>
  <unicode hex="00A6"/>
  <outline>
    <contour>
      <point x="145.1" y="391.0" type="line"/>
      <point x="210.5" y="790.7" type="line"/>
      <point x="106.4" y="790.7" type="line"/>
      <point x="41.0" y="391.0" type="line"/>
    </contour>
    <contour>
      <point x="7.900000000000002" y="190.7" type="line"/>
      <point x="-56.5" y="-210.0" type="line"/>
      <point x="47.599999999999994" y="-210.0" type="line"/>
      <point x="112.69999999999999" y="190.7" type="line"/>
    </contour>
  </outline>
</glyph>
<glyph name="section" format="2">
  <advance width="380.6"/>
  <unicode hex="00A7"/>
  <outline>
    <contour>
      <point x="7.199999999999999" y="-51.400000000000006" type="curve"/>
      <point x="-40.0" y="-185.0" type="line"/>
      <point x="-10.2" y="-207.5"/>
      <point x="46.2" y="-220.0"/>
      <point x="75.7" y="-220.0" type="curve" smooth="yes"/>
      <point x="247.1" y="-220.0"/>
      <point x="335.2" y="-14.700000000000003"/>
      <point x="335.2" y="154.7" type="curve" smooth="yes"/>
      <point x="335.2" y="287.3"/>
      <point x="268.3" y="391.4"/>
      <point x="268.3" y="512.7" type="curve" smooth="yes"/>
      <point x="268.3" y="562.0"/>
      <point x="288.1" y="605.1"/>
      <point x="325.1" y="605.1" type="curve" smooth="yes"/>
      <point x="335.8" y="605.1"/>
      <point x="342.6" y="600.7"/>
      <point x="354.9" y="593.7" type="curve"/>
      <point x="405.1" y="726.4" type="line"/>
      <point x="384.2" y="742.5"/>
      <point x="336.4" y="749.7"/>
      <point x="312.4" y="749.7" type="curve" smooth="yes"/>
      <point x="126.2" y="749.7"/>
      <point x="44.7" y="563.0"/>
      <point x="44.7" y="383.5" type="curve" smooth="yes"/>
      <point x="44.7" y="230.6"/>
      <point x="111.3" y="100.1"/>
      <point x="111.3" y="-6.6000000000000085" type="curve" smooth="yes"/>
      <point x="111.3" y="-42.2"/>
      <point x="94.0" y="-76.4"/>
      <point x="61.3" y="-76.4" type="curve" smooth="yes"/>
      <point x="42.7" y="-76.4"/>
      <point x="23.2" y="-69.30000000000001"/>
    </contour>
    <contour>
      <point x="256.9" y="665.9" type="curve"/>
      <point x="206.0" y="621.3"/>
      <point x="186.9" y="552.4"/>
      <point x="186.9" y="493.6" type="curve" smooth="yes"/>
      <point x="186.9" y="365.6"/>
      <point x="249.3" y="260.8"/>
      <point x="249.3" y="131.7" type="curve" smooth="yes"/>
      <point x="249.3" y="13.199999999999996"/>
      <point x="188.1" y="-124.5"/>
      <point x="94.3" y="-138.8" type="curve"/>
      <point x="169.5" y="-105.5"/>
      <point x="194.4" y="-32.900000000000006"/>
      <point x="194.4" y="34.69999999999999" type="curve" smooth="yes"/>
      <point x="194.4" y="156.2"/>
      <point x="130.6" y="270.0"/>
      <point x="130.6" y="396.2" type="curve" smooth="yes"/>
      <point x="130.6" y="507.8"/>
      <point x="169.8" y="621.9"/>
    </contour>
  </outline>
</glyph>
<glyph name="copyright" format="2">
  <advance width="541.9"/>
  <unicode hex="00A9"/>
  <outline>
    <contour>
      <point x="243.6" y="-10.0" type="curve" smooth="yes"/>
      <point x="435.2" y="-10.0"/>
      <point x="529.5" y="232.8"/>
      <point x="529.5" y="474.9" type="curve" smooth="yes"/>
      <point x="529.5" y="635.0"/>
      <point x="451.0" y="710.9"/>
      <point x="321.9" y="710.9" type="curve" smooth="yes"/>
      <point x="130.0" y="710.9"/>
      <point x="35.7" y="468.1"/>
      <point x="35.7" y="226.0" type="curve" smooth="yes"/>
      <point x="35.7" y="65.9"/>
      <point x="114.19999999999999" y="-10.0"/>
    </contour>
    <contour>
      <point x="265.5" y="128.2" type="curve" smooth="yes"/>
      <point x="284.4" y="128.2"/>
      <point x="309.9" y="133.0"/>
      <point x="323.79999999999995" y="141.3" type="curve"/>
      <point x="323.79999999999995" y="213.9" type="line"/>
      <point x="315.7" y="210.5"/>
      <point x="302.2" y="208.1"/>
      <point x="293.0" y="208.1" type="curve" smooth="yes"/>
      <point x="268.29999999999995" y="208.1"/>
      <point x="253.0" y="235.2"/>
      <point x="253.0" y="281.8" type="curve" smooth="yes"/>
      <point x="253.0" y="380.3"/>
      <point x="284.4" y="478.7"/>
      <point x="330.1" y="478.7" type="curve" smooth="yes"/>
      <point x="338.7" y="478.7"/>
      <point x="347.1" y="477.3"/>
      <point x="354.4" y="472.9" type="curve"/>
      <point x="380.0" y="556.7" type="line"/>
      <point x="370.6" y="562.5"/>
      <point x="355.0" y="567.7"/>
      <point x="330.0" y="567.7" type="curve" smooth="yes"/>
      <point x="249.1" y="567.7"/>
      <point x="169.2" y="446.6"/>
      <point x="169.2" y="281.8" type="curve" smooth="yes"/>
      <point x="169.2" y="177.9"/>
      <point x="204.5" y="128.2"/>
    </contour>
    <contour>
      <point x="247.1" y="31.799999999999997" type="curve" smooth="yes"/>
      <point x="144.1" y="31.799999999999997"/>
      <point x="79.9" y="92.19999999999999"/>
      <point x="79.9" y="226.8" type="curve" smooth="yes"/>
      <point x="79.9" y="439.8"/>
      <point x="156.2" y="669.1"/>
      <point x="318.1" y="669.1" type="curve" smooth="yes"/>
      <point x="421.1" y="669.1"/>
      <point x="485.29999999999995" y="608.7"/>
      <point x="485.29999999999995" y="474.1" type="curve" smooth="yes"/>
      <point x="485.29999999999995" y="261.1"/>
      <point x="409.0" y="31.799999999999997"/>
    </contour>
  </outline>
</glyph>
<glyph name="ordfeminine" format="2">
  <advance width="249.0"/>
  <unicode hex="00AA"/>
  <outline>
    <contour>
      <point x="24.6" y="259.3" type="line"/>
      <point x="223.5" y="259.3" type="line"/>
      <point x="233.5" y="324.3" type="line"/>
      <point x="34.6" y="324.3" type="line"/>
    </contour>
    <component base="a.superior" xOffset="8.6"/>
  </outline>
</glyph>
<glyph name="logicalnot" format="2">
  <advance width="372.6"/>
  <unicode hex="00AC"/>
  <outline>
    <contour>
      <point x="49.5" y="323.7" type="line"/>
      <point x="225.0" y="323.7" type="line"/>
      <point x="203.2" y="178.4" type="line"/>
      <point x="315.3" y="178.4" type="line"/>
      <point x="355.5" y="434.1" type="line"/>
      <point x="67.9" y="434.1" type="line"/>
    </contour>
  </outline>
</glyph>
<glyph name="registered" format="2">
  <advance width="512.0"/>
  <unicode hex="00AE"/>
  <outline>
    <contour>
      <point x="259.5" y="208.0" type="curve" smooth="yes"/>
      <point x="417.1" y="208.0"/>
      <point x="530.3" y="402.1"/>
      <point x="530.3" y="656.5" type="curve" smooth="yes"/>
      <point x="530.3" y="808.8"/>
      <point x="465.29999999999995" y="893.6"/>
      <point x="339.8" y="893.6" type="curve" smooth="yes"/>
      <point x="182.2" y="893.6"/>
      <point x="69.0" y="699.5"/>
      <point x="69.0" y="445.1" type="curve" smooth="yes"/>
      <point x="69.0" y="292.8"/>
      <point x="134.0" y="208.0"/>
    </contour>
    <contour>
      <point x="262.29999999999995" y="247.1" type="curve" smooth="yes"/>
      <point x="162.5" y="247.1"/>
      <point x="109.1" y="318.8"/>
      <point x="109.1" y="443.6" type="curve" smooth="yes"/>
      <point x="109.1" y="674.7"/>
      <point x="202.3" y="854.5"/>
      <point x="337.0" y="854.5" type="curve" smooth="yes"/>
      <point x="436.79999999999995" y="854.5"/>
      <point x="490.2" y="782.8"/>
      <point x="490.2" y="658.0" type="curve" smooth="yes"/>
      <point x="490.2" y="426.9"/>
      <point x="397.0" y="247.1"/>
    </contour>
    <contour>
      <point x="180.39999999999998" y="360.7" type="line"/>
      <point x="256.2" y="360.7" type="line"/>
      <point x="276.8" y="489.8" type="line"/>
      <point x="281.2" y="489.2"/>
      <point x="285.6" y="488.6"/>
      <point x="291.6" y="488.9" type="curve"/>
      <point x="292.9" y="495.4" type="line"/>
      <point x="366.9" y="500.5"/>
      <point x="415.9" y="563.6"/>
      <point x="415.9" y="654.4" type="curve" smooth="yes"/>
      <point x="415.9" y="726.3"/>
      <point x="382.29999999999995" y="763.0"/>
      <point x="324.5" y="763.0" type="curve" smooth="yes"/>
      <point x="292.0" y="763.0"/>
      <point x="268.4" y="760.3"/>
      <point x="243.1" y="756.3" type="curve"/>
    </contour>
    <contour>
      <point x="297.8" y="552.9" type="curve" smooth="yes"/>
      <point x="293.7" y="552.9"/>
      <point x="289.79999999999995" y="554.2"/>
      <point x="286.5" y="555.2" type="curve"/>
      <point x="308.5" y="689.4" type="line"/>
      <point x="313.7" y="690.7"/>
      <point x="318.3" y="691.7"/>
      <point x="323.1" y="691.7" type="curve" smooth="yes"/>
      <point x="335.2" y="691.7"/>
      <point x="341.1" y="677.8"/>
      <point x="341.1" y="655.0" type="curve" smooth="yes"/>
      <point x="341.1" y="600.8"/>
      <point x="320.1" y="552.9"/>
    </contour>
    <contour>
      <point x="351.79999999999995" y="355.6" type="curve" smooth="yes"/>
      <point x="358.29999999999995" y="355.6"/>
      <point x="372.5" y="358.0"/>
      <point x="378.7" y="361.1" type="curve"/>
      <point x="387.4" y="444.9" type="line"/>
      <point x="385.4" y="444.3"/>
      <point x="383.4" y="444.3"/>
      <point x="381.7" y="444.3" type="curve" smooth="yes"/>
      <point x="362.29999999999995" y="444.3"/>
      <point x="351.7" y="466.3"/>
      <point x="345.7" y="525.7" type="curve"/>
      <point x="284.5" y="508.0" type="line"/>
      <point x="301.1" y="364.4"/>
      <point x="320.6" y="355.6"/>
    </contour>
  </outline>
</glyph>
<glyph name="degree" format="2">
  <advance width="265.3"/>
  <unicode hex="00B0"/>
  <outline>
    <contour>
      <point x="155.4" y="416.4" type="curve" smooth="yes"/>
      <point x="250.8" y="416.4"/>
      <point x="291.6" y="525.3"/>
      <point x="291.6" y="607.3" type="curve" smooth="yes"/>
      <point x="291.6" y="668.4"/>
      <point x="267.0" y="715.4"/>
      <point x="202.4" y="715.4" type="curve" smooth="yes"/>
      <point x="107.1" y="715.4"/>
      <point x="65.5" y="607.0"/>
      <point x="65.5" y="525.0" type="curve" smooth="yes"/>
      <point x="65.5" y="461.7"/>
      <point x="93.3" y="416.4"/>
    </contour>
    <contour>
      <point x="169.6" y="510.6" type="curve" smooth="yes"/>
      <point x="152.9" y="510.6"/>
      <point x="145.1" y="524.8"/>
      <point x="145.1" y="546.6" type="curve" smooth="yes"/>
      <point x="145.1" y="579.5"/>
      <point x="158.5" y="618.4"/>
      <point x="186.8" y="618.4" type="curve" smooth="yes"/>
      <point x="204.2" y="618.4"/>
      <point x="212.0" y="603.6"/>
      <point x="212.0" y="582.5" type="curve" smooth="yes"/>
      <point x="212.0" y="550.0"/>
      <point x="197.9" y="510.6"/>
    </contour>
  </outline>
</glyph>
<glyph name="plusminus" format="2">
  <advance width="373.2"/>
  <unicode hex="00B1"/>
  <outline>
    <contour>
      <point x="291.7" y="22.200000000000003" type="line"/>
      <point x="310.1" y="139.9" type="line"/>
      <point x="218.2" y="139.9" type="line"/>
      <point x="237.2" y="258.4" type="line"/>
      <point x="328.8" y="258.4" type="line"/>
      <point x="347.2" y="376.1" type="line"/>
      <point x="255.6" y="376.1" type="line"/>
      <point x="275.3" y="492.9" type="line"/>
      <point x="168.8" y="492.9" type="line"/>
      <point x="149.4" y="376.1" type="line"/>
      <point x="57.2" y="376.1" type="line"/>
      <point x="38.8" y="258.4" type="line"/>
      <point x="130.7" y="258.4" type="line"/>
      <point x="111.7" y="139.9" type="line"/>
      <point x="20.1" y="139.9" type="line"/>
      <point x="1.7000000000000002" y="22.200000000000003" type="line"/>
    </contour>
  </outline>
</glyph>
<glyph name="uni00B2" format="2">
  <advance width="230.6"/>
  <unicode hex="00B2"/>
  <outline>
    <contour>
      <point x="42.4" y="369.1" type="line"/>
      <point x="212.1" y="369.1" type="line"/>
      <point x="223.2" y="430.9" type="line"/>
      <point x="132.4" y="430.9" type="line"/>
      <point x="197.6" y="517.4"/>
      <point x="260.1" y="602.2"/>
      <point x="260.1" y="695.5" type="curve" smooth="yes"/>
      <point x="260.1" y="742.3"/>
      <point x="234.5" y="773.7"/>
      <point x="187.6" y="773.7" type="curve" smooth="yes"/>
      <point x="151.5" y="773.7"/>
      <point x="119.2" y="760.9"/>
      <point x="92.8" y="740.0" type="curve"/>
      <point x="107.7" y="663.2" type="line"/>
      <point x="123.8" y="675.4"/>
      <point x="135.6" y="681.1"/>
      <point x="151.3" y="681.1" type="curve" smooth="yes"/>
      <point x="167.2" y="681.1"/>
      <point x="173.4" y="668.0"/>
      <point x="173.4" y="650.2" type="curve" smooth="yes"/>
      <point x="173.1" y="593.1"/>
      <point x="91.6" y="474.5"/>
      <point x="51.2" y="425.1" type="curve"/>
    </contour>
  </outline>
</glyph>
<glyph name="uni00B3" format="2">
  <advance width="243.8"/>
  <unicode hex="00B3"/>
  <outline>
    <contour>
      <point x="40.8" y="392.7" type="line"/>
      <point x="60.6" y="375.8"/>
      <point x="81.8" y="365.4"/>
      <point x="118.2" y="365.4" type="curve" smooth="yes"/>
      <point x="182.0" y="365.4"/>
      <point x="243.0" y="420.9"/>
      <point x="243.0" y="510.3" type="curve" smooth="yes"/>
      <point x="243.0" y="550.3"/>
      <point x="225.8" y="569.9"/>
      <point x="208.3" y="581.1" type="curve"/>
      <point x="244.6" y="605.2"/>
      <point x="270.2" y="643.3"/>
      <point x="270.2" y="697.7" type="curve" smooth="yes"/>
      <point x="270.2" y="748.8"/>
      <point x="236.6" y="775.4"/>
      <point x="190.4" y="775.4" type="curve" smooth="yes"/>
      <point x="158.8" y="775.4"/>
      <point x="127.5" y="765.1"/>
      <point x="101.8" y="746.0" type="curve"/>
      <point x="116.3" y="685.7" type="line"/>
      <point x="126.8" y="692.8"/>
      <point x="143.6" y="697.5"/>
      <point x="157.5" y="697.5" type="curve" smooth="yes"/>
      <point x="179.4" y="697.5"/>
      <point x="189.5" y="683.6"/>
      <point x="189.5" y="661.7" type="curve" smooth="yes"/>
      <point x="189.5" y="631.7"/>
      <point x="169.9" y="603.5"/>
      <point x="147.8" y="603.5" type="curve" smooth="yes"/>
      <point x="124.8" y="603.5" type="line"/>
      <point x="114.4" y="545.8" type="line"/>
      <point x="142.1" y="545.8" type="line" smooth="yes"/>
      <point x="160.6" y="545.8"/>
      <point x="171.0" y="530.9"/>
      <point x="171.0" y="509.8" type="curve" smooth="yes"/>
      <point x="171.0" y="475.4"/>
      <point x="154.1" y="439.8"/>
      <point x="118.5" y="439.8" type="curve" smooth="yes"/>
      <point x="103.2" y="439.8"/>
      <point x="92.6" y="444.0"/>
      <point x="79.0" y="455.5" type="curve"/>
    </contour>
  </outline>
</glyph>
<glyph name="uni00B5" format="2">
  <advance width="353.4"/>
  <unicode hex="00B5"/>
  <outline>
    <contour>
      <point x="-49.0" y="-210.0" type="line"/>
      <point x="68.39999999999999" y="-210.0" type="line"/>
      <point x="101.6" y="-1.8999999999999986" type="line"/>
      <point x="105.0" y="-7.6"/>
      <point x="110.4" y="-10.0"/>
      <point x="117.69999999999999" y="-10.0" type="curve" smooth="yes"/>
      <point x="137.7" y="-10.0"/>
      <point x="160.9" y="0.0"/>
      <point x="184.3" y="29.799999999999997" type="curve"/>
      <point x="192.9" y="8.799999999999999"/>
      <point x="216.7" y="-10.0"/>
      <point x="248.3" y="-10.0" type="curve" smooth="yes"/>
      <point x="270.3" y="-10.0"/>
      <point x="298.1" y="-1.8000000000000007"/>
      <point x="314.3" y="10.5" type="curve"/>
      <point x="328.2" y="114.8" type="line"/>
      <point x="322.5" y="112.6"/>
      <point x="316.1" y="111.69999999999999"/>
      <point x="312.6" y="111.69999999999999" type="curve" smooth="yes"/>
      <point x="302.6" y="111.69999999999999"/>
      <point x="299.3" y="118.19999999999999"/>
      <point x="299.3" y="129.2" type="curve" smooth="yes"/>
      <point x="299.3" y="136.0"/>
      <point x="300.9" y="147.89999999999998"/>
      <point x="364.7" y="544.0" type="curve"/>
      <point x="247.7" y="544.0" type="line"/>
      <point x="179.8" y="123.39999999999999" type="line"/>
      <point x="167.5" y="113.6"/>
      <point x="154.9" y="109.19999999999999"/>
      <point x="144.89999999999998" y="109.19999999999999" type="curve" smooth="yes"/>
      <point x="130.6" y="109.19999999999999"/>
      <point x="123.3" y="119.19999999999999"/>
      <point x="124.69999999999999" y="134.3" type="curve" smooth="yes"/>
      <point x="140.8" y="220.89999999999998"/>
      <point x="160.3" y="364.6"/>
      <point x="188.6" y="544.0" type="curve"/>
      <point x="70.9" y="544.0" type="line"/>
    </contour>
  </outline>
</glyph>
<glyph name="paragraph" format="2">
  <advance width="466.5"/>
  <unicode hex="00B6"/>
  <outline>
    <contour>
      <point x="266.6" y="-210.0" type="line"/>
      <point x="358.79999999999995" y="-210.0" type="line"/>
      <point x="510.9" y="740.0" type="line"/>
      <point x="418.7" y="740.0" type="line"/>
    </contour>
    <contour>
      <point x="201.3" y="322.4" type="line"/>
      <point x="176.3" y="329.4"/>
      <point x="158.2" y="365.8"/>
      <point x="158.2" y="422.9" type="curve" smooth="yes"/>
      <point x="158.2" y="511.8"/>
      <point x="191.2" y="618.0"/>
      <point x="265.2" y="621.2" type="curve"/>
      <point x="132.9" y="-210.0" type="line"/>
      <point x="225.1" y="-210.0" type="line"/>
      <point x="377.2" y="740.0" type="line"/>
      <point x="319.8" y="740.0" type="line" smooth="yes"/>
      <point x="147.3" y="740.0"/>
      <point x="52.0" y="585.7"/>
      <point x="52.0" y="413.1" type="curve" smooth="yes"/>
      <point x="52.0" y="322.5"/>
      <point x="89.5" y="255.0"/>
      <point x="173.2" y="233.1" type="curve"/>
    </contour>
  </outline>
</glyph>
<glyph name="periodcentered" format="2">
  <advance width="160.0"/>
  <unicode hex="00B7"/>
  <outline>
    <contour>
      <point x="18.3" y="287.7" type="curve" smooth="yes"/>
      <point x="17.700000000000003" y="247.1"/>
      <point x="33.4" y="228.7"/>
      <point x="72.7" y="228.7" type="curve" smooth="yes"/>
      <point x="135.8" y="228.7"/>
      <point x="152.89999999999998" y="295.5"/>
      <point x="153.5" y="345.8" type="curve" smooth="yes"/>
      <point x="154.1" y="384.7"/>
      <point x="138.7" y="403.4"/>
      <point x="100.1" y="403.4" type="curve" smooth="yes"/>
      <point x="37.7" y="403.4"/>
      <point x="18.900000000000002" y="338.0"/>
    </contour>
  </outline>
</glyph>
<glyph name="uni00B9" format="2">
  <advance width="215.5"/>
  <unicode hex="00B9"/>
  <outline>
    <contour>
      <point x="36.9" y="370.0" type="line"/>
      <point x="212.0" y="370.0" type="line"/>
      <point x="224.5" y="438.8" type="line"/>
      <point x="177.5" y="438.8" type="line"/>
      <point x="234.3" y="768.6" type="line"/>
      <point x="195.3" y="768.6" type="line"/>
      <point x="91.3" y="728.3" type="line"/>
      <point x="93.7" y="650.6" type="line"/>
      <point x="141.6" y="672.4" type="line"/>
      <point x="101.7" y="438.8" type="line"/>
      <point x="48.3" y="438.8" type="line"/>
    </contour>
  </outline>
</glyph>
<glyph name="ordmasculine" format="2">
  <advance width="229.9"/>
  <unicode hex="00BA"/>
  <outline>
    <contour>
      <point x="24.900000000000002" y="259.3" type="line"/>
      <point x="201.7" y="259.3" type="line"/>
      <point x="211.4" y="324.3" type="line"/>
      <point x="34.6" y="324.3" type="line"/>
    </contour>
    <component base="o.superior" xOffset="11.0"/>
  </outline>
</glyph>
<glyph name="AE" format="2">
  <advance width="493.5"/>
  <unicode hex="00C6"/>
  <anchor x="208.7108" y="0.0" name="bottom"/>
  <anchor x="322.5" y="700.0" name="top"/>
  <outline>
    <contour>
      <point x="176.7" y="0.0" type="line"/>
      <point x="439.2" y="0.0" type="line"/>
      <point x="457.6" y="116.3" type="line"/>
      <point x="314.2" y="116.3" type="line"/>
      <point x="341.5" y="292.0" type="line"/>
      <point x="456.6" y="292.0" type="line"/>
      <point x="475.0" y="401.3" type="line"/>
      <point x="359.2" y="401.3" type="line"/>
      <point x="387.4" y="580.2" type="line"/>
      <point x="521.8" y="580.2" type="line"/>
      <point x="541.9" y="700.0" type="line"/>
      <point x="199.1" y="700.0" type="line"/>
      <point x="-41.6" y="0.0" type="line"/>
      <point x="79.5" y="0.0" type="line"/>
      <point x="138.5" y="167.4" type="line"/>
      <point x="202.8" y="167.4" type="line"/>
    </contour>
    <contour>
      <point x="171.0" y="285.1" type="line"/>
      <point x="271.5" y="603.8" type="line"/>
      <point x="221.2" y="285.1" type="line"/>
    </contour>
  </outline>
</glyph>
<glyph name="multiply" format="2">
  <advance width="364.8"/>
  <unicode hex="00D7"/>
  <outline>
    <contour>
      <point x="92.0" y="136.5" type="line"/>
      <point x="176.9" y="239.4" type="line"/>
      <point x="229.8" y="136.5" type="line"/>
      <point x="318.5" y="218.29999999999998" type="line"/>
      <point x="264.8" y="325.1" type="line"/>
      <point x="353.0" y="432.5" type="line"/>
      <point x="289.4" y="514.3" type="line"/>
      <point x="203.9" y="410.8" type="line"/>
      <point x="151.0" y="514.3" type="line"/>
      <point x="61.6" y="432.5" type="line"/>
      <point x="115.7" y="325.4" type="line"/>
      <point x="27.7" y="218.29999999999998" type="line"/>
    </contour>
  </outline>
</glyph>
<glyph name="Oslash" format="2">
  <advance width="381.59999999999997"/>
  <unicode hex="00D8"/>
  <anchor x="253.79999999999998" y="700.0" name="top"/>
  <outline>
    <contour>
      <point x="416.6" y="710.0" type="line"/>
      <point x="354.6" y="710.0" type="line"/>
      <point x="307.79999999999995" y="623.0" type="line"/>
      <point x="303.0" y="624.4" type="line"/>
      <point x="70.4" y="152.8" type="line"/>
      <point x="67.0" y="154.8" type="line"/>
      <point x="-15.799999999999999" y="-3.000000000000001" type="line"/>
      <point x="45.8" y="-3.000000000000001" type="line"/>
      <point x="92.0" y="83.0" type="line"/>
      <point x="96.8" y="81.6" type="line"/>
      <point x="329.2" y="552.4000000000001" type="line"/>
      <point x="332.6" y="550.4" type="line"/>
    </contour>
    <contour>
      <point x="157.4" y="-10.0" type="curve" smooth="yes"/>
      <point x="334.0" y="-10.0"/>
      <point x="387.59999999999997" y="319.2"/>
      <point x="387.59999999999997" y="523.8000000000001" type="curve" smooth="yes"/>
      <point x="387.59999999999997" y="653.6"/>
      <point x="345.8" y="710.0"/>
      <point x="243.0" y="710.0" type="curve" smooth="yes"/>
      <point x="72.2" y="710.0"/>
      <point x="12.799999999999999" y="380.8"/>
      <point x="12.799999999999999" y="176.8" type="curve" smooth="yes"/>
      <point x="12.799999999999999" y="46.400000000000006"/>
      <point x="54.599999999999994" y="-10.0"/>
    </contour>
    <contour>
      <point x="165.8" y="108.79999999999998" type="curve" smooth="yes"/>
      <point x="139.39999999999998" y="108.79999999999998"/>
      <point x="127.0" y="125.79999999999998"/>
      <point x="127.0" y="172.0" type="curve" smooth="yes"/>
      <point x="127.0" y="274.20000000000005"/>
      <point x="171.99999999999997" y="591.1999999999999"/>
      <point x="237.8" y="591.1999999999999" type="curve" smooth="yes"/>
      <point x="262.8" y="591.1999999999999"/>
      <point x="274.8" y="574.8000000000001"/>
      <point x="274.8" y="530.4000000000001" type="curve" smooth="yes"/>
      <point x="274.8" y="433.8"/>
      <point x="228.0" y="108.79999999999998"/>
    </contour>
  </outline>
</glyph>
<glyph name="Thorn" format="2">
  <advance width="358.1"/>
  <unicode hex="00DE"/>
  <outline>
    <contour>
      <point x="-15.7" y="0.0" type="line"/>
      <point x="103.39999999999999" y="0.0" type="line"/>
      <point x="120.8" y="110.0" type="line"/>
      <point x="141.7" y="106.9"/>
      <point x="150.39999999999998" y="106.9"/>
      <point x="169.2" y="106.9" type="curve" smooth="yes"/>
      <point x="282.5" y="106.9"/>
      <point x="367.2" y="255.7"/>
      <point x="367.2" y="449.2" type="curve" smooth="yes"/>
      <point x="367.2" y="561.4"/>
      <point x="326.6" y="621.6"/>
      <point x="224.6" y="621.6" type="curve" smooth="yes"/>
      <point x="217.6" y="621.6"/>
      <point x="209.6" y="621.3"/>
      <point x="202.3" y="620.7" type="curve"/>
      <point x="214.8" y="700.0" type="line"/>
      <point x="95.7" y="700.0" type="line"/>
    </contour>
    <contour>
      <point x="163.7" y="221.1" type="curve" smooth="yes"/>
      <point x="153.7" y="221.1"/>
      <point x="147.89999999999998" y="221.4"/>
      <point x="141.3" y="223.1" type="curve"/>
      <point x="183.5" y="504.1" type="line"/>
      <point x="192.5" y="506.4"/>
      <point x="200.9" y="507.4"/>
      <point x="208.3" y="507.4" type="curve" smooth="yes"/>
      <point x="235.7" y="507.4"/>
      <point x="250.9" y="492.2"/>
      <point x="250.9" y="442.1" type="curve" smooth="yes"/>
      <point x="250.9" y="318.6"/>
      <point x="214.1" y="221.1"/>
    </contour>
  </outline>
</glyph>
<glyph name="germandbls" format="2">
  <advance width="476.5"/>
  <unicode hex="00DF"/>
  <outline>
    <contour>
      <point x="3.0" y="-18.400000000000006" type="line" smooth="yes"/>
      <point x="-5.8" y="-72.4"/>
      <point x="-22.3" y="-97.9"/>
      <point x="-53.0" y="-97.9" type="curve" smooth="yes"/>
      <point x="-63.1" y="-97.9"/>
      <point x="-72.0" y="-97.30000000000001"/>
      <point x="-87.30000000000001" y="-92.30000000000001" type="curve"/>
      <point x="-121.4" y="-205.3" type="line"/>
      <point x="-95.5" y="-215.2"/>
      <point x="-70.7" y="-220.0"/>
      <point x="-45.400000000000006" y="-220.0" type="curve" smooth="yes"/>
      <point x="53.3" y="-220.0"/>
      <point x="99.8" y="-155.8"/>
      <point x="121.1" y="-21.300000000000004" type="curve" smooth="yes"/>
      <point x="205.1" y="515.7" type="line" smooth="yes"/>
      <point x="216.1" y="585.3"/>
      <point x="248.1" y="629.5"/>
      <point x="303.3" y="629.5" type="curve" smooth="yes"/>
      <point x="339.0" y="629.5"/>
      <point x="355.9" y="617.6"/>
      <point x="355.9" y="592.9" type="curve" smooth="yes"/>
      <point x="355.9" y="566.8"/>
      <point x="346.1" y="550.5"/>
      <point x="299.9" y="519.7" type="curve" smooth="yes"/>
      <point x="247.0" y="484.0"/>
      <point x="213.7" y="438.7"/>
      <point x="213.7" y="361.2" type="curve" smooth="yes"/>
      <point x="213.7" y="291.6"/>
      <point x="249.39999999999998" y="255.3"/>
      <point x="293.0" y="223.4" type="curve" smooth="yes"/>
      <point x="327.8" y="197.6"/>
      <point x="334.7" y="184.7"/>
      <point x="334.7" y="164.6" type="curve" smooth="yes"/>
      <point x="334.7" y="133.2"/>
      <point x="308.8" y="108.69999999999999"/>
      <point x="268.1" y="108.69999999999999" type="curve" smooth="yes"/>
      <point x="238.8" y="108.69999999999999"/>
      <point x="209.7" y="114.69999999999999"/>
      <point x="184.0" y="124.0" type="curve"/>
      <point x="154.7" y="15.3" type="line"/>
      <point x="181.1" y="1.1999999999999993"/>
      <point x="219.0" y="-10.0"/>
      <point x="270.6" y="-10.0" type="curve" smooth="yes"/>
      <point x="391.79999999999995" y="-10.0"/>
      <point x="458.7" y="61.3"/>
      <point x="458.7" y="177.7" type="curve" smooth="yes"/>
      <point x="458.7" y="246.39999999999998"/>
      <point x="428.79999999999995" y="281.6"/>
      <point x="384.5" y="313.4" type="curve" smooth="yes"/>
      <point x="341.2" y="345.2"/>
      <point x="330.4" y="357.1"/>
      <point x="330.4" y="379.6" type="curve" smooth="yes"/>
      <point x="330.4" y="403.1"/>
      <point x="341.4" y="420.6"/>
      <point x="393.1" y="450.4" type="curve" smooth="yes"/>
      <point x="448.5" y="482.8"/>
      <point x="485.2" y="523.5"/>
      <point x="485.2" y="606.0" type="curve" smooth="yes"/>
      <point x="485.2" y="697.8"/>
      <point x="421.0" y="750.0"/>
      <point x="313.4" y="750.0" type="curve" smooth="yes"/>
      <point x="178.3" y="750.0"/>
      <point x="110.9" y="671.1"/>
      <point x="90.2" y="535.3" type="curve" smooth="yes"/>
      <point x="87.2" y="515.5" type="line"/>
      <point x="43.7" y="508.8" type="line"/>
      <point x="26.3" y="404.8" type="line"/>
      <point x="69.2" y="404.8" type="line"/>
    </contour>
  </outline>
</glyph>
<glyph name="ae" format="2">
  <advance width="525.0"/>
  <unicode hex="00E6"/>
  <anchor x="230.0" y="0.0" name="bottom"/>
  <anchor x="311.79999999999995" y="544.0" name="top"/>
  <outline>
    <contour>
      <point x="104.19999999999999" y="-10.0" type="curve" smooth="yes"/>
      <point x="130.0" y="-10.0"/>
      <point x="149.79999999999998" y="-3.0"/>
      <point x="173.4" y="28.2" type="curve"/>
      <point x="168.0" y="-3.0" type="line"/>
      <point x="275.6" y="-3.0" type="line"/>
      <point x="283.59999999999997" y="48.8" type="line"/>
      <point x="303.8" y="13.999999999999998"/>
      <point x="339.4" y="-8.600000000000001"/>
      <point x="379.99999999999994" y="-8.600000000000001" type="curve" smooth="yes"/>
      <point x="414.2" y="-8.600000000000001"/>
      <point x="450.59999999999997" y="0.19999999999999973"/>
      <point x="480.79999999999995" y="22.599999999999998" type="curve"/>
      <point x="465.4" y="134.2" type="line"/>
      <point x="433.0" y="118.0"/>
      <point x="404.59999999999997" y="111.6"/>
      <point x="380.2" y="111.6" type="curve" smooth="yes"/>
      <point x="347.2" y="111.6"/>
      <point x="318.2" y="140.0"/>
      <point x="318.2" y="208.2" type="curve" smooth="yes"/>
      <point x="318.2" y="322.4"/>
      <point x="349.40000000000003" y="443.4"/>
      <point x="402.4" y="443.4" type="curve" smooth="yes"/>
      <point x="416.4" y="443.4"/>
      <point x="424.2" y="434.8"/>
      <point x="424.2" y="411.40000000000003" type="curve" smooth="yes"/>
      <point x="424.2" y="367.8"/>
      <point x="399.2" y="320.0"/>
      <point x="356.0" y="296.6" type="curve" smooth="yes"/>
      <point x="337.8" y="286.6"/>
      <point x="317.0" y="280.6"/>
      <point x="291.79999999999995" y="280.2" type="curve"/>
      <point x="271.2" y="197.2" type="line"/>
      <point x="309.2" y="197.60000000000002"/>
      <point x="347.0" y="205.2"/>
      <point x="380.2" y="219.4" type="curve" smooth="yes"/>
      <point x="470.59999999999997" y="257.2"/>
      <point x="533.0" y="342.0"/>
      <point x="533.0" y="444.4" type="curve" smooth="yes"/>
      <point x="533.0" y="510.40000000000003"/>
      <point x="504.4" y="554.0"/>
      <point x="445.6" y="554.0" type="curve" smooth="yes"/>
      <point x="410.4" y="554.0"/>
      <point x="380.59999999999997" y="535.4"/>
      <point x="353.2" y="503.4" type="curve"/>
      <point x="361.8" y="554.0" type="line"/>
      <point x="256.0" y="554.0" type="line"/>
      <point x="253.0" y="536.6" type="line"/>
      <point x="239.0" y="549.1999999999999"/>
      <point x="220.79999999999998" y="554.0"/>
      <point x="201.4" y="554.0" type="curve" smooth="yes"/>
      <point x="88.2" y="554.0"/>
      <point x="8.6" y="386.8"/>
      <point x="8.6" y="147.20000000000002" type="curve" smooth="yes"/>
      <point x="8.6" y="48.400000000000006"/>
      <point x="44.4" y="-10.0"/>
    </contour>
    <contour>
      <point x="158.2" y="93.0" type="curve" smooth="yes"/>
      <point x="142.4" y="93.0"/>
      <point x="132.2" y="112.0"/>
      <point x="132.2" y="157.39999999999998" type="curve" smooth="yes"/>
      <point x="132.2" y="291.20000000000005"/>
      <point x="169.8" y="440.40000000000003"/>
      <point x="216.60000000000002" y="440.40000000000003" type="curve" smooth="yes"/>
      <point x="224.0" y="440.40000000000003"/>
      <point x="231.0" y="438.8"/>
      <point x="235.79999999999998" y="434.4" type="curve"/>
      <point x="185.0" y="102.8" type="line"/>
      <point x="177.0" y="96.39999999999999"/>
      <point x="167.6" y="93.0"/>
    </contour>
  </outline>
</glyph>
<glyph name="eth" format="2">
  <advance width="345.59999999999997"/>
  <unicode hex="00F0"/>
  <outline>
    <contour>
      <point x="246.79999999999998" y="422.8" type="curve"/>
      <point x="268.59999999999997" y="516.6" type="line"/>
      <point x="249.0" y="529.8"/>
      <point x="220.4" y="536.8000000000001"/>
      <point x="194.79999999999998" y="536.8000000000001" type="curve" smooth="yes"/>
      <point x="59.6" y="536.8000000000001"/>
      <point x="5.0" y="324.0"/>
      <point x="5.0" y="155.2" type="curve" smooth="yes"/>
      <point x="5.0" y="42.6"/>
      <point x="53.8" y="-9.6"/>
      <point x="138.2" y="-9.6" type="curve" smooth="yes"/>
      <point x="261.2" y="-9.6"/>
      <point x="300.4" y="68.2"/>
      <point x="340.6" y="326.2" type="curve" smooth="yes"/>
      <point x="351.0" y="393.0"/>
      <point x="357.4" y="449.8"/>
      <point x="357.4" y="496.79999999999995" type="curve" smooth="yes"/>
      <point x="357.4" y="649.0"/>
      <point x="301.59999999999997" y="740.4000000000001"/>
      <point x="174.6" y="740.4000000000001" type="curve" smooth="yes"/>
      <point x="133.2" y="740.4000000000001"/>
      <point x="100.2" y="731.2"/>
      <point x="73.60000000000001" y="722.6" type="curve"/>
      <point x="80.80000000000001" y="633.1999999999999" type="line"/>
      <point x="98.2" y="637.1999999999999"/>
      <point x="119.39999999999999" y="641.6"/>
      <point x="141.20000000000002" y="641.6" type="curve" smooth="yes"/>
      <point x="211.4" y="641.6"/>
      <point x="240.0" y="610.0"/>
      <point x="240.0" y="523.4" type="curve" smooth="yes"/>
      <point x="240.0" y="482.8"/>
      <point x="235.6" y="428.0"/>
      <point x="224.20000000000002" y="357.0" type="curve" smooth="yes"/>
      <point x="188.20000000000002" y="124.4"/>
      <point x="171.0" y="85.4"/>
      <point x="145.4" y="85.4" type="curve" smooth="yes"/>
      <point x="129.2" y="85.4"/>
      <point x="119.39999999999999" y="97.19999999999999"/>
      <point x="119.39999999999999" y="127.99999999999999" type="curve" smooth="yes"/>
      <point x="119.39999999999999" y="214.4"/>
      <point x="150.2" y="436.8"/>
      <point x="211.20000000000002" y="436.8" type="curve" smooth="yes"/>
      <point x="221.39999999999998" y="436.8"/>
      <point x="234.6" y="433.20000000000005"/>
    </contour>
    <contour>
      <point x="153.39999999999998" y="557.1999999999999" type="line"/>
      <point x="266.6" y="633.4" type="line"/>
      <point x="264.0" y="637.5999999999999" type="line"/>
      <point x="416.59999999999997" y="739.4000000000001" type="line"/>
      <point x="325.2" y="739.8000000000001" type="line"/>
      <point x="234.2" y="679.4" type="line"/>
      <point x="236.4" y="674.6" type="line"/>
      <point x="61.400000000000006" y="557.6" type="line"/>
    </contour>
  </outline>
</glyph>
<glyph name="divide" format="2">
  <advance width="373.2"/>
  <unicode hex="00F7"/>
  <outline>
    <contour>
      <point x="100.80000000000001" y="115.4" type="curve" smooth="yes"/>
      <point x="100.2" y="83.60000000000001"/>
      <point x="116.19999999999999" y="67.60000000000001"/>
      <point x="153.4" y="67.60000000000001" type="curve" smooth="yes"/>
      <point x="200.2" y="67.60000000000001"/>
      <point x="224.8" y="95.20000000000002"/>
      <point x="226.0" y="154.6" type="curve" smooth="yes"/>
      <point x="226.6" y="187.0"/>
      <point x="210.0" y="202.0"/>
      <point x="174.8" y="202.0" type="curve" smooth="yes"/>
      <point x="124.0" y="202.0"/>
      <point x="102.00000000000001" y="163.2"/>
    </contour>
    <contour>
      <point x="159.4" y="480.8" type="curve" smooth="yes"/>
      <point x="158.8" y="449.0"/>
      <point x="174.39999999999998" y="434.0"/>
      <point x="211.0" y="434.0" type="curve" smooth="yes"/>
      <point x="257.79999999999995" y="434.0"/>
      <point x="283.4" y="461.6"/>
      <point x="284.6" y="520.0" type="curve" smooth="yes"/>
      <point x="285.2" y="552.8000000000001"/>
      <point x="268.2" y="567.8000000000001"/>
      <point x="233.0" y="567.8000000000001" type="curve" smooth="yes"/>
      <point x="179.8" y="567.8000000000001"/>
      <point x="160.6" y="525.8"/>
    </contour>
    <contour>
      <point x="39.6" y="259.40000000000003" type="line"/>
      <point x="329.6" y="259.40000000000003" type="line"/>
      <point x="348.0" y="377.40000000000003" type="line"/>
      <point x="58.0" y="377.40000000000003" type="line"/>
    </contour>
  </outline>
</glyph>
<glyph name="oslash" format="2">
  <advance width="348.0"/>
  <unicode hex="00F8"/>
  <anchor x="209.4" y="544.0" name="top"/>
  <outline>
    <contour>
      <point x="322.0" y="554.4" type="line"/>
      <point x="268.2" y="471.20000000000005" type="line"/>
      <point x="263.8" y="472.59999999999997" type="line"/>
      <point x="69.0" y="151.2" type="line"/>
      <point x="66.19999999999999" y="153.2" type="line"/>
      <point x="-39.0" y="-10.0" type="line"/>
      <point x="24.000000000000004" y="-10.0" type="line"/>
      <point x="79.0" y="76.0" type="line"/>
      <point x="83.39999999999999" y="74.6" type="line"/>
      <point x="281.4" y="398.4" type="line"/>
      <point x="284.2" y="396.4" type="line"/>
      <point x="385.4" y="554.4" type="line"/>
    </contour>
    <contour>
      <point x="143.6" y="-10.0" type="curve" smooth="yes"/>
      <point x="289.2" y="-10.0"/>
      <point x="337.8" y="220.40000000000003"/>
      <point x="337.8" y="403.2" type="curve" smooth="yes"/>
      <point x="337.8" y="508.6"/>
      <point x="301.2" y="554.4"/>
      <point x="202.79999999999998" y="554.4" type="curve" smooth="yes"/>
      <point x="57.2" y="554.4"/>
      <point x="8.600000000000001" y="324.0"/>
      <point x="8.600000000000001" y="141.8" type="curve" smooth="yes"/>
      <point x="8.600000000000001" y="36.4"/>
      <point x="45.800000000000004" y="-10.0"/>
    </contour>
    <contour>
      <point x="146.39999999999998" y="100.79999999999998" type="curve" smooth="yes"/>
      <point x="125.19999999999999" y="100.79999999999998"/>
      <point x="116.4" y="113.6"/>
      <point x="116.4" y="144.4" type="curve" smooth="yes"/>
      <point x="116.4" y="195.79999999999998"/>
      <point x="147.0" y="443.59999999999997"/>
      <point x="200.6" y="443.59999999999997" type="curve" smooth="yes"/>
      <point x="221.8" y="443.59999999999997"/>
      <point x="230.6" y="430.8"/>
      <point x="230.6" y="400.59999999999997" type="curve" smooth="yes"/>
      <point x="230.6" y="348.59999999999997"/>
      <point x="200.0" y="100.79999999999998"/>
    </contour>
  </outline>
</glyph>
<glyph name="thorn" format="2">
  <advance width="351.8"/>
  <unicode hex="00FE"/>
  <outline>
    <contour>
      <point x="-48.599999999999994" y="-210.0" type="line"/>
      <point x="69.5" y="-210.0" type="line"/>
      <point x="102.5" y="-3.0" type="line"/>
      <point x="114.39999999999999" y="-5.9"/>
      <point x="128.8" y="-8.6"/>
      <point x="150.8" y="-8.6" type="curve" smooth="yes"/>
      <point x="278.4" y="-8.6"/>
      <point x="342.9" y="185.7"/>
      <point x="342.9" y="381.7" type="curve" smooth="yes"/>
      <point x="342.9" y="505.8"/>
      <point x="322.0" y="554.0"/>
      <point x="259.2" y="554.0" type="curve" smooth="yes"/>
      <point x="222.1" y="554.0"/>
      <point x="200.6" y="535.8"/>
      <point x="186.2" y="522.3" type="curve"/>
      <point x="220.5" y="740.0" type="line"/>
      <point x="101.4" y="740.0" type="line"/>
    </contour>
    <contour>
      <point x="136.89999999999998" y="101.8" type="curve" smooth="yes"/>
      <point x="131.6" y="101.8"/>
      <point x="125.6" y="102.39999999999999"/>
      <point x="120.19999999999999" y="104.89999999999999" type="curve"/>
      <point x="170.6" y="424.3" type="line"/>
      <point x="176.5" y="428.0"/>
      <point x="187.0" y="431.7"/>
      <point x="194.9" y="431.7" type="curve" smooth="yes"/>
      <point x="211.1" y="431.7"/>
      <point x="220.3" y="417.0"/>
      <point x="220.3" y="371.0" type="curve" smooth="yes"/>
      <point x="220.3" y="244.7"/>
      <point x="183.5" y="101.8"/>
    </contour>
  </outline>
</glyph>
<glyph name="Dcroat" format="2">
  <advance width="383.4"/>
  <unicode hex="0110"/>
  <outline>
    <contour>
      <point x="9.4" y="293.5" type="line"/>
      <point x="206.6" y="293.5" type="line"/>
      <point x="226.4" y="412.7" type="line"/>
      <point x="29.2" y="412.7" type="line"/>
    </contour>
    <component base="D" xOffset="10.5"/>
  </outline>
</glyph>
<glyph name="dcroat" format="2">
  <advance width="359.7"/>
  <unicode hex="0111"/>
  <outline>
    <contour>
      <point x="170.8" y="616.1" type="line"/>
      <point x="414.6" y="616.1" type="line"/>
      <point x="426.0" y="687.8" type="line"/>
      <point x="182.9" y="687.8" type="line"/>
    </contour>
    <component base="d"/>
  </outline>
</glyph>
<glyph name="Hbar" format="2">
  <advance width="380.8"/>
  <unicode hex="0126"/>
  <outline>
    <contour>
      <point x="32.9" y="502.0" type="line"/>
      <point x="419.9" y="502.0" type="line"/>
      <point x="437.3" y="609.4" type="line"/>
      <point x="50.3" y="609.4" type="line"/>
    </contour>
    <component base="H" xOffset="3.8"/>
  </outline>
</glyph>
<glyph name="hbar" format="2">
  <advance width="359.4"/>
  <unicode hex="0127"/>
  <outline>
    <contour>
      <point x="55.6" y="616.1" type="line"/>
      <point x="270.5" y="616.1" type="line"/>
      <point x="281.9" y="687.8" type="line"/>
      <point x="67.0" y="687.8" type="line"/>
    </contour>
    <component base="h" xOffset="5.6"/>
  </outline>
</glyph>
<glyph name="Idotaccent" format="2">
  <advance width="176.6"/>
  <unicode hex="0130"/>
  <outline>
    <contour>
      <point x="190.2" y="910.3" type="curve" smooth="yes"/>
      <point x="130.0" y="910.3"/>
      <point x="108.3" y="858.6"/>
      <point x="107.4" y="803.1" type="curve" smooth="yes"/>
      <point x="107.1" y="763.6"/>
      <point x="126.8" y="745.4"/>
      <point x="162.9" y="745.4" type="curve" smooth="yes"/>
      <point x="223.8" y="745.4"/>
      <point x="244.8" y="798.5"/>
      <point x="245.7" y="853.3" type="curve" smooth="yes"/>
      <point x="246.0" y="892.8"/>
      <point x="225.6" y="910.3"/>
    </contour>
    <component base="I"/>
  </outline>
</glyph>
<glyph name="dotlessi" format="2">
  <advance width="174.6"/>
  <unicode hex="0131"/>
  <anchor x="43.5" y="0.0" name="bottom"/>
  <anchor x="103.19999999999999" y="0.0" name="ogonek"/>
  <anchor x="129.6" y="544.0" name="top"/>
  <outline>
    <contour>
      <point x="103.19999999999999" y="0.0" type="line"/>
      <point x="189.3" y="544.0" type="line"/>
      <point x="70.2" y="544.0" type="line"/>
      <point x="-15.599999999999998" y="0.0" type="line"/>
    </contour>
  </outline>
</glyph>
<glyph name="Ldot" format="2">
  <advance width="282.9"/>
  <unicode hex="013F"/>
  <outline>
    <contour>
      <point x="199.6986" y="365.3734" type="curve" smooth="yes"/>
      <point x="199.09859999999998" y="336.9114"/>
      <point x="209.6634" y="324.3473"/>
      <point x="237.05849999999998" y="324.3473" type="curve" smooth="yes"/>
      <point x="280.31769999999995" y="324.3473"/>
      <point x="291.8156" y="368.9713"/>
      <point x="292.4156" y="404.0988" type="curve" smooth="yes"/>
      <point x="293.0156" y="431.3277"/>
      <point x="282.7508" y="444.1918"/>
      <point x="255.8219" y="444.1918" type="curve" smooth="yes"/>
      <point x="213.0296" y="444.1918"/>
      <point x="200.2986" y="400.5009"/>
    </contour>
    <component base="L"/>
  </outline>
</glyph>
<glyph name="ldot" format="2">
  <advance width="270.8"/>
  <unicode hex="0140"/>
  <outline>
    <contour>
      <point x="193.3747" y="351.6723" type="curve" smooth="yes"/>
      <point x="192.7747" y="323.5358"/>
      <point x="203.1113" y="311.12780000000004"/>
      <point x="229.97860000000003" y="311.12780000000004" type="curve" smooth="yes"/>
      <point x="272.3565" y="311.12780000000004"/>
      <point x="283.6059" y="355.1582"/>
      <point x="284.2059" y="389.879" type="curve" smooth="yes"/>
      <point x="284.8059" y="416.795"/>
      <point x="274.7693" y="429.50300000000004"/>
      <point x="248.3584" y="429.50300000000004" type="curve" smooth="yes"/>
      <point x="206.43619999999999" y="429.50300000000004"/>
      <point x="193.97469999999998" y="386.3931"/>
    </contour>
    <component base="l"/>
  </outline>
</glyph>
<glyph name="Lslash" format="2">
  <advance width="302.9"/>
  <unicode hex="0141"/>
  <outline>
    <contour>
      <point x="4.0" y="0.0" type="line"/>
      <point x="250.1" y="0.0" type="line"/>
      <point x="268.5" y="116.3" type="line"/>
      <point x="140.8" y="116.3" type="line"/>
      <point x="172.0" y="313.5" type="line"/>
      <point x="266.6" y="373.6" type="line"/>
      <point x="288.1" y="500.4" type="line"/>
      <point x="192.1" y="439.6" type="line"/>
      <point x="234.1" y="700.0" type="line"/>
      <point x="115.7" y="700.0" type="line"/>
      <point x="63.7" y="376.2" type="line"/>
      <point x="19.0" y="348.8" type="line"/>
      <point x="-0.7" y="221.7" type="line"/>
      <point x="43.3" y="249.1" type="line"/>
    </contour>
  </outline>
</glyph>
<glyph name="lslash" format="2">
  <advance width="206.39999999999998"/>
  <unicode hex="0142"/>
  <outline>
    <contour>
      <point x="-3.7" y="215.0" type="line"/>
      <point x="223.39999999999998" y="382.0" type="line"/>
      <point x="241.39999999999998" y="495.4" type="line"/>
      <point x="13.6" y="328.4" type="line"/>
    </contour>
    <component base="l" xOffset="14.0"/>
  </outline>
</glyph>
<glyph name="Eng" format="2">
  <advance width="383.7"/>
  <unicode hex="014A"/>
  <outline>
    <contour>
      <point x="-15.7" y="0.0" type="line"/>
      <point x="91.5" y="0.0" type="line"/>
      <point x="155.0" y="396.8" type="line"/>
      <point x="191.2" y="-5.399999999999999" type="line"/>
      <point x="185.7" y="-44.6"/>
      <point x="170.4" y="-57.2"/>
      <point x="149.0" y="-57.2" type="curve" smooth="yes"/>
      <point x="141.3" y="-57.2"/>
      <point x="134.0" y="-56.300000000000004"/>
      <point x="128.1" y="-54.800000000000004" type="curve"/>
      <point x="107.0" y="-188.2" type="line"/>
      <point x="118.69999999999999" y="-191.1"/>
      <point x="132.3" y="-191.7"/>
      <point x="147.7" y="-191.7" type="curve" smooth="yes"/>
      <point x="236.1" y="-187.5"/>
      <point x="292.0" y="-128.2"/>
      <point x="310.3" y="-11.2" type="curve" smooth="yes"/>
      <point x="422.7" y="700.0" type="line"/>
      <point x="315.5" y="700.0" type="line"/>
      <point x="247.7" y="281.7" type="line"/>
      <point x="216.3" y="700.0" type="line"/>
      <point x="95.0" y="700.0" type="line"/>
    </contour>
  </outline>
</glyph>
<glyph name="eng" format="2">
  <advance width="350.4"/>
  <unicode hex="014B"/>
  <outline>
    <contour>
      <point x="274.3" y="-8.000000000000007" type="curve" smooth="yes"/>
      <point x="300.5" y="161.40000000000003"/>
      <point x="352.3" y="452.7"/>
      <point x="352.3" y="473.5" type="curve" smooth="yes"/>
      <point x="352.3" y="524.4"/>
      <point x="325.7" y="554.0"/>
      <point x="276.2" y="554.0" type="curve" smooth="yes"/>
      <point x="244.89999999999998" y="554.0"/>
      <point x="209.39999999999998" y="544.1"/>
      <point x="173.0" y="514.3" type="curve"/>
      <point x="177.39999999999998" y="544.0" type="line"/>
      <point x="70.2" y="544.0" type="line"/>
      <point x="-15.899999999999999" y="0.0" type="line"/>
      <point x="102.89999999999999" y="0.0" type="line"/>
      <point x="170.7" y="420.4" type="line"/>
      <point x="180.9" y="428.4"/>
      <point x="193.9" y="433.4"/>
      <point x="203.8" y="433.4" type="curve" smooth="yes"/>
      <point x="218.9" y="433.4"/>
      <point x="225.5" y="426.1"/>
      <point x="225.5" y="413.2" type="curve" smooth="yes"/>
      <point x="225.5" y="409.2"/>
      <point x="224.1" y="399.6"/>
      <point x="158.3" y="-10.700000000000003" type="curve" smooth="yes"/>
      <point x="152.3" y="-48.60000000000001"/>
      <point x="141.5" y="-78.4"/>
      <point x="118.5" y="-78.4" type="curve" smooth="yes"/>
      <point x="114.8" y="-78.4"/>
      <point x="109.89999999999999" y="-78.10000000000001"/>
      <point x="104.8" y="-76.10000000000001" type="curve"/>
      <point x="75.3" y="-214.2" type="line"/>
      <point x="88.8" y="-217.6"/>
      <point x="104.0" y="-220.0"/>
      <point x="125.39999999999999" y="-220.0" type="curve" smooth="yes"/>
      <point x="187.7" y="-220.0"/>
      <point x="252.3" y="-175.0"/>
    </contour>
  </outline>
</glyph>
<glyph name="OE" format="2">
  <advance width="497.1"/>
  <unicode hex="0152"/>
  <outline>
    <contour>
      <point x="442.8" y="0.0" type="line"/>
      <point x="461.2" y="116.3" type="line"/>
      <point x="317.1" y="116.3" type="line"/>
      <point x="345.6" y="298.0" type="line"/>
      <point x="461.1" y="298.0" type="line"/>
      <point x="479.5" y="407.3" type="line"/>
      <point x="364.0" y="407.3" type="line"/>
      <point x="391.0" y="580.2" type="line"/>
      <point x="525.4" y="580.2" type="line"/>
      <point x="545.5" y="700.0" type="line"/>
      <point x="407.2" y="700.0" type="line"/>
      <point x="370.7" y="705.1"/>
      <point x="314.0" y="710.0"/>
      <point x="284.1" y="710.0" type="curve" smooth="yes"/>
      <point x="62.6" y="710.0"/>
      <point x="14.700000000000001" y="377.20000000000005"/>
      <point x="14.700000000000001" y="177.3" type="curve" smooth="yes"/>
      <point x="14.700000000000001" y="51.599999999999994"/>
      <point x="59.4" y="-10.0"/>
      <point x="176.7" y="-10.0" type="curve" smooth="yes"/>
      <point x="199.0" y="-10.0"/>
      <point x="236.5" y="-8.1"/>
      <point x="287.3" y="0.0" type="curve"/>
    </contour>
    <contour>
      <point x="197.0" y="110.6" type="line"/>
      <point x="189.0" y="107.69999999999999"/>
      <point x="181.2" y="106.69999999999999"/>
      <point x="174.3" y="106.69999999999999" type="curve" smooth="yes"/>
      <point x="142.6" y="106.69999999999999"/>
      <point x="133.1" y="137.0"/>
      <point x="133.1" y="186.4" type="curve" smooth="yes"/>
      <point x="133.1" y="349.4"/>
      <point x="189.1" y="588.7"/>
      <point x="252.9" y="588.7" type="curve" smooth="yes"/>
      <point x="262.2" y="588.7"/>
      <point x="268.7" y="586.5"/>
      <point x="272.9" y="585.9" type="curve"/>
    </contour>
  </outline>
</glyph>
<glyph name="oe" format="2">
  <advance width="532.0"/>
  <unicode hex="0153"/>
  <outline>
    <contour>
      <point x="143.8" y="-10.0" type="curve" smooth="yes"/>
      <point x="190.2" y="-10.0"/>
      <point x="226.8" y="19.400000000000002"/>
      <point x="250.79999999999998" y="58.800000000000004" type="curve"/>
      <point x="275.2" y="13.600000000000001"/>
      <point x="313.0" y="-10.0"/>
      <point x="365.2" y="-10.0" type="curve" smooth="yes"/>
      <point x="405.4" y="-10.0"/>
      <point x="451.59999999999997" y="0.19999999999999973"/>
      <point x="487.79999999999995" y="22.599999999999998" type="curve"/>
      <point x="466.2" y="135.2" type="line"/>
      <point x="433.8" y="119.0"/>
      <point x="405.4" y="112.0"/>
      <point x="381.6" y="112.0" type="curve" smooth="yes"/>
      <point x="348.6" y="112.0"/>
      <point x="325.4" y="135.6"/>
      <point x="325.4" y="209.8" type="curve" smooth="yes"/>
      <point x="325.4" y="351.4"/>
      <point x="364.79999999999995" y="443.4"/>
      <point x="408.2" y="443.4" type="curve" smooth="yes"/>
      <point x="422.2" y="443.4"/>
      <point x="431.8" y="434.4"/>
      <point x="431.8" y="410.2" type="curve" smooth="yes"/>
      <point x="431.8" y="367.20000000000005"/>
      <point x="405.6" y="321.8"/>
      <point x="363.40000000000003" y="298.2" type="curve" smooth="yes"/>
      <point x="346.8" y="288.8"/>
      <point x="326.2" y="283.0"/>
      <point x="302.8" y="282.6" type="curve"/>
      <point x="280.6" y="196.4" type="line"/>
      <point x="318.0" y="196.8"/>
      <point x="354.59999999999997" y="205.0"/>
      <point x="387.2" y="218.60000000000002" type="curve" smooth="yes"/>
      <point x="477.59999999999997" y="255.40000000000003"/>
      <point x="540.0" y="337.6"/>
      <point x="540.0" y="436.0" type="curve" smooth="yes"/>
      <point x="540.0" y="506.0"/>
      <point x="503.0" y="554.0"/>
      <point x="426.6" y="554.0" type="curve" smooth="yes"/>
      <point x="379.6" y="554.0"/>
      <point x="341.59999999999997" y="532.0"/>
      <point x="311.4" y="497.99999999999994" type="curve"/>
      <point x="293.6" y="536.0"/>
      <point x="260.4" y="554.4"/>
      <point x="203.0" y="554.4" type="curve" smooth="yes"/>
      <point x="57.400000000000006" y="554.4"/>
      <point x="8.8" y="324.0"/>
      <point x="8.8" y="141.8" type="curve" smooth="yes"/>
      <point x="8.8" y="36.4"/>
      <point x="46.0" y="-10.0"/>
    </contour>
    <contour>
      <point x="146.2" y="105.6" type="curve" smooth="yes"/>
      <point x="132.4" y="105.6"/>
      <point x="123.6" y="111.6"/>
      <point x="123.6" y="140.6" type="curve" smooth="yes"/>
      <point x="123.6" y="195.6"/>
      <point x="154.6" y="438.8"/>
      <point x="201.2" y="438.8" type="curve" smooth="yes"/>
      <point x="215.0" y="438.8"/>
      <point x="223.4" y="433.40000000000003"/>
      <point x="223.4" y="405.2" type="curve" smooth="yes"/>
      <point x="223.4" y="344.0"/>
      <point x="192.4" y="105.6"/>
    </contour>
  </outline>
</glyph>
<glyph name="uni0162" format="2">
  <advance width="317.4"/>
  <unicode hex="0162"/>
  <anchor x="115.0423" y="0.0" name="_bottom"/>
  <anchor x="61.4" y="-220.0" name="bottom"/>
  <outline>
    <contour>
      <point x="8.7" y="-209.3" type="line"/>
      <point x="24.299999999999997" y="-216.6"/>
      <point x="40.5" y="-220.0"/>
      <point x="61.4" y="-220.0" type="curve" smooth="yes"/>
      <point x="130.3" y="-220.0"/>
      <point x="173.2" y="-160.6"/>
      <point x="173.2" y="-81.7" type="curve" smooth="yes"/>
      <point x="173.2" y="-50.6"/>
      <point x="169.6" y="-20.0"/>
      <point x="161.2" y="5.6" type="curve"/>
      <point x="88.6" y="4.8999999999999995" type="line"/>
      <point x="94.9" y="-19.0"/>
      <point x="98.5" y="-37.800000000000004"/>
      <point x="98.5" y="-63.900000000000006" type="curve" smooth="yes"/>
      <point x="98.5" y="-107.5"/>
      <point x="78.0" y="-128.10000000000002"/>
      <point x="50.9" y="-128.10000000000002" type="curve" smooth="yes"/>
      <point x="40.8" y="-128.10000000000002"/>
      <point x="34.2" y="-126.5"/>
      <point x="25.099999999999998" y="-122.9" type="curve"/>
    </contour>
    <component base="T"/>
  </outline>
</glyph>
<glyph name="Tbar" format="2">
  <advance width="318.6"/>
  <unicode hex="0166"/>
  <outline>
    <contour>
      <point x="360.8" y="587.9" type="line"/>
      <point x="379.2" y="700.0" type="line"/>
      <point x="74.1" y="700.0" type="line"/>
      <point x="55.7" y="587.9" type="line"/>
      <point x="149.6" y="587.9" type="line"/>
      <point x="119.4" y="401.9" type="line"/>
      <point x="60.7" y="401.9" type="line"/>
      <point x="39.5" y="282.0" type="line"/>
      <point x="100.6" y="282.0" type="line"/>
      <point x="55.6" y="0.0" type="line"/>
      <point x="173.3" y="0.0" type="line"/>
      <point x="218.3" y="282.0" type="line"/>
      <point x="279.3" y="282.0" type="line"/>
      <point x="300.5" y="401.9" type="line"/>
      <point x="237.39999999999998" y="401.9" type="line"/>
      <point x="267.3" y="587.9" type="line"/>
    </contour>
  </outline>
</glyph>
<glyph name="uogonek" format="2">
  <advance width="354.2"/>
  <unicode hex="0173"/>
  <outline>
    <contour>
      <point x="245.2" y="-209.5" type="curve" smooth="yes"/>
      <point x="264.8" y="-209.5"/>
      <point x="282.4" y="-203.8"/>
      <point x="298.5" y="-196.1" type="curve"/>
      <point x="306.8" y="-97.7" type="line"/>
      <point x="305.0" y="-98.9"/>
      <point x="297.7" y="-101.5"/>
      <point x="289.8" y="-101.5" type="curve" smooth="yes"/>
      <point x="279.2" y="-101.5"/>
      <point x="274.0" y="-93.30000000000001"/>
      <point x="274.0" y="-80.30000000000001" type="curve" smooth="yes"/>
      <point x="274.0" y="-52.30000000000001"/>
      <point x="293.2" y="-16.300000000000004"/>
      <point x="314.8" y="10.5" type="curve"/>
      <point x="328.7" y="114.8" type="line"/>
      <point x="323.0" y="112.6"/>
      <point x="316.6" y="111.69999999999999"/>
      <point x="313.1" y="111.69999999999999" type="curve" smooth="yes"/>
      <point x="303.1" y="111.69999999999999"/>
      <point x="299.8" y="118.19999999999999"/>
      <point x="299.8" y="129.2" type="curve" smooth="yes"/>
      <point x="299.8" y="136.0"/>
      <point x="301.4" y="147.89999999999998"/>
      <point x="365.2" y="544.0" type="curve"/>
      <point x="248.2" y="544.0" type="line"/>
      <point x="180.3" y="123.39999999999999" type="line"/>
      <point x="168.0" y="113.6"/>
      <point x="155.4" y="109.19999999999999"/>
      <point x="145.39999999999998" y="109.19999999999999" type="curve" smooth="yes"/>
      <point x="131.1" y="109.19999999999999"/>
      <point x="123.8" y="119.19999999999999"/>
      <point x="125.19999999999999" y="134.3" type="curve" smooth="yes"/>
      <point x="137.8" y="219.7"/>
      <point x="154.5" y="323.79999999999995"/>
      <point x="189.1" y="544.0" type="curve"/>
      <point x="71.4" y="544.0" type="line"/>
      <point x="24.6" y="254.6"/>
      <point x="0.10000000000000142" y="130.6"/>
      <point x="0.10000000000000142" y="73.2" type="curve" smooth="yes"/>
      <point x="0.10000000000000142" y="25.0"/>
      <point x="28.3" y="-10.0"/>
      <point x="82.5" y="-10.0" type="curve" smooth="yes"/>
      <point x="118.6" y="-10.0"/>
      <point x="144.6" y="4.8999999999999995"/>
      <point x="178.5" y="38.2" type="curve"/>
      <point x="186.4" y="10.899999999999999"/>
      <point x="213.0" y="-10.0"/>
      <point x="247.4" y="-10.0" type="curve" smooth="yes"/>
      <point x="262.6" y="-10.0"/>
      <point x="272.5" y="8.5"/>
      <point x="265.2" y="26.299999999999997" type="curve"/>
      <point x="209.0" y="-21.300000000000004"/>
      <point x="166.4" y="-75.2"/>
      <point x="166.4" y="-133.6" type="curve" smooth="yes"/>
      <point x="166.4" y="-184.2"/>
      <point x="199.0" y="-209.5"/>
    </contour>
  </outline>
</glyph>
<glyph name="longs" format="2">
  <advance width="201.39999999999998"/>
  <unicode hex="017F"/>
  <outline>
    <contour>
      <point x="-45.400000000000006" y="-220.0" type="curve" smooth="yes"/>
      <point x="53.3" y="-220.0"/>
      <point x="99.8" y="-155.8"/>
      <point x="121.1" y="-21.300000000000004" type="curve" smooth="yes"/>
      <point x="206.3" y="515.5" type="line" smooth="yes"/>
      <point x="219.6" y="601.8"/>
      <point x="236.8" y="627.4"/>
      <point x="269.4" y="627.4" type="curve" smooth="yes"/>
      <point x="280.3" y="627.4"/>
      <point x="293.2" y="624.4"/>
      <point x="305.9" y="620.0" type="curve"/>
      <point x="341.6" y="727.6" type="line"/>
      <point x="316.5" y="740.3"/>
      <point x="291.3" y="750.0"/>
      <point x="252.7" y="750.0" type="curve" smooth="yes"/>
      <point x="169.4" y="750.0"/>
      <point x="110.9" y="676.3"/>
      <point x="87.2" y="515.5" type="curve"/>
      <point x="42.5" y="508.8" type="line"/>
      <point x="25.1" y="404.8" type="line"/>
      <point x="69.5" y="404.8" type="line"/>
      <point x="5.800000000000001" y="-0.9000000000000057" type="line" smooth="yes"/>
      <point x="-3.0" y="-54.900000000000006"/>
      <point x="-19.5" y="-80.4"/>
      <point x="-50.2" y="-80.4" type="curve" smooth="yes"/>
      <point x="-59.6" y="-80.4"/>
      <point x="-67.80000000000001" y="-79.80000000000001"/>
      <point x="-82.4" y="-74.80000000000001" type="curve"/>
      <point x="-121.4" y="-205.3" type="line"/>
      <point x="-95.5" y="-215.2"/>
      <point x="-70.7" y="-220.0"/>
    </contour>
  </outline>
</glyph>
<glyph name="uni018F" format="2">
  <advance width="366.6"/>
  <unicode hex="018F"/>
  <outline>
    <contour>
      <point x="126.2" y="-10.0" type="curve" smooth="yes"/>
      <point x="276.2" y="-10.0"/>
      <point x="369.2" y="180.4"/>
      <point x="369.2" y="485.6" type="curve" smooth="yes"/>
      <point x="369.2" y="637.4"/>
      <point x="314.0" y="710.0"/>
      <point x="214.0" y="710.0" type="curve" smooth="yes"/>
      <point x="154.20000000000002" y="710.0"/>
      <point x="103.8" y="697.1999999999999"/>
      <point x="52.0" y="667.8000000000001" type="curve"/>
      <point x="79.2" y="549.6" type="line"/>
      <point x="112.2" y="570.4000000000001"/>
      <point x="146.39999999999998" y="581.4000000000001"/>
      <point x="182.0" y="581.4000000000001" type="curve" smooth="yes"/>
      <point x="230.8" y="581.4000000000001"/>
      <point x="250.79999999999998" y="551.0"/>
      <point x="250.79999999999998" y="449.8" type="curve" smooth="yes"/>
      <point x="250.79999999999998" y="298.59999999999997"/>
      <point x="202.2" y="117.19999999999999"/>
      <point x="148.6" y="117.19999999999999" type="curve" smooth="yes"/>
      <point x="123.0" y="117.19999999999999"/>
      <point x="111.6" y="139.6"/>
      <point x="111.6" y="176.2" type="curve" smooth="yes"/>
      <point x="111.6" y="264.6"/>
      <point x="162.39999999999998" y="332.8"/>
      <point x="224.4" y="332.8" type="curve" smooth="yes"/>
      <point x="233.6" y="332.8"/>
      <point x="242.39999999999998" y="332.8"/>
      <point x="252.20000000000002" y="332.2" type="curve"/>
      <point x="257.40000000000003" y="433.59999999999997" type="line"/>
      <point x="248.8" y="434.2"/>
      <point x="240.20000000000002" y="434.2"/>
      <point x="231.0" y="434.2" type="curve" smooth="yes"/>
      <point x="82.8" y="434.2"/>
      <point x="-5.0" y="329.8"/>
      <point x="-5.0" y="150.4" type="curve" smooth="yes"/>
      <point x="-5.0" y="55.8"/>
      <point x="43.4" y="-10.0"/>
    </contour>
  </outline>
</glyph>
<glyph name="florin" format="2">
  <advance width="369.0"/>
  <unicode hex="0192"/>
  <outline>
    <contour>
      <point x="238.2" y="291.8" type="line"/>
      <point x="287.0" y="291.8" type="line"/>
      <point x="304.7" y="402.2" type="line"/>
      <point x="255.89999999999998" y="402.2" type="line"/>
      <point x="266.6" y="469.2" type="line" smooth="yes"/>
      <point x="279.2" y="547.8"/>
      <point x="293.0" y="577.2"/>
      <point x="322.0" y="577.2" type="curve" smooth="yes"/>
      <point x="332.0" y="577.2"/>
      <point x="339.3" y="575.2"/>
      <point x="351.4" y="570.5" type="curve"/>
      <point x="393.0" y="687.6" type="line"/>
      <point x="369.1" y="700.3"/>
      <point x="344.8" y="710.0"/>
      <point x="306.8" y="710.0" type="curve" smooth="yes"/>
      <point x="227.7" y="710.0"/>
      <point x="175.2" y="640.2"/>
      <point x="149.9" y="486.0" type="curve" smooth="yes"/>
      <point x="136.4" y="402.2" type="line"/>
      <point x="91.4" y="397.3" type="line"/>
      <point x="73.7" y="291.8" type="line"/>
      <point x="118.7" y="291.8" type="line"/>
      <point x="39.2" y="-210.0" type="line"/>
      <point x="158.7" y="-210.0" type="line"/>
    </contour>
  </outline>
</glyph>
<glyph name="uni0237" format="2">
  <advance width="178.3"/>
  <unicode hex="0237"/>
  <anchor x="-44.0" y="-210.0" name="bottom"/>
  <anchor x="132.6" y="544.0" name="top"/>
  <outline>
    <contour>
      <point x="193.7" y="544.0" type="line"/>
      <point x="73.9" y="544.0" type="line"/>
      <point x="-12.399999999999999" y="1.8999999999999915" type="line" smooth="yes"/>
      <point x="-21.2" y="-52.10000000000001"/>
      <point x="-37.6" y="-81.2"/>
      <point x="-68.3" y="-81.2" type="curve" smooth="yes"/>
      <point x="-78.4" y="-81.2"/>
      <point x="-86.6" y="-80.60000000000001"/>
      <point x="-100.5" y="-75.60000000000001" type="curve"/>
      <point x="-136.0" y="-206.7" type="line"/>
      <point x="-110.1" y="-216.6"/>
      <point x="-80.4" y="-220.0"/>
      <point x="-58.6" y="-220.0" type="curve" smooth="yes"/>
      <point x="40.099999999999994" y="-220.0"/>
      <point x="81.6" y="-156.8"/>
      <point x="103.6" y="-17.800000000000004" type="curve" smooth="yes"/>
    </contour>
  </outline>
</glyph>
<glyph name="uni0259" format="2">
  <advance width="333.2"/>
  <unicode hex="0259"/>
  <outline>
    <contour>
      <point x="232.39999999999998" y="265.4" type="curve"/>
      <point x="253.39999999999998" y="350.0" type="line"/>
      <point x="215.39999999999998" y="349.6"/>
      <point x="177.0" y="341.40000000000003"/>
      <point x="143.20000000000002" y="327.2" type="curve" smooth="yes"/>
      <point x="52.800000000000004" y="289.79999999999995"/>
      <point x="-9.600000000000001" y="208.2"/>
      <point x="-9.600000000000001" y="108.6" type="curve" smooth="yes"/>
      <point x="-9.600000000000001" y="39.2"/>
      <point x="27.4" y="-10.0"/>
      <point x="105.6" y="-10.0" type="curve" smooth="yes"/>
      <point x="253.6" y="-10.0"/>
      <point x="320.0" y="170.6"/>
      <point x="320.0" y="362.8" type="curve" smooth="yes"/>
      <point x="320.0" y="493.2"/>
      <point x="268.6" y="554.0"/>
      <point x="175.2" y="554.0" type="curve" smooth="yes"/>
      <point x="126.2" y="554.0"/>
      <point x="82.0" y="541.8"/>
      <point x="46.800000000000004" y="522.0" type="curve"/>
      <point x="68.8" y="409.4" type="line"/>
      <point x="100.0" y="425.00000000000006"/>
      <point x="127.8" y="432.0"/>
      <point x="153.39999999999998" y="432.0" type="curve" smooth="yes"/>
      <point x="182.8" y="432.0"/>
      <point x="206.0" y="418.59999999999997"/>
      <point x="206.0" y="341.4" type="curve" smooth="yes"/>
      <point x="206.0" y="199.8"/>
      <point x="169.2" y="99.4"/>
      <point x="125.80000000000001" y="99.4" type="curve" smooth="yes"/>
      <point x="107.79999999999998" y="99.4"/>
      <point x="100.39999999999999" y="113.80000000000001"/>
      <point x="100.39999999999999" y="134.4" type="curve" smooth="yes"/>
      <point x="100.39999999999999" y="178.6"/>
      <point x="125.39999999999999" y="224.6"/>
      <point x="167.0" y="248.6" type="curve" smooth="yes"/>
      <point x="184.79999999999998" y="258.6"/>
      <point x="207.2" y="265.0"/>
    </contour>
  </outline>
</glyph>
<glyph name="gravecomb" format="2">
  <unicode hex="0300"/>
  <anchor x="-138.1" y="544.0" name="_top"/>
  <anchor x="-131.8" y="765.3" name="top"/>
  <outline>
    <contour>
      <point x="-163.2" y="595.3" type="line"/>
      <point x="-72.3" y="595.3" type="line"/>
      <point x="-95.1" y="789.3" type="line"/>
      <point x="-213.8" y="789.3" type="line"/>
    </contour>
  </outline>
</glyph>
<glyph name="acutecomb" format="2">
  <unicode hex="0301"/>
  <anchor x="-138.1" y="544.0" name="_top"/>
  <anchor x="-74.4" y="765.3" name="top"/>
  <outline>
    <contour>
      <point x="-187.3" y="595.3" type="line"/>
      <point x="-94.3" y="595.3" type="line"/>
      <point x="14.0" y="789.3" type="line"/>
      <point x="-109.19999999999999" y="789.3" type="line"/>
    </contour>
  </outline>
</glyph>
<glyph name="uni0302" format="2">
  <unicode hex="0302"/>
  <anchor x="-138.1" y="544.0" name="_top"/>
  <anchor x="-101.69999999999999" y="769.6" name="top"/>
  <anchor x="40.9" y="657.3" name="top_viet"/>
  <outline>
    <contour>
      <point x="-250.7" y="595.3" type="line"/>
      <point x="-152.8" y="595.3" type="line"/>
      <point x="-108.89999999999999" y="726.4" type="line"/>
      <point x="-106.69999999999999" y="595.3" type="line"/>
      <point x="-9.1" y="595.3" type="line"/>
      <point x="-33.2" y="789.3" type="line"/>
      <point x="-163.5" y="789.3" type="line"/>
    </contour>
  </outline>
</glyph>
<glyph name="tildecomb" format="2">
  <unicode hex="0303"/>
  <anchor x="-138.4" y="544.0" name="_top"/>
  <anchor x="-108.99999999999999" y="724.1999999999999" name="top"/>
  <outline>
    <contour>
      <point x="-253.6" y="598.0" type="curve"/>
      <point x="-184.4" y="598.0" type="line"/>
      <point x="-184.4" y="598.6"/>
      <point x="-184.0" y="603.6"/>
      <point x="-184.0" y="604.1999999999999" type="curve" smooth="yes"/>
      <point x="-183.2" y="626.0"/>
      <point x="-173.0" y="652.1999999999999"/>
      <point x="-157.0" y="652.1999999999999" type="curve" smooth="yes"/>
      <point x="-135.6" y="652.1999999999999"/>
      <point x="-126.6" y="602.6"/>
      <point x="-80.8" y="602.6" type="curve" smooth="yes"/>
      <point x="-30.0" y="602.6"/>
      <point x="3.8000000000000007" y="641.8"/>
      <point x="15.0" y="726.1999999999999" type="curve" smooth="yes"/>
      <point x="16.400000000000002" y="737.6"/>
      <point x="17.8" y="749.8"/>
      <point x="19.2" y="763.0" type="curve"/>
      <point x="-50.0" y="763.0" type="line"/>
      <point x="-50.0" y="761.8000000000001"/>
      <point x="-51.0" y="755.6"/>
      <point x="-51.0" y="755.6" type="curve" smooth="yes"/>
      <point x="-53.599999999999994" y="738.0"/>
      <point x="-59.6" y="707.0"/>
      <point x="-75.0" y="707.0" type="curve" smooth="yes"/>
      <point x="-97.6" y="707.0"/>
      <point x="-107.19999999999999" y="756.0"/>
      <point x="-154.2" y="756.0" type="curve" smooth="yes"/>
      <point x="-205.60000000000002" y="756.0"/>
      <point x="-238.2" y="716.1999999999999"/>
      <point x="-249.4" y="636.6" type="curve" smooth="yes"/>
      <point x="-250.8" y="625.1999999999999"/>
      <point x="-252.2" y="611.8"/>
    </contour>
  </outline>
</glyph>
<glyph name="uni0304" format="2">
  <unicode hex="0304"/>
  <anchor x="-138.4" y="544.0" name="_top"/>
  <anchor x="-107.6" y="739.6" name="top"/>
  <outline>
    <contour>
      <point x="-227.4" y="625.8" type="line"/>
      <point x="-23.599999999999994" y="625.8" type="line"/>
      <point x="-8.399999999999999" y="725.6" type="line"/>
      <point x="-211.79999999999998" y="725.6" type="line"/>
    </contour>
  </outline>
</glyph>
<glyph name="uni0306" format="2">
  <unicode hex="0306"/>
  <anchor x="-138.1" y="544.0" name="_top"/>
  <anchor x="-107.9" y="742.2" name="top"/>
  <outline>
    <contour>
      <point x="-130.3" y="601.2" type="curve" smooth="yes"/>
      <point x="-35.7" y="601.2"/>
      <point x="4.9" y="641.0"/>
      <point x="17.3" y="759.3" type="curve"/>
      <point x="-52.599999999999994" y="759.3" type="line"/>
      <point x="-57.8" y="722.7"/>
      <point x="-70.1" y="693.8"/>
      <point x="-115.4" y="693.8" type="curve" smooth="yes"/>
      <point x="-153.0" y="693.8"/>
      <point x="-163.1" y="711.3"/>
      <point x="-163.1" y="736.1" type="curve" smooth="yes"/>
      <point x="-163.1" y="743.7"/>
      <point x="-162.8" y="749.4"/>
      <point x="-160.5" y="759.3" type="curve"/>
      <point x="-230.1" y="759.3" type="line"/>
      <point x="-235.2" y="735.7"/>
      <point x="-237.89999999999998" y="711.8"/>
      <point x="-237.89999999999998" y="692.7" type="curve" smooth="yes"/>
      <point x="-237.89999999999998" y="617.2"/>
      <point x="-194.39999999999998" y="601.2"/>
    </contour>
  </outline>
</glyph>
<glyph name="uni0307" format="2">
  <unicode hex="0307"/>
  <anchor x="-138.1" y="544.0" name="_top"/>
  <anchor x="-108.1" y="713.9" name="top"/>
  <outline>
    <contour>
      <point x="-127.0" y="615.1" type="curve" smooth="yes"/>
      <point x="-77.6" y="615.1"/>
      <point x="-63.099999999999994" y="664.6"/>
      <point x="-63.099999999999994" y="704.6" type="curve" smooth="yes"/>
      <point x="-63.099999999999994" y="737.8"/>
      <point x="-80.5" y="747.7"/>
      <point x="-106.6" y="747.7" type="curve" smooth="yes"/>
      <point x="-155.0" y="747.7"/>
      <point x="-170.2" y="696.5"/>
      <point x="-170.2" y="656.9" type="curve" smooth="yes"/>
      <point x="-170.2" y="624.0"/>
      <point x="-152.5" y="615.1"/>
    </contour>
  </outline>
</glyph>
<glyph name="uni0308" format="2">
  <unicode hex="0308"/>
  <anchor x="-138.1" y="544.0" name="_top"/>
  <anchor x="-112.3" y="713.9" name="top"/>
  <outline>
    <contour>
      <point x="-57.199999999999996" y="619.3" type="curve" smooth="yes"/>
      <point x="-25.9" y="619.3"/>
      <point x="-3.6999999999999993" y="633.8"/>
      <point x="4.0" y="686.7" type="curve" smooth="yes"/>
      <point x="12.399999999999999" y="738.5"/>
      <point x="-5.0" y="751.9"/>
      <point x="-35.4" y="751.9" type="curve" smooth="yes"/>
      <point x="-66.0" y="751.9"/>
      <point x="-88.89999999999999" y="736.1"/>
      <point x="-97.3" y="682.5" type="curve" smooth="yes"/>
      <point x="-105.0" y="631.7"/>
      <point x="-85.5" y="619.3"/>
    </contour>
    <contour>
      <point x="-196.7" y="619.3" type="curve" smooth="yes"/>
      <point x="-165.39999999999998" y="619.3"/>
      <point x="-142.5" y="633.8"/>
      <point x="-134.8" y="686.7" type="curve" smooth="yes"/>
      <point x="-126.4" y="738.5"/>
      <point x="-145.9" y="751.9"/>
      <point x="-174.89999999999998" y="751.9" type="curve" smooth="yes"/>
      <point x="-205.8" y="751.9"/>
      <point x="-227.7" y="735.2"/>
      <point x="-236.1" y="682.5" type="curve" smooth="yes"/>
      <point x="-243.79999999999998" y="631.7"/>
      <point x="-226.39999999999998" y="619.3"/>
    </contour>
  </outline>
</glyph>
<glyph name="hookabovecomb" format="2">
  <unicode hex="0309"/>
  <anchor x="-138.4" y="544.0" name="_top"/>
  <anchor x="-104.0" y="802.4" name="top"/>
  <outline>
    <contour>
      <point x="-155.6" y="595.8" type="line"/>
      <point x="-55.599999999999994" y="612.6"/>
      <point x="-25.0" y="656.0"/>
      <point x="-25.0" y="715.1999999999999" type="curve" smooth="yes"/>
      <point x="-25.0" y="765.5999999999999"/>
      <point x="-60.8" y="798.4"/>
      <point x="-118.0" y="798.4" type="curve" smooth="yes"/>
      <point x="-141.8" y="798.4"/>
      <point x="-164.4" y="793.1999999999999"/>
      <point x="-181.2" y="786.4000000000001" type="curve"/>
      <point x="-186.79999999999998" y="707.2" type="line"/>
      <point x="-171.0" y="710.8"/>
      <point x="-161.8" y="712.8000000000001"/>
      <point x="-148.0" y="712.8000000000001" type="curve" smooth="yes"/>
      <point x="-126.6" y="712.8000000000001"/>
      <point x="-117.6" y="703.2"/>
      <point x="-117.6" y="690.2" type="curve" smooth="yes"/>
      <point x="-117.6" y="670.0"/>
      <point x="-131.4" y="663.0"/>
      <point x="-158.8" y="656.0" type="curve"/>
    </contour>
  </outline>
</glyph>
